<svg id="Layer_1" data-name="Layer 1" xmlns="http://www.w3.org/2000/svg" viewBox="0 0 146.2 31.67"><defs><style>.cls-1{fill:#1c3260;}.cls-2{fill:#17a0db;}</style></defs><path class="cls-1" d="M11.51,27.68H4.63L3.27,31.33H0l6.49-16.9H9.72l6.47,16.9H12.8Zm-6-2.39H10.7L8.09,17.63Z"/><path class="cls-1" d="M21.85,29h2v2.36h-7V29h2V16.72h-2V14.43h7v2.29h-2Z"/><path class="cls-1" d="M43,16.93H35.48v4.52h6.45v2.41H35.48v4.92h8v2.55H32.35V14.43H43Z"/><path class="cls-1" d="M50.5,18.58a6.85,6.85,0,0,1,4.16,1.34L53.53,22a5.34,5.34,0,0,0-3-.94A3,3,0,0,0,48,22.14a4.73,4.73,0,0,0-.83,3A4.82,4.82,0,0,0,48,28.05a2.93,2.93,0,0,0,2.49,1.11,6.11,6.11,0,0,0,3.08-1l1.07,2.13a7.34,7.34,0,0,1-2.05,1,7.94,7.94,0,0,1-2.34.35,6,6,0,0,1-3.63-1,5.29,5.29,0,0,1-1.91-2.48,8.7,8.7,0,0,1-.55-3.08,7.37,7.37,0,0,1,.76-3.45,5.35,5.35,0,0,1,2.2-2.27A6.88,6.88,0,0,1,50.5,18.58Z"/><path class="cls-1" d="M68.5,25.08a7.24,7.24,0,0,1-.77,3.42,5.61,5.61,0,0,1-2.25,2.33,7.44,7.44,0,0,1-6.89,0,5.77,5.77,0,0,1-2.23-2.34,7.25,7.25,0,0,1-.77-3.4,7.25,7.25,0,0,1,.76-3.42,5.49,5.49,0,0,1,2.21-2.27A7,7,0,0,1,62,18.58a7.06,7.06,0,0,1,3.49.81,5.46,5.46,0,0,1,2.22,2.27A7.25,7.25,0,0,1,68.5,25.08Zm-9.81,0a5.3,5.3,0,0,0,.8,3.06,2.88,2.88,0,0,0,2.57,1.16,2.93,2.93,0,0,0,2.58-1.16,5.23,5.23,0,0,0,.81-3.06,5,5,0,0,0-.81-3A3,3,0,0,0,62,21a2.9,2.9,0,0,0-2.55,1.11A5.06,5.06,0,0,0,58.69,25.08Z"/><path class="cls-1" d="M71,21.76c0-.61-.07-1.56-.21-2.84h2.86a10.61,10.61,0,0,1,.19,1.43h0a4.31,4.31,0,0,1,1.65-1.28A5.72,5.72,0,0,1,78,18.58a4.73,4.73,0,0,1,2.57.65A3.93,3.93,0,0,1,82,20.9a5.15,5.15,0,0,1,.48,2.22v8.21h-3V23.76a3.07,3.07,0,0,0-.58-1.94,2.3,2.3,0,0,0-2-.76,2.77,2.77,0,0,0-2.22,1A3.58,3.58,0,0,0,74,24.43v6.9H71Z"/><path class="cls-1" d="M97.7,25.08a7.24,7.24,0,0,1-.77,3.42,5.61,5.61,0,0,1-2.25,2.33,7.42,7.42,0,0,1-6.88,0,5.73,5.73,0,0,1-2.24-2.34,7.37,7.37,0,0,1-.77-3.4,7.25,7.25,0,0,1,.76-3.42,5.49,5.49,0,0,1,2.21-2.27,7,7,0,0,1,3.47-.81,7.06,7.06,0,0,1,3.49.81,5.46,5.46,0,0,1,2.22,2.27A7.25,7.25,0,0,1,97.7,25.08Zm-9.81,0a5.3,5.3,0,0,0,.8,3.06,2.88,2.88,0,0,0,2.57,1.16,2.91,2.91,0,0,0,2.58-1.16,5.23,5.23,0,0,0,.81-3.06,5,5,0,0,0-.81-3A3,3,0,0,0,91.23,21a2.91,2.91,0,0,0-2.55,1.11A5.06,5.06,0,0,0,87.89,25.08Z"/><path class="cls-1" d="M100.16,21.76c0-.61-.07-1.56-.21-2.84h2.86a13.46,13.46,0,0,1,.2,1.4h0a4.56,4.56,0,0,1,1.62-1.26,5.16,5.16,0,0,1,2.28-.48,4.12,4.12,0,0,1,3.91,2.05h0A4.71,4.71,0,0,1,115,18.58a4.66,4.66,0,0,1,2.59.68A4.17,4.17,0,0,1,119.16,21a5.83,5.83,0,0,1,.49,2.36v7.93h-3v-7.5a3.39,3.39,0,0,0-.55-2,2.11,2.11,0,0,0-1.83-.76,2.47,2.47,0,0,0-2.12,1,4.18,4.18,0,0,0-.75,2.52v6.73h-3V23.6a2.89,2.89,0,0,0-.57-1.82A2.17,2.17,0,0,0,106,21a2.52,2.52,0,0,0-2.1,1,3.77,3.77,0,0,0-.76,2.42v6.9h-3Z"/><path class="cls-1" d="M122.42,15.05c0-1.15.61-1.72,1.84-1.72a1.78,1.78,0,0,1,1.4.48,1.75,1.75,0,0,1,.43,1.24,1.71,1.71,0,0,1-.44,1.22,2.32,2.32,0,0,1-2.8,0A1.75,1.75,0,0,1,122.42,15.05Zm3.32,16.28h-3V18.92h3Z"/><path class="cls-1" d="M137.2,19.89,136,21.78a5.55,5.55,0,0,0-2.93-.91,2.77,2.77,0,0,0-1.48.33,1,1,0,0,0-.53.91,1.21,1.21,0,0,0,.24.8,1.93,1.93,0,0,0,.78.52,13.57,13.57,0,0,0,1.65.48,6,6,0,0,1,2.74,1.34,3.17,3.17,0,0,1,.92,2.36,3.47,3.47,0,0,1-1.48,3,6.13,6.13,0,0,1-3.63,1.05,7.34,7.34,0,0,1-4.59-1.41L129,28.39a6.74,6.74,0,0,0,1.52.72,5.37,5.37,0,0,0,1.64.24,2.82,2.82,0,0,0,1.58-.38,1.29,1.29,0,0,0,.56-1.15,1.26,1.26,0,0,0-.23-.79,2.05,2.05,0,0,0-.77-.5,13.31,13.31,0,0,0-1.62-.48A5.59,5.59,0,0,1,129,24.72a3.3,3.3,0,0,1-.87-2.41,3.21,3.21,0,0,1,1.33-2.74,5.8,5.8,0,0,1,3.54-1A7,7,0,0,1,137.2,19.89Z"/><path class="cls-1" d="M143.07,19h3.08V21.3h-3.08v6.19c0,1.18.53,1.76,1.6,1.76a3.55,3.55,0,0,0,1.1-.14l.43,2.2a5.91,5.91,0,0,1-2.17.36,3.94,3.94,0,0,1-2.9-1,3.81,3.81,0,0,1-1-2.88V21.3H138V19.39l2-.36V16.1l3-1.05Z"/><path class="cls-2" d="M.43,7.9,1,7.22A3.35,3.35,0,0,0,2,7.81,4,4,0,0,0,3.29,8a2.28,2.28,0,0,0,1.4-.4,1.39,1.39,0,0,0,.53-1.17A1.43,1.43,0,0,0,5,5.54,1.85,1.85,0,0,0,4.27,5,8.35,8.35,0,0,0,3.1,4.61a4.16,4.16,0,0,1-1.78-.85A1.91,1.91,0,0,1,.73,2.27,2,2,0,0,1,1.53.6a3.28,3.28,0,0,1,2-.6A4.75,4.75,0,0,1,5,.2,4.32,4.32,0,0,1,6.14.8l-.48.7a3.81,3.81,0,0,0-1-.48A3.79,3.79,0,0,0,3.56.86a2.21,2.21,0,0,0-1.29.35,1.11,1.11,0,0,0-.49,1,1.12,1.12,0,0,0,.45,1,4.57,4.57,0,0,0,1.47.6,4.81,4.81,0,0,1,1.94.91,2.13,2.13,0,0,1,.66,1.7,2.28,2.28,0,0,1-.4,1.38,2.44,2.44,0,0,1-1.09.85,3.94,3.94,0,0,1-1.53.28A4.3,4.3,0,0,1,.43,7.9Z"/><path class="cls-2" d="M7.28,7a1.72,1.72,0,0,1,.86-1.65,5.63,5.63,0,0,1,2.59-.46h.63V4.57a1.32,1.32,0,0,0-.37-1,1.69,1.69,0,0,0-1.14-.33A3.51,3.51,0,0,0,8,3.73l-.36-.68a4.15,4.15,0,0,1,2.25-.64,2.56,2.56,0,0,1,1.88.6,2.49,2.49,0,0,1,.59,1.83V7.33a10.7,10.7,0,0,0,.09,1.36h-.94a6.43,6.43,0,0,1-.08-.83h0a2.06,2.06,0,0,1-.84.74,3,3,0,0,1-1.32.26,2.08,2.08,0,0,1-1.43-.48A1.71,1.71,0,0,1,7.28,7Zm4.08-.59V5.64h-.54a6.8,6.8,0,0,0-1.43.12,1.39,1.39,0,0,0-.79.41,1.17,1.17,0,0,0-.26.8,1,1,0,0,0,.31.81,1.25,1.25,0,0,0,.87.28,2,2,0,0,0,1-.24,1.82,1.82,0,0,0,.64-.62A1.53,1.53,0,0,0,11.36,6.43Z"/><path class="cls-2" d="M15.4.19v8.5h-1V.19Z"/><path class="cls-2" d="M22.6,6H18.06a2.41,2.41,0,0,0,.56,1.49A1.85,1.85,0,0,0,20.06,8a3,3,0,0,0,1-.15,3.73,3.73,0,0,0,.89-.45l.45.66a3.69,3.69,0,0,1-1.1.56,4,4,0,0,1-1.29.2A2.8,2.8,0,0,1,17.81,8,3.46,3.46,0,0,1,17,5.6a3.93,3.93,0,0,1,.33-1.66,2.64,2.64,0,0,1,1-1.13,2.92,2.92,0,0,1,1.54-.4,2.47,2.47,0,0,1,2,.87,3.5,3.5,0,0,1,.7,2.29A4.26,4.26,0,0,1,22.6,6Zm-1-.79a2.39,2.39,0,0,0-.46-1.47,1.8,1.8,0,0,0-2.61,0,2.35,2.35,0,0,0-.5,1.45Z"/><path class="cls-2" d="M27.94,3.06l-.46.64a2.62,2.62,0,0,0-1.54-.5,1.58,1.58,0,0,0-.9.23.71.71,0,0,0-.32.63.83.83,0,0,0,.13.49,1,1,0,0,0,.45.32,6,6,0,0,0,.91.28,3,3,0,0,1,1.38.66A1.55,1.55,0,0,1,28,7a1.63,1.63,0,0,1-.67,1.4,2.72,2.72,0,0,1-1.65.5,3.44,3.44,0,0,1-2.21-.71L24,7.51a3.2,3.2,0,0,0,.8.41,2.75,2.75,0,0,0,.9.13,1.64,1.64,0,0,0,1-.26A.91.91,0,0,0,27,7a.91.91,0,0,0-.13-.52,1,1,0,0,0-.44-.33,6.87,6.87,0,0,0-.92-.29,3.06,3.06,0,0,1-1.38-.65,1.45,1.45,0,0,1-.43-1.12,1.49,1.49,0,0,1,.61-1.25,2.6,2.6,0,0,1,1.6-.46A3.29,3.29,0,0,1,27.94,3.06Z"/><path class="cls-2" d="M32.88.18l-.23.73a3.14,3.14,0,0,0-.74-.07c-.75,0-1.13.42-1.13,1.24v.5h1.54v.78H30.78V8.69h-1V3.36H28.69V2.71l1.07-.13V2.05A2,2,0,0,1,30.28.56,2.09,2.09,0,0,1,31.81,0,3.59,3.59,0,0,1,32.88.18Z"/><path class="cls-2" d="M39.2,5.62a3.77,3.77,0,0,1-.36,1.68,2.74,2.74,0,0,1-1.06,1.15,3.2,3.2,0,0,1-1.65.41,3.1,3.1,0,0,1-1.64-.42A2.65,2.65,0,0,1,33.43,7.3a3.77,3.77,0,0,1-.36-1.68,3.3,3.3,0,0,1,.81-2.34,2.89,2.89,0,0,1,2.25-.87,3.32,3.32,0,0,1,1.66.4,2.67,2.67,0,0,1,1.05,1.13A3.71,3.71,0,0,1,39.2,5.62Zm-5.07,0a2.86,2.86,0,0,0,.49,1.75A1.77,1.77,0,0,0,36.13,8a1.79,1.79,0,0,0,1.53-.67,2.86,2.86,0,0,0,.5-1.75,2.79,2.79,0,0,0-.5-1.74,1.81,1.81,0,0,0-1.53-.65,1.76,1.76,0,0,0-1.51.65A2.79,2.79,0,0,0,34.13,5.62Z"/><path class="cls-2" d="M40.83,4a10.59,10.59,0,0,0-.08-1.37h1c0,.27.07.6.09,1h0a1.93,1.93,0,0,1,1.92-1.14,2.26,2.26,0,0,1,.35,0L44,3.32l-.37,0a1.63,1.63,0,0,0-1.35.59,2.38,2.38,0,0,0-.47,1.52V8.69h-1Z"/><path class="cls-2" d="M47.57,2.41a3.38,3.38,0,0,1,1.1.18,3,3,0,0,1,.92.48l-.4.71a2.7,2.7,0,0,0-1.62-.52,1.78,1.78,0,0,0-1.49.65,2.67,2.67,0,0,0-.51,1.72,2.72,2.72,0,0,0,.51,1.71A1.77,1.77,0,0,0,47.55,8a3.09,3.09,0,0,0,1.65-.51l.37.72a3.47,3.47,0,0,1-2.09.66,2.86,2.86,0,0,1-1.69-.47,2.52,2.52,0,0,1-.95-1.19,4.1,4.1,0,0,1-.3-1.57,3.3,3.3,0,0,1,.81-2.34A2.83,2.83,0,0,1,47.57,2.41Z"/><path class="cls-2" d="M56,6H51.42A2.41,2.41,0,0,0,52,7.49,1.85,1.85,0,0,0,53.42,8a3,3,0,0,0,1-.15,3.49,3.49,0,0,0,.88-.45l.46.66a3.69,3.69,0,0,1-1.1.56,4,4,0,0,1-1.29.2A2.8,2.8,0,0,1,51.17,8a3.46,3.46,0,0,1-.78-2.37,3.93,3.93,0,0,1,.33-1.66,2.64,2.64,0,0,1,1-1.13,2.92,2.92,0,0,1,1.54-.4,2.47,2.47,0,0,1,2,.87A3.5,3.5,0,0,1,56,5.57,4.26,4.26,0,0,1,56,6Zm-1-.79a2.39,2.39,0,0,0-.46-1.47,1.8,1.8,0,0,0-2.61,0,2.35,2.35,0,0,0-.5,1.45Z"/><path class="cls-2" d="M65.52,8.69,63.59,5.58H61.81V8.69H60.74V.19h2.8A3.5,3.5,0,0,1,65,.5a2.42,2.42,0,0,1,1.08.92,2.78,2.78,0,0,1,.39,1.51A2.41,2.41,0,0,1,66,4.55a2.81,2.81,0,0,1-1.38.86l2.13,3.28Zm-2-3.93a2.07,2.07,0,0,0,1.38-.46,1.73,1.73,0,0,0,.54-1.37,1.74,1.74,0,0,0-.56-1.41A2.08,2.08,0,0,0,63.47,1H61.8V4.76Z"/><path class="cls-2" d="M73.14,6H68.6a2.36,2.36,0,0,0,.57,1.49A1.83,1.83,0,0,0,70.61,8a3.12,3.12,0,0,0,1-.15,3.86,3.86,0,0,0,.88-.45l.45.66a3.76,3.76,0,0,1-1.09.56,4.06,4.06,0,0,1-1.29.2A2.77,2.77,0,0,1,68.36,8a3.41,3.41,0,0,1-.79-2.37,3.79,3.79,0,0,1,.34-1.66,2.62,2.62,0,0,1,1-1.13,3,3,0,0,1,1.55-.4,2.47,2.47,0,0,1,2,.87,3.5,3.5,0,0,1,.7,2.29A4.26,4.26,0,0,1,73.14,6Zm-1-.79a2.45,2.45,0,0,0-.47-1.47,1.59,1.59,0,0,0-1.29-.55,1.63,1.63,0,0,0-1.32.57,2.35,2.35,0,0,0-.5,1.45Z"/><path class="cls-2" d="M78.48,3.06,78,3.7a2.61,2.61,0,0,0-1.53-.5,1.53,1.53,0,0,0-.9.23.7.7,0,0,0-.33.63.91.91,0,0,0,.13.49,1,1,0,0,0,.45.32,6.39,6.39,0,0,0,.91.28,3,3,0,0,1,1.39.66A1.55,1.55,0,0,1,78.59,7a1.64,1.64,0,0,1-.68,1.4,2.7,2.7,0,0,1-1.65.5,3.44,3.44,0,0,1-2.21-.71l.47-.64a3.2,3.2,0,0,0,.8.41,2.84,2.84,0,0,0,.9.13,1.64,1.64,0,0,0,1-.26A.91.91,0,0,0,77.54,7a.91.91,0,0,0-.13-.52A1,1,0,0,0,77,6.18a6.87,6.87,0,0,0-.92-.29,3.06,3.06,0,0,1-1.38-.65,1.48,1.48,0,0,1-.43-1.12,1.49,1.49,0,0,1,.61-1.25,2.62,2.62,0,0,1,1.6-.46A3.29,3.29,0,0,1,78.48,3.06Z"/><path class="cls-2" d="M85.22,6H80.69a2.35,2.35,0,0,0,.56,1.49A1.85,1.85,0,0,0,82.69,8a3,3,0,0,0,1-.15,3.67,3.67,0,0,0,.88-.45L85,8.1a3.81,3.81,0,0,1-1.1.56,4.06,4.06,0,0,1-1.29.2A2.77,2.77,0,0,1,80.44,8a3.46,3.46,0,0,1-.79-2.37A3.93,3.93,0,0,1,80,3.94a2.57,2.57,0,0,1,1-1.13,2.92,2.92,0,0,1,1.54-.4,2.44,2.44,0,0,1,2,.87,3.5,3.5,0,0,1,.71,2.29A2.31,2.31,0,0,1,85.22,6Zm-1-.79a2.39,2.39,0,0,0-.47-1.47,1.56,1.56,0,0,0-1.28-.55,1.61,1.61,0,0,0-1.32.57,2.42,2.42,0,0,0-.51,1.45Z"/><path class="cls-2" d="M86.34,7a1.7,1.7,0,0,1,.86-1.65,5.58,5.58,0,0,1,2.58-.46h.64V4.57a1.35,1.35,0,0,0-.37-1,1.69,1.69,0,0,0-1.14-.33,3.57,3.57,0,0,0-1.84.51l-.36-.68A4.18,4.18,0,0,1,89,2.41a2.53,2.53,0,0,1,1.87.6,2.49,2.49,0,0,1,.6,1.83V7.33a12.85,12.85,0,0,0,.08,1.36h-.93a5.25,5.25,0,0,1-.09-.83h0a2.15,2.15,0,0,1-.85.74,2.94,2.94,0,0,1-1.31.26,2.06,2.06,0,0,1-1.43-.48A1.71,1.71,0,0,1,86.34,7Zm4.08-.59V5.64h-.54a6.9,6.9,0,0,0-1.44.12,1.42,1.42,0,0,0-.79.41,1.17,1.17,0,0,0-.26.8,1,1,0,0,0,.32.81,1.2,1.2,0,0,0,.86.28,2,2,0,0,0,1-.24,1.7,1.7,0,0,0,.63-.62A1.45,1.45,0,0,0,90.42,6.43Z"/><path class="cls-2" d="M93.42,4a10.62,10.62,0,0,0-.09-1.37h1c0,.27.06.6.08,1h0a1.94,1.94,0,0,1,1.92-1.14,2.14,2.14,0,0,1,.35,0l-.06.87-.37,0a1.62,1.62,0,0,0-1.34.59,2.32,2.32,0,0,0-.47,1.52V8.69h-1Z"/><path class="cls-2" d="M100.15,2.41a3.38,3.38,0,0,1,1.1.18,2.93,2.93,0,0,1,.93.48l-.41.71a2.66,2.66,0,0,0-1.62-.52,1.78,1.78,0,0,0-1.49.65,2.73,2.73,0,0,0-.5,1.72,2.78,2.78,0,0,0,.5,1.71,1.77,1.77,0,0,0,1.48.65,3.06,3.06,0,0,0,1.64-.51l.37.72a3.44,3.44,0,0,1-2.08.66,2.89,2.89,0,0,1-1.7-.47,2.58,2.58,0,0,1-1-1.19,4.1,4.1,0,0,1-.29-1.57,3.29,3.29,0,0,1,.8-2.34A2.86,2.86,0,0,1,100.15,2.41Z"/><path class="cls-2" d="M103.61.19h1V3.43h0a2.27,2.27,0,0,1,.82-.74,2.68,2.68,0,0,1,1.27-.28,2.06,2.06,0,0,1,1.7.67A2.5,2.5,0,0,1,109,4.74V8.69h-1V4.94a1.92,1.92,0,0,0-.36-1.2,1.35,1.35,0,0,0-1.16-.48,1.75,1.75,0,0,0-1.33.55,2,2,0,0,0-.49,1.37V8.69h-1Z"/></svg>