<svg id="Layer_1" data-name="Layer 1" xmlns="http://www.w3.org/2000/svg" viewBox="0 0 361 68"><defs><style>.cls-1{fill:#2193b0;}</style></defs><title>Artboard 1</title><path class="cls-1" d="M17.1,52.24H12.63V17.81H.47v-4H29.26v4H17.1Z"/><path class="cls-1" d="M47.51,22.93a17,17,0,0,1,3.44.32l-.6,4a15,15,0,0,0-3.15-.39,7.66,7.66,0,0,0-6,2.84,10.35,10.35,0,0,0-2.48,7.06V52.24H34.38V23.46H38l.5,5.33h.21a12.6,12.6,0,0,1,3.86-4.33A8.65,8.65,0,0,1,47.51,22.93Z"/><path class="cls-1" d="M74,52.24l-.87-4.09H73a12.06,12.06,0,0,1-4.29,3.66,13.1,13.1,0,0,1-5.35,1,9.63,9.63,0,0,1-6.71-2.21,8,8,0,0,1-2.43-6.27q0-8.73,13.95-9.14L73,35V33.2a7.3,7.3,0,0,0-1.46-5c-1-1.08-2.53-1.62-4.66-1.62a19,19,0,0,0-8.15,2.21l-1.34-3.33a20.26,20.26,0,0,1,4.67-1.82A20.52,20.52,0,0,1,67.16,23q5.15,0,7.63,2.28c1.65,1.52,2.48,4,2.48,7.33V52.24Zm-9.85-3.07a8.86,8.86,0,0,0,6.4-2.23,8.25,8.25,0,0,0,2.32-6.25v-2.6l-4.36.18q-5.2.18-7.5,1.62a4.87,4.87,0,0,0-2.3,4.45,4.5,4.5,0,0,0,1.44,3.6A5.93,5.93,0,0,0,64.19,49.17Z"/><path class="cls-1" d="M106,52.24V33.62a7.51,7.51,0,0,0-1.6-5.25c-1.07-1.16-2.74-1.73-5-1.73q-4.52,0-6.62,2.44t-2.1,8.06v15.1H86.25V23.46H89.8l.71,3.94h.21a8.88,8.88,0,0,1,3.75-3.3,12.21,12.21,0,0,1,5.39-1.17q5.19,0,7.82,2.51t2.63,8V52.24Z"/><path class="cls-1" d="M137.83,44.39a7.2,7.2,0,0,1-3,6.2q-3,2.17-8.4,2.18-5.73,0-8.93-1.81V46.91A21.27,21.27,0,0,0,122,48.57a18.66,18.66,0,0,0,4.58.6,10.32,10.32,0,0,0,5.25-1.09,3.75,3.75,0,0,0,.38-6.2,23.23,23.23,0,0,0-5.68-2.82,31.23,31.23,0,0,1-5.71-2.61,7.94,7.94,0,0,1-2.53-2.54,6.6,6.6,0,0,1-.82-3.39A6.46,6.46,0,0,1,120.29,25a13.32,13.32,0,0,1,7.85-2,23,23,0,0,1,9.09,1.89l-1.55,3.55a20.9,20.9,0,0,0-7.85-1.79,9,9,0,0,0-4.68,1,3,3,0,0,0-1.57,2.68,3.24,3.24,0,0,0,.59,2,5.85,5.85,0,0,0,1.9,1.54,41.83,41.83,0,0,0,5,2.13c3.42,1.24,5.73,2.5,6.93,3.76A6.64,6.64,0,0,1,137.83,44.39Z"/><path class="cls-1" d="M181.62,52.24V33.52a7.75,7.75,0,0,0-1.47-5.16,5.69,5.69,0,0,0-4.57-1.72c-2.72,0-4.72.78-6,2.33s-1.94,4-1.94,7.2V52.24h-4.36V33.52a7.75,7.75,0,0,0-1.47-5.16,5.73,5.73,0,0,0-4.6-1.72q-4.09,0-6,2.45t-1.9,8.05v15.1h-4.36V23.46h3.54l.71,3.94h.21a8.48,8.48,0,0,1,3.48-3.28,10.61,10.61,0,0,1,5-1.19q6.75,0,8.82,4.89h.22a9.09,9.09,0,0,1,3.72-3.57,11.55,11.55,0,0,1,5.57-1.32q4.89,0,7.32,2.51t2.43,8V52.24Z"/><path class="cls-1" d="M219.8,37.83q0,7-3.54,11t-9.8,4A12.93,12.93,0,0,1,199.61,51a12,12,0,0,1-4.63-5.2,18.23,18.23,0,0,1-1.62-7.93q0-7,3.52-11t9.77-3.93a12.2,12.2,0,0,1,9.6,4Q219.81,31,219.8,37.83Zm-21.93,0q0,5.51,2.21,8.4a8.75,8.75,0,0,0,13,0c1.48-1.91,2.22-4.72,2.22-8.41s-.74-6.44-2.22-8.34a7.81,7.81,0,0,0-6.56-2.85,7.67,7.67,0,0,0-6.46,2.81Q197.88,32.26,197.87,37.83Z"/><path class="cls-1" d="M251,23.46v2.76l-5.34.63a9.22,9.22,0,0,1,1.89,5.75,8.52,8.52,0,0,1-2.88,6.75c-1.93,1.68-4.57,2.52-7.94,2.52a13.19,13.19,0,0,1-2.41-.21c-1.86,1-2.79,2.22-2.79,3.7a1.89,1.89,0,0,0,1,1.75,7,7,0,0,0,3.33.56H241c3.11,0,5.51.66,7.18,2a6.87,6.87,0,0,1,2.51,5.73,8.17,8.17,0,0,1-3.84,7.29q-3.83,2.5-11.18,2.51-5.66,0-8.71-2.11a6.77,6.77,0,0,1-3.06-5.93,6.65,6.65,0,0,1,1.68-4.54,8.52,8.52,0,0,1,4.73-2.6,4.53,4.53,0,0,1-1.85-1.55,4.11,4.11,0,0,1-.75-2.45,4.6,4.6,0,0,1,.84-2.75A8.84,8.84,0,0,1,231.15,41a7.76,7.76,0,0,1-3.64-3.12,9.29,9.29,0,0,1-1.4-5q0-4.73,2.83-7.29c1.89-1.7,4.57-2.56,8-2.56a14.6,14.6,0,0,1,4.07.53Zm-23,33.62a3.91,3.91,0,0,0,2,3.54,10.83,10.83,0,0,0,5.65,1.21q5.49,0,8.13-1.64a5,5,0,0,0,2.64-4.45A3.55,3.55,0,0,0,245,52.49q-1.44-.9-5.44-.9h-5.22A6.85,6.85,0,0,0,229.71,53,5,5,0,0,0,228.05,57.08Zm2.36-24.4a5.87,5.87,0,0,0,1.71,4.57,6.84,6.84,0,0,0,4.76,1.55q6.38,0,6.38-6.2,0-6.5-6.46-6.49a6.37,6.37,0,0,0-4.73,1.66A6.67,6.67,0,0,0,230.41,32.68Z"/><path class="cls-1" d="M270.05,22.93a17.06,17.06,0,0,1,3.44.32l-.61,4a15,15,0,0,0-3.15-.39,7.63,7.63,0,0,0-6,2.84,10.3,10.3,0,0,0-2.48,7.06V52.24h-4.36V23.46h3.59l.5,5.33h.21a12.7,12.7,0,0,1,3.86-4.33A8.68,8.68,0,0,1,270.05,22.93Z"/><path class="cls-1" d="M278.5,15.66a2.88,2.88,0,0,1,.74-2.19,2.54,2.54,0,0,1,1.84-.7,2.58,2.58,0,0,1,1.81.71,2.83,2.83,0,0,1,.76,2.18,2.87,2.87,0,0,1-.76,2.19,2.55,2.55,0,0,1-1.81.72,2.52,2.52,0,0,1-1.84-.72A2.94,2.94,0,0,1,278.5,15.66Zm4.73,36.58h-4.36V23.46h4.36Z"/><path class="cls-1" d="M305.45,26.85h-7.33V52.24h-4.36V26.85h-5.14v-2l5.14-1.58V21.7q0-10.6,9.27-10.61a19.17,19.17,0,0,1,5.36.92l-1.13,3.49a14.45,14.45,0,0,0-4.3-.81,4.2,4.2,0,0,0-3.66,1.64c-.78,1.09-1.18,2.85-1.18,5.26v1.87h7.33Z"/><path class="cls-1" d="M334.42,52.24l-2.78-9.14h-14l-2.79,9.14h-8.77l13.55-38.55h10l13.6,38.55Zm-4.73-16q-3.85-12.44-4.34-14.06c-.33-1.08-.56-1.94-.7-2.57q-.87,3.36-5,16.63Z"/><path class="cls-1" d="M348,52.24V13.85h8.14V52.24Z"/></svg>