<?xml version="1.0" encoding="utf-8"?>
<!-- Generator: Adobe Illustrator 24.1.0, SVG Export Plug-In . SVG Version: 6.00 Build 0)  -->
<svg version="1.1" id="Layer_1" xmlns="http://www.w3.org/2000/svg" xmlns:xlink="http://www.w3.org/1999/xlink" x="0px" y="0px"
	 viewBox="0 0 64 64" style="enable-background:new 0 0 64 64;" xml:space="preserve">
<style type="text/css">
	.st0{fill:none;}
	.st1{fill:none;stroke:#032E61;stroke-width:4;stroke-miterlimit:10;}
	.st2{fill:#00A1E0;}
</style>
<path class="st0" d="M0,0h64v64H0V0z"/>
<path class="st1" d="M59.9,10.7H35.6c-0.2,0-0.3,0.1-0.3,0.3v24.6l6.2-6.2h18.3c0.2,0,0.3-0.1,0.3-0.3V11
	C60.2,10.8,60.1,10.7,59.9,10.7L59.9,10.7z"/>
<path class="st2" d="M21.7,31c-5,0-9.4,3.6-10.4,8.3C6.8,39.3,3,43,3,47.6s3.7,8.3,8.3,8.3H30c3.4,0,6.2-2.8,6.2-6.2
	c0-2.7-1.7-5.4-4.1-6.2v-2.1C32.1,35.6,27.4,31,21.7,31z"/>
</svg>
