<svg id="Layer_1" data-name="Layer 1" xmlns="http://www.w3.org/2000/svg" viewBox="0 0 361 68"><defs><style>.cls-1{fill:#1798c1;}</style></defs><title>Artboard 1</title><path class="cls-1" d="M21.94,68A15.45,15.45,0,0,1,8.76,61.49Q4,55,4,43.43q0-11.7,4.87-18.24a15.84,15.84,0,0,1,13.44-6.54q9,0,13.71,7h.42a53.25,53.25,0,0,1-1-9.49V.9h13V67.15h-10L36,61h-.56Q31,68,21.94,68Zm4.55-10.35c3.32,0,5.76-1,7.3-2.89s2.4-5.21,2.54-9.84v-1.4q0-7.67-2.36-11t-7.69-3.32a7.62,7.62,0,0,0-6.75,3.68q-2.4,3.69-2.41,10.71t2.43,10.54A7.93,7.93,0,0,0,26.49,57.65Z"/><path class="cls-1" d="M80.1,68q-11.49,0-18-6.34t-6.47-18q0-12,6-18.5t16.54-6.54q10.08,0,15.71,5.75t5.62,15.88v6.3H68.82q.21,5.54,3.28,8.65t8.6,3.11a35.41,35.41,0,0,0,8.13-.9,41.41,41.41,0,0,0,8-2.85v10a30.6,30.6,0,0,1-7.28,2.53A46.27,46.27,0,0,1,80.1,68ZM78.27,27.89a8.22,8.22,0,0,0-6.47,2.62,12.09,12.09,0,0,0-2.68,7.43H87.34c-.06-3.21-.89-5.68-2.51-7.43A8.49,8.49,0,0,0,78.27,27.89Z"/><path class="cls-1" d="M125.92,68q-22.23,0-22.22-24.4,0-12.14,6-18.54t17.33-6.41a33,33,0,0,1,14.82,3.24l-3.83,10.05c-2.05-.83-3.95-1.5-5.71-2a18.55,18.55,0,0,0-5.28-.78q-10.12,0-10.13,14.39,0,14,10.13,14a23,23,0,0,0,6.94-1,24.82,24.82,0,0,0,6.39-3.13V64.47A20.93,20.93,0,0,1,134,67.23,35.76,35.76,0,0,1,125.92,68Z"/><path class="cls-1" d="M178.17,67.15l-2.51-6.47h-.34a19.21,19.21,0,0,1-6.75,5.72,21.74,21.74,0,0,1-9,1.6q-6.86,0-10.79-3.92t-3.94-11.15q0-7.59,5.3-11.18t16-4l8.26-.26V35.43q0-7.24-7.41-7.24c-3.8,0-8.28,1.15-13.41,3.45l-4.3-8.77a38.63,38.63,0,0,1,18.22-4.3q9.59,0,14.69,4.17t5.11,12.69V67.15Zm-3.83-22.06-5,.17q-5.66.18-8.43,2.05a6.42,6.42,0,0,0-2.76,5.7q0,5.49,6.3,5.49a10,10,0,0,0,7.21-2.59,9.1,9.1,0,0,0,2.71-6.9Z"/><path class="cls-1" d="M253.37,67.15H236.59L209.51,20.06h-.38q.81,12.47.81,17.79v29.3h-11.8V4.9h16.65l27,46.62h.3q-.65-12.14-.64-17.16V4.9h11.88Z"/><path class="cls-1" d="M265.55,67.15V4.9h13.2V56.25H304v10.9Z"/><path class="cls-1" d="M354.33,24.31q0,10.05-6.28,15.38T330.19,45h-5.66V67.15h-13.2V4.9h19.88q11.32,0,17.22,4.87T354.33,24.31Zm-29.8,9.88h4.34q6.09,0,9.11-2.4a8.42,8.42,0,0,0,3-7c0-3.09-.84-5.38-2.53-6.85s-4.34-2.22-7.94-2.22h-6Z"/></svg>