<?xml version="1.0" encoding="utf-8"?>
<!-- Generator: Adobe Illustrator 21.0.2, SVG Export Plug-In . SVG Version: 6.00 Build 0)  -->
<svg version="1.1" id="Layer_1" xmlns="http://www.w3.org/2000/svg" xmlns:xlink="http://www.w3.org/1999/xlink" x="0px" y="0px"
	 viewBox="0 0 664 369.5" style="enable-background:new 0 0 664 369.5;" xml:space="preserve">
<style type="text/css">
	.st0{fill:#1D3160;}
</style>
<path class="st0" d="M8.4,73.1H45v4.8H2.8V1.4h5.6V73.1z"/>
<path class="st0" d="M52.2,4c0-2.7,1.4-4,4.1-4c2.7,0,4.1,1.3,4.1,4c0,2.6-1.4,3.9-4.1,3.9C53.5,7.9,52.2,6.6,52.2,4z M59,77.9h-5.4
	V24H59V77.9z"/>
<path class="st0" d="M69.5,89.9c0-3.2,1-6.1,2.9-8.6c1.9-2.5,5.2-4.7,9.9-6.8c-4-1.4-6-3.8-6-7c0-1.9,0.7-3.5,2.2-4.9
	c1.5-1.4,3.6-2.5,6.3-3.2c-3.8-1.1-6.8-3.1-9-6c-2.2-2.9-3.2-6.8-3.2-11.5c0-5.9,1.9-10.6,5.7-14c3.8-3.5,9.1-5.2,15.8-5.2
	c1.9,0,3.5,0.1,4.8,0.3c1.3,0.2,2.7,0.5,4.3,1h18v4.3l-13.2-0.8c2.2,1.2,4.1,3.1,5.5,5.6c1.4,2.5,2.1,5.6,2.1,9.2
	c0,6-1.9,10.6-5.6,13.9c-3.7,3.3-9.1,4.9-16.1,4.9c-3.6,0-6.6,0.6-9,1.7c-2.4,1.1-3.6,2.6-3.6,4.4c0,3.4,3.6,5.1,10.7,5.1
	c10.3,0.1,17.7,1.3,22.1,3.8c4.4,2.4,6.6,6.1,6.6,11c0,5.9-2.5,10.5-7.4,13.8c-4.9,3.3-11.8,4.9-20.6,4.9c-7.6,0-13.4-1.4-17.3-4.1
	C71.4,98.9,69.5,95,69.5,89.9z M115.2,87.5c0-2.6-0.8-4.7-2.5-6.3c-1.7-1.6-4.5-2.8-8.6-3.6c-4.1-0.8-9.8-1.2-17.1-1.2
	c-4.5,1.7-7.6,3.5-9.5,5.7c-1.8,2.1-2.8,4.6-2.8,7.5c0,7.8,6,11.8,17.9,11.8c7.3,0,12.8-1.2,16.7-3.6
	C113.2,95.4,115.2,92,115.2,87.5z M110.3,42c0-4.7-1.4-8.4-4.3-11.1c-2.8-2.7-6.9-4.1-12.2-4.1c-5.1,0-9.1,1.4-12,4.1
	c-2.9,2.7-4.3,6.3-4.3,10.9c0,4.9,1.4,8.7,4.1,11.3c2.7,2.6,6.8,3.9,12.3,3.9c5.5,0,9.7-1.3,12.4-3.9S110.3,46.9,110.3,42z"/>
<path class="st0" d="M131.7,1.4h5.4v32.3h0.2c1.7-3.3,4.1-6,7.5-8.1c3.3-2.1,7.4-3.1,12.2-3.1c6.8,0,11.8,2,15.1,6
	c3.3,4,5,9.1,5,15.2v34.2h-5.4V44.6c0-5-1.3-9.2-3.8-12.6c-2.5-3.3-6.5-5-12-5c-3.7,0-7,0.8-9.9,2.5c-2.8,1.7-5,4-6.6,6.9
	c-1.5,2.9-2.3,6.1-2.3,9.7v31.8h-5.4V1.4z"/>
<path class="st0" d="M200.7,24H216v4.2h-15.2v37.2c0,3.3,0.8,5.7,2.3,7.3c1.5,1.5,3.7,2.3,6.4,2.3c1.9,0,3.8-0.3,5.8-0.9l0.9,4
	c-2.2,0.9-4.8,1.3-7.6,1.3c-4.1,0-7.3-1.2-9.7-3.6s-3.6-5.8-3.6-10.2V28.2h-10.2v-3.6l10.2-0.6V9.8l5.4-1.9V24z"/>
<path class="st0" d="M227.3,35.7c0-3.5-0.2-7.3-0.6-11.7h5.1c0.4,3.7,0.6,7.1,0.6,10h0.2c1.7-3.5,4.3-6.3,7.6-8.4
	c3.3-2.1,7.5-3.1,12.4-3.1c6.8,0,11.8,2,15.1,6c3.3,4,5,9.1,5,15.2v34.2h-5.4V44.6c0-5-1.3-9.2-3.8-12.6c-2.5-3.3-6.5-5-12-5
	c-3.7,0-7,0.8-9.9,2.5c-2.8,1.7-5,4-6.6,6.9c-1.5,2.9-2.3,6.1-2.3,9.7v31.8h-5.4V35.7z"/>
<path class="st0" d="M288.4,4c0-2.7,1.4-4,4.1-4c2.7,0,4.1,1.3,4.1,4c0,2.6-1.4,3.9-4.1,3.9C289.8,7.9,288.4,6.6,288.4,4z
	 M295.2,77.9h-5.4V24h5.4V77.9z"/>
<path class="st0" d="M313.3,35.7c0-3.5-0.2-7.3-0.6-11.7h5.1c0.4,3.7,0.6,7.1,0.6,10h0.2c1.7-3.5,4.3-6.3,7.6-8.4
	c3.3-2.1,7.5-3.1,12.4-3.1c6.8,0,11.8,2,15.1,6c3.3,4,5,9.1,5,15.2v34.2h-5.4V44.6c0-5-1.3-9.2-3.8-12.6c-2.5-3.3-6.5-5-12-5
	c-3.7,0-7,0.8-9.9,2.5c-2.8,1.7-5,4-6.6,6.9c-1.5,2.9-2.3,6.1-2.3,9.7v31.8h-5.4V35.7z"/>
<path class="st0" d="M368.2,89.9c0-3.2,1-6.1,2.9-8.6c1.9-2.5,5.2-4.7,9.9-6.8c-4-1.4-6-3.8-6-7c0-1.9,0.7-3.5,2.2-4.9
	c1.5-1.4,3.6-2.5,6.3-3.2c-3.8-1.1-6.8-3.1-9-6c-2.2-2.9-3.2-6.8-3.2-11.5c0-5.9,1.9-10.6,5.7-14c3.8-3.5,9.1-5.2,15.8-5.2
	c1.9,0,3.5,0.1,4.8,0.3c1.3,0.2,2.7,0.5,4.3,1h18v4.3l-13.2-0.8c2.2,1.2,4.1,3.1,5.5,5.6c1.4,2.5,2.1,5.6,2.1,9.2
	c0,6-1.9,10.6-5.6,13.9c-3.7,3.3-9.1,4.9-16.1,4.9c-3.6,0-6.6,0.6-9,1.7c-2.4,1.1-3.6,2.6-3.6,4.4c0,3.4,3.6,5.1,10.7,5.1
	c10.3,0.1,17.7,1.3,22.1,3.8c4.4,2.4,6.6,6.1,6.6,11c0,5.9-2.5,10.5-7.4,13.8c-4.9,3.3-11.8,4.9-20.6,4.9c-7.6,0-13.4-1.4-17.3-4.1
	C370.1,98.9,368.2,95,368.2,89.9z M413.9,87.5c0-2.6-0.8-4.7-2.5-6.3c-1.7-1.6-4.5-2.8-8.6-3.6c-4.1-0.8-9.8-1.2-17.1-1.2
	c-4.5,1.7-7.6,3.5-9.5,5.7c-1.8,2.1-2.8,4.6-2.8,7.5c0,7.8,6,11.8,17.9,11.8c7.3,0,12.8-1.2,16.7-3.6
	C411.9,95.4,413.9,92,413.9,87.5z M409,42c0-4.7-1.4-8.4-4.3-11.1c-2.8-2.7-6.9-4.1-12.2-4.1c-5.1,0-9.1,1.4-12,4.1
	c-2.9,2.7-4.3,6.3-4.3,10.9c0,4.9,1.4,8.7,4.1,11.3c2.7,2.6,6.8,3.9,12.3,3.9c5.5,0,9.7-1.3,12.4-3.9S409,46.9,409,42z"/>
<path class="st0" d="M64.6,172.8c0,12.5-3.4,22-10.2,28.5c-6.8,6.5-16.3,9.7-28.6,9.7h-23v-76.5h22.9c12.5,0,22.1,3.2,28.8,9.6
	C61.2,150.5,64.6,160.1,64.6,172.8z M8.4,139.2v67.2h16.7c10.9,0,19.2-2.8,25.1-8.4c5.8-5.6,8.8-14,8.8-25.2
	c0-11.4-2.9-19.8-8.6-25.3c-5.8-5.5-14.2-8.3-25.2-8.3H8.4z"/>
<path class="st0" d="M122.2,185.8H79.7c0.2,6.6,2.1,12,5.5,16.2c3.5,4.1,8.4,6.2,14.7,6.2c3.5,0,6.7-0.5,9.4-1.5
	c2.7-1,5.5-2.4,8.2-4.3l2.5,3.6c-3,2.2-6.1,3.8-9.3,4.9c-3.3,1.1-6.9,1.7-11,1.7c-8.1,0-14.3-2.6-18.7-7.9
	c-4.4-5.3-6.6-12.3-6.6-20.9c0-5.5,1-10.4,2.9-14.6c1.9-4.2,4.8-7.5,8.4-9.9c3.7-2.4,8.1-3.6,13.2-3.6c7.6,0,13.5,2.5,17.4,7.5
	c4,5,6,11.6,6,20C122.3,184.2,122.3,185.1,122.2,185.8z M117.1,181.6c-0.1-6.7-1.8-12-4.9-15.9c-3.1-3.9-7.6-5.8-13.5-5.8
	c-5.9,0-10.5,2.1-13.8,6.2c-3.3,4.1-5,9.3-5.2,15.5H117.1z"/>
<path class="st0" d="M165.9,161.3l-2.5,3.5c-4.1-3.2-9-4.9-14.6-4.9c-4,0-7.1,0.8-9.4,2.5c-2.3,1.7-3.5,4-3.5,6.9c0,3,1.1,5.3,3.2,7
	c2.1,1.6,6,3.1,11.5,4.4c5.8,1.4,10,3.3,12.6,5.8c2.6,2.5,3.9,5.9,3.9,10.2c0,4.9-1.8,8.8-5.4,11.7c-3.6,2.9-8.2,4.3-13.7,4.3
	c-4,0-7.5-0.5-10.6-1.6c-3.1-1.1-5.9-2.7-8.5-4.8l2.6-3.3c2.6,1.9,5.1,3.2,7.6,4.1c2.5,0.9,5.4,1.3,8.8,1.3c4.2,0,7.5-1,10-3
	c2.5-2,3.7-4.8,3.7-8.3c0-2.3-0.4-4.2-1.3-5.6c-0.9-1.4-2.3-2.7-4.4-3.7c-2.1-1-5-2-8.9-3c-5.9-1.4-10.1-3.2-12.7-5.6
	c-2.6-2.3-3.8-5.5-3.8-9.5c0-4.3,1.7-7.7,5-10.2c3.3-2.5,7.7-3.7,13.2-3.7C155.6,155.6,161.3,157.5,165.9,161.3z"/>
<path class="st0" d="M178.7,137.2c0-2.7,1.4-4,4.1-4c2.7,0,4.1,1.3,4.1,4c0,2.6-1.4,3.9-4.1,3.9C180,141,178.7,139.8,178.7,137.2z
	 M185.5,211.1h-5.4v-53.9h5.4V211.1z"/>
<path class="st0" d="M196,223c0-3.2,1-6.1,2.9-8.6c1.9-2.5,5.2-4.7,9.9-6.8c-4-1.4-6-3.8-6-7c0-1.9,0.7-3.5,2.2-4.9
	c1.5-1.4,3.6-2.5,6.3-3.2c-3.8-1.1-6.8-3.1-9-6c-2.2-2.9-3.2-6.8-3.2-11.5c0-5.9,1.9-10.6,5.7-14c3.8-3.5,9.1-5.2,15.8-5.2
	c1.9,0,3.5,0.1,4.8,0.3c1.3,0.2,2.7,0.5,4.3,1h18v4.3l-13.2-0.8c2.2,1.2,4.1,3.1,5.5,5.6c1.4,2.5,2.1,5.6,2.1,9.2
	c0,6-1.9,10.6-5.6,13.9c-3.7,3.3-9.1,4.9-16.1,4.9c-3.6,0-6.6,0.6-9,1.7c-2.4,1.1-3.6,2.6-3.6,4.4c0,3.4,3.6,5.1,10.7,5.1
	c10.3,0.1,17.7,1.3,22.1,3.8c4.4,2.4,6.6,6.1,6.6,11c0,5.9-2.5,10.5-7.4,13.8c-4.9,3.3-11.8,4.9-20.6,4.9c-7.6,0-13.4-1.4-17.3-4.1
	C197.9,232.1,196,228.2,196,223z M241.7,220.7c0-2.6-0.8-4.7-2.5-6.3c-1.7-1.6-4.5-2.8-8.6-3.6c-4.1-0.8-9.8-1.2-17.1-1.2
	c-4.5,1.7-7.6,3.5-9.5,5.7c-1.8,2.1-2.8,4.6-2.8,7.5c0,7.8,6,11.8,17.9,11.8c7.3,0,12.8-1.2,16.7-3.6
	C239.7,228.6,241.7,225.1,241.7,220.7z M236.8,175.2c0-4.7-1.4-8.4-4.3-11.1c-2.8-2.7-6.9-4.1-12.2-4.1c-5.1,0-9.1,1.4-12,4.1
	c-2.9,2.7-4.3,6.3-4.3,10.9c0,4.9,1.4,8.7,4.1,11.3c2.7,2.6,6.8,3.9,12.3,3.9c5.5,0,9.7-1.3,12.4-3.9S236.8,180,236.8,175.2z"/>
<path class="st0" d="M258.1,168.8c0-3.5-0.2-7.3-0.6-11.7h5.1c0.4,3.7,0.6,7.1,0.6,10h0.2c1.7-3.5,4.3-6.3,7.6-8.4
	c3.3-2.1,7.5-3.1,12.4-3.1c6.8,0,11.8,2,15.1,6c3.3,4,5,9.1,5,15.2v34.2h-5.4v-33.3c0-5-1.3-9.2-3.8-12.6c-2.5-3.3-6.5-5-12-5
	c-3.7,0-7,0.8-9.9,2.5c-2.8,1.7-5,4-6.6,6.9c-1.5,2.9-2.3,6.1-2.3,9.7v31.8h-5.4V168.8z"/>
<path class="st0" d="M338.7,203.6l2.9-3.5c3.3,2.7,6.7,4.6,10.3,5.9c3.5,1.3,7.5,1.9,12,1.9c5.8,0,10.5-1.5,14.2-4.4s5.5-7,5.5-12.3
	c0-3.7-0.8-6.7-2.5-9c-1.7-2.3-3.9-4.2-6.8-5.7c-2.9-1.4-6.6-2.8-11.2-4c-7.4-1.9-12.9-4.4-16.3-7.4c-3.5-3-5.2-7.3-5.2-12.8
	c0-6,2.2-10.7,6.8-14.2c4.5-3.5,10.3-5.2,17.4-5.2c4.5,0,8.5,0.6,12,1.8c3.5,1.2,6.8,2.9,9.9,5.2l-2.7,3.7c-2.8-2-5.8-3.5-8.9-4.5
	c-3.1-1-6.6-1.5-10.4-1.5c-5.6,0-10.1,1.3-13.6,3.9c-3.4,2.6-5.1,6.2-5.1,10.8c0,4.3,1.5,7.6,4.4,9.8c2.9,2.2,7.6,4.2,14.1,6
	c5.2,1.4,9.5,3,12.9,4.8c3.4,1.8,6,4.2,7.9,7.1c1.9,2.9,2.9,6.6,2.9,11.2c0,4.6-1.1,8.5-3.3,11.8c-2.2,3.2-5.2,5.7-9,7.3
	c-3.8,1.7-8.1,2.5-12.9,2.5C354.1,212.7,345.7,209.7,338.7,203.6z"/>
<path class="st0" d="M414.1,226.4c-1.5,4.4-3.4,7.6-5.7,9.6c-2.3,2-5.3,3-9,3c-2.2,0-4.2-0.3-5.9-1l1.1-4.1c1.3,0.4,2.7,0.5,4.3,0.5
	c2.7,0,4.9-0.8,6.5-2.4c1.6-1.6,2.9-3.9,4-7l4.6-13.6l-21.1-54.2h5.7l18.1,48.1h0.1l16.9-48.1h5.6L414.1,226.4z"/>
<path class="st0" d="M477.7,161.3l-2.5,3.5c-4.1-3.2-9-4.9-14.6-4.9c-4,0-7.1,0.8-9.4,2.5c-2.3,1.7-3.5,4-3.5,6.9c0,3,1.1,5.3,3.2,7
	c2.1,1.6,6,3.1,11.5,4.4c5.8,1.4,10,3.3,12.6,5.8c2.6,2.5,3.9,5.9,3.9,10.2c0,4.9-1.8,8.8-5.4,11.7c-3.6,2.9-8.2,4.3-13.7,4.3
	c-4,0-7.5-0.5-10.6-1.6c-3.1-1.1-5.9-2.7-8.5-4.8l2.6-3.3c2.6,1.9,5.1,3.2,7.6,4.1c2.5,0.9,5.4,1.3,8.8,1.3c4.2,0,7.5-1,10-3
	c2.5-2,3.7-4.8,3.7-8.3c0-2.3-0.4-4.2-1.3-5.6c-0.9-1.4-2.3-2.7-4.4-3.7c-2.1-1-5-2-8.9-3c-5.9-1.4-10.1-3.2-12.7-5.6
	c-2.6-2.3-3.8-5.5-3.8-9.5c0-4.3,1.7-7.7,5-10.2c3.3-2.5,7.7-3.7,13.2-3.7C467.4,155.6,473.1,157.5,477.7,161.3z"/>
<path class="st0" d="M498.9,157.1h15.2v4.2h-15.2v37.2c0,3.3,0.8,5.7,2.3,7.3c1.5,1.5,3.7,2.3,6.4,2.3c1.9,0,3.8-0.3,5.8-0.9l0.9,4
	c-2.2,0.9-4.8,1.3-7.6,1.3c-4.1,0-7.3-1.2-9.7-3.6s-3.6-5.8-3.6-10.2v-37.5h-10.2v-3.6l10.2-0.6V143l5.4-1.9V157.1z"/>
<path class="st0" d="M568.4,185.8h-42.5c0.2,6.6,2.1,12,5.5,16.2c3.5,4.1,8.4,6.2,14.7,6.2c3.5,0,6.7-0.5,9.4-1.5
	c2.7-1,5.5-2.4,8.2-4.3l2.5,3.6c-3,2.2-6.1,3.8-9.3,4.9c-3.3,1.1-6.9,1.7-11,1.7c-8.1,0-14.3-2.6-18.7-7.9
	c-4.4-5.3-6.6-12.3-6.6-20.9c0-5.5,1-10.4,2.9-14.6c1.9-4.2,4.8-7.5,8.4-9.9c3.7-2.4,8.1-3.6,13.2-3.6c7.6,0,13.5,2.5,17.4,7.5
	c4,5,6,11.6,6,20C568.5,184.2,568.4,185.1,568.4,185.8z M563.3,181.6c-0.1-6.7-1.8-12-4.9-15.9c-3.1-3.9-7.6-5.8-13.5-5.8
	c-5.9,0-10.5,2.1-13.8,6.2c-3.3,4.1-5,9.3-5.2,15.5H563.3z"/>
<path class="st0" d="M582.2,168.8c0-3.5-0.2-7.3-0.6-11.7h5.1c0.4,3.7,0.6,7.1,0.6,9.9h0.2c1.6-3.5,4-6.2,7.3-8.3
	c3.3-2.1,7.2-3.1,11.7-3.1c9.5,0,15.4,4.5,17.8,13.6h0.2c1.6-4.2,4.1-7.6,7.7-10c3.5-2.4,7.7-3.6,12.4-3.6c6.4,0,11.2,2,14.5,6
	s4.9,8.9,4.9,14.7v34.7h-5.4v-34c0-4.7-1.2-8.7-3.7-12c-2.4-3.3-6.2-5-11.1-5c-3.7,0-7,1-9.8,3c-2.8,2-4.9,4.6-6.3,7.8
	c-1.4,3.2-2.2,6.7-2.2,10.5v29.7h-5.3v-33.5c0-4.9-1.2-9-3.6-12.4c-2.4-3.4-6.1-5.1-11.2-5.1c-3.6,0-6.8,0.9-9.5,2.6
	c-2.7,1.7-4.8,4.1-6.2,7c-1.4,2.9-2.2,6.1-2.2,9.7v31.8h-5.4V168.8z"/>
<path class="st0" d="M0,365.3c3.1-1.2,5.5-2.5,7.3-4.2c1.8-1.6,3.3-3.9,4.4-6.8c1.1-2.9,2.1-6.9,2.9-12l8.1-50.3h-9.9l0.5-3.5
	l10-0.8l1-6.9c0.9-5.6,2.9-9.9,5.9-12.8c3-2.9,7.1-4.4,12.1-4.4c3.5,0,6.6,0.5,9.3,1.4l-1.5,3.9c-2.3-0.6-4.8-1-7.3-1
	c-3.7,0.1-6.6,1.2-8.8,3.5c-2.2,2.2-3.6,5.4-4.3,9.5l-1,6.8h13.8l-0.8,4.2H28.1l-8,50.3c-0.9,6-2.1,10.7-3.6,14.1
	c-1.5,3.4-3.4,6.1-5.7,8c-2.3,1.9-5.4,3.6-9.3,5L0,365.3z"/>
<path class="st0" d="M95.5,308.2c0,6.4-1.3,12.3-3.8,17.6c-2.5,5.3-6.1,9.6-10.6,12.7c-4.6,3.1-9.9,4.7-15.9,4.7
	c-7.1,0-12.6-2-16.4-6c-3.8-4-5.7-9.5-5.7-16.3c0-6.4,1.2-12.2,3.7-17.5c2.5-5.3,6-9.4,10.6-12.5c4.6-3.1,9.9-4.6,15.9-4.6
	c7.1,0,12.6,2,16.5,5.9C93.6,296.1,95.5,301.4,95.5,308.2z M48.5,320.6c0,5.5,1.4,10,4.2,13.2s7,4.9,12.6,4.9c5,0,9.4-1.4,13.1-4.1
	c3.7-2.7,6.6-6.4,8.5-11c2-4.6,3-9.7,3-15.1c0-5.5-1.4-9.9-4.3-13.1c-2.8-3.2-7.1-4.8-12.8-4.8c-5,0-9.4,1.4-13.1,4.1
	c-3.7,2.7-6.5,6.4-8.4,11C49.5,310.2,48.5,315.2,48.5,320.6z"/>
<path class="st0" d="M111.2,299.7c0.5-3.7,0.9-7.6,1.2-11.9h5c-0.1,4.6-0.7,9.1-1.6,13.4h0.2c2.2-5.1,5.1-8.9,8.5-11.3
	c3.5-2.4,7.2-3.6,11.3-3.6c1,0,2.1,0.1,3.1,0.3l-1.1,4.8c-0.7-0.2-1.7-0.3-3-0.3c-3.6,0-6.9,1.4-9.9,4.2c-3,2.8-5.5,6.5-7.5,11.1
	c-2,4.6-3.4,9.6-4.2,14.9l-3.3,20.5h-5.4L111.2,299.7z"/>
<path class="st0" d="M212,341.7L192.6,312h-18.9v29.7h-5.6v-76.5H192c4.5,0,8.6,0.9,12.4,2.6s6.8,4.4,9.1,7.9
	c2.3,3.5,3.5,7.9,3.5,13.2c0,6.3-1.8,11.3-5.3,15.1c-3.5,3.8-8,6.3-13.5,7.3l20.2,30.4H212z M191.8,307.6c5.6,0,10.3-1.6,14-4.9
	c3.7-3.2,5.6-7.8,5.6-13.8c0-6.3-1.9-11.1-5.7-14.3c-3.8-3.2-8.4-4.8-13.9-4.8h-18v37.8H191.8z"/>
<path class="st0" d="M272.9,316.4h-42.5c0.2,6.6,2.1,12,5.5,16.2c3.5,4.1,8.4,6.2,14.7,6.2c3.5,0,6.7-0.5,9.4-1.5
	c2.7-1,5.5-2.4,8.2-4.3l2.5,3.6c-3,2.2-6.1,3.8-9.3,4.9c-3.3,1.1-6.9,1.7-11,1.7c-8.1,0-14.3-2.6-18.7-7.9
	c-4.4-5.3-6.6-12.3-6.6-20.9c0-5.5,1-10.4,2.9-14.6c1.9-4.2,4.8-7.5,8.4-9.9c3.7-2.4,8.1-3.6,13.2-3.6c7.6,0,13.5,2.5,17.4,7.5
	c4,5,6,11.6,6,20C273,314.9,273,315.8,272.9,316.4z M267.8,312.2c-0.1-6.7-1.8-12-4.9-15.9c-3.1-3.9-7.6-5.8-13.5-5.8
	c-5.9,0-10.5,2.1-13.8,6.2c-3.3,4.1-5,9.3-5.2,15.5H267.8z"/>
<path class="st0" d="M281.6,327.3c0-4.7,1.2-8.4,3.5-11c2.3-2.7,5.7-4.6,10.3-5.7c4.6-1.1,10.5-1.7,17.8-1.7c2.6,0,4.6,0,5.9,0.1
	v-3.6c0-9.9-5.1-14.9-15.2-14.9c-3.3,0-6.3,0.4-9,1.2c-2.7,0.8-5.3,2-7.9,3.6l-1.9-3.7c5.4-3.7,11.7-5.5,19-5.5c6.9,0,12,1.7,15.4,5
	c3.3,3.3,5,8.4,5,15.3v23.3c0,3.4,0.2,7.3,0.6,11.8h-5c-0.3-2.5-0.5-5.5-0.6-9h-0.2c-1.9,3.4-4.5,6-7.9,7.8
	c-3.4,1.8-7.6,2.8-12.5,2.8c-5.4,0-9.6-1.4-12.7-4.2C283.2,336.4,281.6,332.4,281.6,327.3z M319.1,322.6v-9.5l-5.4-0.1
	c-6.3,0-11.4,0.4-15.2,1.2c-3.8,0.8-6.7,2.3-8.5,4.3c-1.9,2.1-2.8,4.9-2.8,8.6c0,3.8,1.1,6.7,3.3,8.8c2.2,2,5.4,3,9.5,3
	c4.2,0,7.7-0.9,10.6-2.6c2.9-1.7,5-3.9,6.4-6.4C318.4,327.4,319.1,325,319.1,322.6z"/>
<path class="st0" d="M363.1,286.3c3.4,0,6.6,0.5,9.7,1.5c3.1,1,5.8,2.4,8,4.3l-2.4,3.7c-4.2-3.3-9.3-5-15.3-5
	c-6.7,0-11.8,2.2-15.3,6.5c-3.5,4.4-5.2,10.1-5.2,17.3c0,7.1,1.7,12.8,5.2,17.3c3.5,4.5,8.6,6.7,15.2,6.7c5.4,0,10.6-1.7,15.4-5.1
	l2.2,3.7c-5.3,4-11.2,5.9-17.8,5.9c-5.7,0-10.4-1.3-14.3-3.8c-3.8-2.6-6.7-6-8.5-10.3c-1.9-4.3-2.8-9.1-2.8-14.4
	c0-8.6,2.3-15.5,6.8-20.7C348.5,288.9,354.9,286.3,363.1,286.3z"/>
<path class="st0" d="M402.1,287.8h15.2v4.2h-15.2v37.2c0,3.3,0.8,5.7,2.3,7.3c1.5,1.5,3.7,2.3,6.4,2.3c1.9,0,3.8-0.3,5.8-0.9l0.9,4
	c-2.2,0.9-4.8,1.3-7.6,1.3c-4.1,0-7.3-1.2-9.7-3.6s-3.6-5.8-3.6-10.2V292h-10.2v-3.6l10.2-0.6v-14.2l5.4-1.9V287.8z"/>
</svg>
