<svg id="Layer_1" data-name="Layer 1" xmlns="http://www.w3.org/2000/svg" viewBox="0 0 425 300"><defs><style>.cls-1{fill:#0c99d5;}.cls-2{fill:#fff;}</style></defs><title>Artboard 1</title><path class="cls-1" d="M208.31,14.82l-7,2.61a74,74,0,0,0-24,16.8A82.21,82.21,0,0,0,36.45,116.62,71.47,71.47,0,0,0,1.11,178.47c0,39.45,31.61,71.43,70.69,71.43a70.93,70.93,0,0,0,14.56-1.49,76.11,76.11,0,0,0,141.49,3.36,65.71,65.71,0,0,0,29.25,6.72,66.75,66.75,0,0,0,58.24-34.23A95.09,95.09,0,0,0,333.26,226c50.4,0,91.22-41.2,91.22-92.1s-40.82-92.09-91.22-92.09a91.6,91.6,0,0,0-37,7.84A74.85,74.85,0,0,0,231,11a69.48,69.48,0,0,0-15.3,1.62l-7.35,2.24"/><path class="cls-2" d="M62.46,156.32h0l.25.24,2.37,1.5a26.33,26.33,0,0,0,12.69,3c8.71,0,14.06-4.6,14.06-12.07v-.12c0-6.85-6.1-9.34-11.82-11.2l-.75-.25c-4.35-1.37-8-2.61-8-5.48v-.12c0-2.49,2.11-4.23,5.6-4.23A24.71,24.71,0,0,1,88,130.43s.88.5,1.12-.25l1.75-4.73a.94.94,0,0,0-.38-1A24.67,24.67,0,0,0,78,121.1h-.87c-8,0-13.44,4.85-13.44,11.69v.13c0,7.22,6.09,9.58,11.82,11.2l.87.25c4.23,1.24,7.84,2.36,7.84,5.35v.12c0,2.74-2.36,4.73-6.1,4.73H76.52l-2.61-.37a20.57,20.57,0,0,1-7-2.86l-1.49-.87c-.25-.13-.87-.38-1.12.37l-1.74,4.73-.13.75"/><path class="cls-2" d="M189.52,156.32h0l.25.24,2.37,1.5a25.66,25.66,0,0,0,9.45,2.86l3.12.12,3.11-.24c6.84-1,11-5.36,11-11.83v-.12c0-6.85-6.1-9.34-11.82-11.2l-.75-.25c-4.36-1.37-8-2.61-8-5.48v-.12c0-2.49,2.12-4.23,5.6-4.23a24.72,24.72,0,0,1,11.08,2.86s.87.5,1.12-.25l1.74-4.73a.92.92,0,0,0-.37-1A24.71,24.71,0,0,0,205,121.1h-.87c-8,0-13.44,4.85-13.44,11.69v.13c0,7.22,6.1,9.58,11.83,11.2l.87.25c4.23,1.24,7.84,2.36,7.84,5.35v.12c0,2.74-2.37,4.73-6.1,4.73a20.3,20.3,0,0,1-11.2-3.23l-1.49-.87a.71.71,0,0,0-1.12.37l-1.75,4.73v.75"/><path class="cls-2" d="M269.17,128.07l1.87.62a7.19,7.19,0,0,1,2.86,2.61c1.49,2.37,2.36,5.6,2.36,9.83s-.74,7.47-2.36,9.83-3.86,3.49-7.09,3.49-5.48-1.12-7-3.49-2.24-5.72-2.24-9.83.74-7.46,2.24-9.83,3.85-3.36,7-3.36l2.36.13m-2.24-6.85-4.11.37-3.61,1.12a15.94,15.94,0,0,0-5.6,4.24,15.32,15.32,0,0,0-3.23,6.34,25.87,25.87,0,0,0-1.12,7.84,27,27,0,0,0,1.12,7.84,19.17,19.17,0,0,0,3.36,6.35,15.82,15.82,0,0,0,5.6,4.23,18.87,18.87,0,0,0,7.71,1.49,18.49,18.49,0,0,0,7.72-1.49,14.44,14.44,0,0,0,5.6-4.23,15.5,15.5,0,0,0,3.24-6.35,26.14,26.14,0,0,0,1.12-7.84,27.36,27.36,0,0,0-1.12-7.84,21.81,21.81,0,0,0-3.24-6.34,15.85,15.85,0,0,0-5.6-4.24l-3.61-1.12-4.23-.37"/><path class="cls-2" d="M329.53,121.59l-3.74,1.12a16.9,16.9,0,0,0-5.85,4.24,17.44,17.44,0,0,0-3.48,6.34,25.87,25.87,0,0,0-1.12,7.84c0,6,1.62,10.83,4.85,14.44s8.09,5.35,14.31,5.35a28.17,28.17,0,0,0,10.21-1.87.65.65,0,0,0,.25-.87l-1.74-5a.66.66,0,0,0-.88-.49l-3.36,1-4,.25c-3.48,0-6.34-1-8.34-3.11s-3.11-5.35-3.11-10a15.69,15.69,0,0,1,2.74-9.58c1.74-2.36,4.48-3.48,8.09-3.48a25,25,0,0,1,7.72,1.12.65.65,0,0,0,.87-.5l1.74-5c.25-.5-.25-.75-.5-.87L342.1,122l-2.74-.62-5.48-.38-4.35.62"/><path class="cls-2" d="M381.17,139.14h0l-.12-3.36a25.83,25.83,0,0,0-.75-4,14.34,14.34,0,0,0-3.11-5.73,13.63,13.63,0,0,0-4.6-3.48l-3.24-1-3.73-.37-4.36.37-2,.5-1.74.75a16.24,16.24,0,0,0-5.6,4.35,18.15,18.15,0,0,0-3.36,6.35,26.44,26.44,0,0,0-1.12,7.84,25.83,25.83,0,0,0,1.12,7.84,16.2,16.2,0,0,0,3.61,6.22,17.33,17.33,0,0,0,6.09,4.11,24,24,0,0,0,9,1.49c7.1,0,10.83-1.61,12.32-2.48.25-.13.5-.38.25-1.12L378.19,153a.66.66,0,0,0-.88-.38,24,24,0,0,1-10.08,1.87c-3.85,0-6.59-1.12-8.33-2.86s-2.74-4.48-2.87-8.22h24.52a.78.78,0,0,0,.75-.62l-.13-3.61M355.79,137l.74-3.24a12.67,12.67,0,0,1,1.25-2.61,7.86,7.86,0,0,1,7-3.61,7.39,7.39,0,0,1,6.84,3.61l.62,1.24.5,1.37.5,3.11H355.79"/><path class="cls-2" d="M159.28,137l.75-3.24a12.67,12.67,0,0,1,1.24-2.61,7.88,7.88,0,0,1,7-3.61,7.41,7.41,0,0,1,6.85,3.61l.62,1.24.5,1.37.5,3.11H159.28m5.23-15.31-2,.5a7.43,7.43,0,0,0-1.74.75,16.24,16.24,0,0,0-5.6,4.35,18.15,18.15,0,0,0-3.36,6.35,26.44,26.44,0,0,0-1.12,7.84,25.83,25.83,0,0,0,1.12,7.84,16.31,16.31,0,0,0,3.6,6.22,16.87,16.87,0,0,0,6.23,4.11,24,24,0,0,0,9,1.49c7.09,0,10.82-1.61,12.32-2.48.25-.13.5-.38.25-1.12L181.56,153a.65.65,0,0,0-.87-.38,24,24,0,0,1-10.08,1.87c-3.86,0-6.6-1.12-8.34-2.86s-2.74-4.48-2.86-8.22h24.51a.77.77,0,0,0,.75-.62,26.13,26.13,0,0,0-.75-10.58,14.29,14.29,0,0,0-3.11-5.72,13.81,13.81,0,0,0-4.6-3.49L173,122l-3.73-.38h-4.73"/><path class="cls-2" d="M113.36,142l4.61.25,2,.25v11.2a60,60,0,0,1-6.6.87c-5,.25-7.22-1.49-7.22-1.49a3.54,3.54,0,0,1-1.37-1.49,6,6,0,0,1-.74-3.24,5.31,5.31,0,0,1,2.24-4.73,9.4,9.4,0,0,1,3.86-1.49l3.23-.13m-4.23-6-3,.62A17.41,17.41,0,0,0,101,139a12.75,12.75,0,0,0-3.61,4.1,11.69,11.69,0,0,0-1.37,5.6,12.91,12.91,0,0,0,1.12,5.6,10.7,10.7,0,0,0,3.24,3.86,12.13,12.13,0,0,0,5,2.12,26.43,26.43,0,0,0,6.47.62,50.61,50.61,0,0,0,7.46-.62l6.23-1.25,1.74-.37a.63.63,0,0,0,.5-.75v-22.4c0-5-1.37-8.58-3.86-10.82s-6.35-3.36-11.33-3.36A37.56,37.56,0,0,0,106,122s-5.35,1-7.59,2.74c0,0-.5.24-.25,1l1.74,4.73a.54.54,0,0,0,.75.37l.37-.25a24.19,24.19,0,0,1,10.7-2.48c2.62,0,4.73.49,6.1,1.61s2,2.62,2,5.85v1l-4-.5-3.86-.12-2.86.12"/><path class="cls-2" d="M300.78,124l-1.87,1.74v-3a.71.71,0,0,0-.74-.74h-6.35a.81.81,0,0,0-.75.74V159.3a.81.81,0,0,0,.75.75h6.47a.81.81,0,0,0,.75-.75V141a24,24,0,0,1,.74-6.47,9.24,9.24,0,0,1,2.12-3.61,7.55,7.55,0,0,1,3-1.87,10.89,10.89,0,0,1,3.23-.5,13.22,13.22,0,0,1,2.74.38.82.82,0,0,0,.87-.63l1.87-5.1a.74.74,0,0,0-.38-.87,25.65,25.65,0,0,0-4.1-.75H307l-1.62.25-2.61.87-2,1.25"/><path class="cls-2" d="M232.33,120.35l-.25,1.62h-5.6a1,1,0,0,0-.87.74l-.87,5.11c0,.49.13.74.75.74H231l-5.47,30.74a29.08,29.08,0,0,1-1.49,6.1,12.77,12.77,0,0,1-1.75,3.48,5.22,5.22,0,0,1-2.24,1.75,10.52,10.52,0,0,1-2.86.37l-2-.25-1.37-.5a.65.65,0,0,0-.87.38l-1.87,5a.87.87,0,0,0,.38,1l2.24.62a12.48,12.48,0,0,0,3.61.38,17.18,17.18,0,0,0,6-1,11.24,11.24,0,0,0,4.48-3.11A16,16,0,0,0,231,168a38.67,38.67,0,0,0,2.12-8.21l5.48-31.24h8.08a1,1,0,0,0,.88-.74l.87-5.11c0-.49-.13-.74-.75-.74H239.8a28.63,28.63,0,0,1,1.24-5.48,6.83,6.83,0,0,1,1.75-2.61,4.58,4.58,0,0,1,2.11-1.25l2.62-.37,2,.25,1.24.25c.75.25.87,0,1.12-.37l1.87-5.11c.25-.49-.25-.74-.5-.87l-2.49-.62-3.36-.25c-4.48,0-8,1.25-10.33,3.73l-1.74,2.12L234,114l-1.12,3-.5,3.36"/><path class="cls-2" d="M143.85,107a.72.72,0,0,0-.75-.74h-6.47a.8.8,0,0,0-.74.74v52.4a.71.71,0,0,0,.74.74h6.47a.8.8,0,0,0,.75-.74V107"/></svg>