<?xml version="1.0" encoding="UTF-8" standalone="no"?>
<svg
   xmlns:dc="http://purl.org/dc/elements/1.1/"
   xmlns:cc="http://creativecommons.org/ns#"
   xmlns:rdf="http://www.w3.org/1999/02/22-rdf-syntax-ns#"
   xmlns:svg="http://www.w3.org/2000/svg"
   xmlns="http://www.w3.org/2000/svg"
   xmlns:sodipodi="http://sodipodi.sourceforge.net/DTD/sodipodi-0.dtd"
   xmlns:inkscape="http://www.inkscape.org/namespaces/inkscape"
   version="1.1"
   id="Layer_1"
   x="0px"
   y="0px"
   width="73.752274"
   height="100"
   viewBox="0 0 73.752273 100"
   xml:space="preserve"
   inkscape:version="0.91 r13725"
   sodipodi:docname="java.svg"><metadata
     id="metadata3434"><rdf:RDF><cc:Work
         rdf:about=""><dc:format>image/svg+xml</dc:format><dc:type
           rdf:resource="http://purl.org/dc/dcmitype/StillImage" /><dc:title></dc:title></cc:Work></rdf:RDF></metadata><defs
     id="defs3432" /><sodipodi:namedview
     pagecolor="#ffffff"
     bordercolor="#666666"
     borderopacity="1"
     objecttolerance="10"
     gridtolerance="10"
     guidetolerance="10"
     inkscape:pageopacity="0"
     inkscape:pageshadow="2"
     inkscape:window-width="1029"
     inkscape:window-height="700"
     id="namedview3430"
     showgrid="false"
     fit-margin-top="0"
     fit-margin-left="0"
     fit-margin-right="0"
     fit-margin-bottom="0"
     inkscape:zoom="1.57"
     inkscape:cx="135.44476"
     inkscape:cy="175.4123"
     inkscape:window-x="0"
     inkscape:window-y="0"
     inkscape:window-maximized="0"
     inkscape:current-layer="Layer_1" /><path
     style="fill:#ececec"
     d="m 23.752722,77.335498 c 0,0 -3.821426,2.22229 2.71958,2.97429 7.924242,0.90401 11.974234,0.77436 20.706805,-0.87841 0,0 2.295872,1.43957 5.502228,2.68643 -19.576118,8.39 -44.3046106,-0.48596 -28.928613,-4.78231"
     id="path3414"
     inkscape:connector-curvature="0" /><path
     style="fill:#ececec"
     d="m 21.360625,66.387108 c 0,0 -4.2861,3.17266 2.259757,3.84972 8.464926,0.87329 15.149862,0.94472 26.717369,-1.2827 0,0 1.599944,1.62205 4.115756,2.50908 -23.668691,6.92104 -50.0313582,0.5458 -33.092882,-5.0761"
     id="path3416"
     inkscape:connector-curvature="0" /><path
     style="fill:#ececec"
     d="m 41.526747,47.814994 c 4.823548,5.553434 -1.267339,10.550834 -1.267339,10.550834 0,0 12.247807,-6.32268 6.622943,-14.240183 -5.253452,-7.383565 -9.282147,-11.052171 12.527585,-23.701039 0,0 -34.234084,8.550097 -17.883189,27.390388"
     id="path3418"
     inkscape:connector-curvature="0" /><path
     style="fill:#ececec"
     d="m 67.417732,85.433588 c 0,0 2.827927,2.33011 -3.114442,4.13274 -11.299595,3.42306 -47.03012,4.45672 -56.9559089,0.13638 -3.5680668,-1.55223 3.1230679,-3.70633 5.2278449,-4.15834 2.19507,-0.47599 3.449472,-0.38731 3.449472,-0.38731 -3.968052,-2.79532 -25.6478674,5.48875 -11.012274,7.86117 39.913391,6.47282 72.758308,-2.91472 62.405308,-7.58464"
     id="path3420"
     inkscape:connector-curvature="0" /><path
     style="fill:#ececec"
     d="m 25.590392,55.043308 c 0,0 -18.1748189,4.31683 -6.436156,5.88443 4.956425,0.66359 14.836934,0.51345 24.040375,-0.25767 7.521564,-0.63448 15.074125,-1.98349 15.074125,-1.98349 0,0 -2.652197,1.13581 -4.570997,2.446 -18.456211,4.85401 -54.11018786,2.59587 -43.845866,-2.36919 8.680551,-4.19608 15.738519,-3.72008 15.738519,-3.72008"
     id="path3422"
     inkscape:connector-curvature="0" /><path
     style="fill:#ececec"
     d="m 58.193805,73.267458 c 18.761587,-9.74925 10.086967,-19.11819 4.032205,-17.85597 -1.484045,0.30889 -2.145749,0.57653 -2.145749,0.57653 0,0 0.55092,-0.86304 1.603178,-1.23661 11.978273,-4.21118 21.19034,12.4203 -3.866709,19.0074 0,2.7e-4 0.290286,-0.25929 0.377075,-0.49135"
     id="path3424"
     inkscape:connector-curvature="0" /><path
     style="fill:#ececec"
     d="m 46.882351,0 c 0,0 10.390465,10.393968 -9.854903,26.376949 C 20.79272,39.198057 33.325425,46.508303 37.020728,54.860568 27.544247,46.310469 20.58978,38.783783 25.25538,31.778646 32.103382,21.495726 51.074671,16.510189 46.882367,0"
     id="path3426"
     inkscape:connector-curvature="0" /><path
     style="fill:#ececec"
     d="m 27.433992,99.685648 c 18.008787,1.152782 45.66332,-0.6396 46.31828,-9.16086 0,0 -1.25898,3.23034 -14.883291,5.79575 -15.370874,2.89261 -34.328685,2.55489 -45.572756,0.70105 2.69e-4,-2.7e-4 2.301804,1.90506 14.137767,2.66406"
     id="path3428"
     inkscape:connector-curvature="0" /></svg>