<?xml version="1.0" encoding="UTF-8" standalone="no"?>
<!-- Created with Inkscape (http://www.inkscape.org/) -->

<svg
   xmlns:dc="http://purl.org/dc/elements/1.1/"
   xmlns:cc="http://creativecommons.org/ns#"
   xmlns:rdf="http://www.w3.org/1999/02/22-rdf-syntax-ns#"
   xmlns:svg="http://www.w3.org/2000/svg"
   xmlns="http://www.w3.org/2000/svg"
   xmlns:sodipodi="http://sodipodi.sourceforge.net/DTD/sodipodi-0.dtd"
   xmlns:inkscape="http://www.inkscape.org/namespaces/inkscape"
   width="200"
   height="46.187313"
   id="svg2"
   sodipodi:version="0.32"
   inkscape:version="0.91 r13725"
   version="1.0"
   sodipodi:docname="jetty.svg"
   inkscape:output_extension="org.inkscape.output.svg.inkscape"
   inkscape:export-filename="/home/joakim/documents/Webtide/jetty-logo.png"
   inkscape:export-xdpi="90"
   inkscape:export-ydpi="90">
  <defs
     id="defs4">
    <inkscape:perspective
       sodipodi:type="inkscape:persp3d"
       inkscape:vp_x="0 : 526.18109 : 1"
       inkscape:vp_y="0 : 1000 : 0"
       inkscape:vp_z="744.09448 : 526.18109 : 1"
       inkscape:persp3d-origin="372.04724 : 350.78739 : 1"
       id="perspective10" />
    <inkscape:perspective
       id="perspective2390"
       inkscape:persp3d-origin="372.04724 : 350.78739 : 1"
       inkscape:vp_z="744.09448 : 526.18109 : 1"
       inkscape:vp_y="0 : 1000 : 0"
       inkscape:vp_x="0 : 526.18109 : 1"
       sodipodi:type="inkscape:persp3d" />
  </defs>
  <sodipodi:namedview
     id="base"
     pagecolor="#ffffff"
     bordercolor="#666666"
     borderopacity="1.0"
     gridtolerance="10000"
     guidetolerance="10"
     objecttolerance="10"
     inkscape:pageopacity="0.0"
     inkscape:pageshadow="2"
     inkscape:zoom="0.87428571"
     inkscape:cx="496.7439"
     inkscape:cy="153.28113"
     inkscape:document-units="px"
     inkscape:current-layer="layer2"
     showgrid="false"
     inkscape:window-width="1436"
     inkscape:window-height="763"
     inkscape:window-x="54"
     inkscape:window-y="18"
     showguides="true"
     inkscape:guide-bbox="true"
     showborder="true"
     inkscape:window-maximized="0"
     fit-margin-top="0"
     fit-margin-left="0"
     fit-margin-right="0"
     fit-margin-bottom="0" />
  <metadata
     id="metadata7">
    <rdf:RDF>
      <cc:Work
         rdf:about="">
        <dc:format>image/svg+xml</dc:format>
        <dc:type
           rdf:resource="http://purl.org/dc/dcmitype/StillImage" />
        <dc:title></dc:title>
      </cc:Work>
    </rdf:RDF>
  </metadata>
  <g
     inkscape:groupmode="layer"
     id="layer2"
     inkscape:label="Jetty"
     style="display:inline"
     transform="translate(-38.10824,-528.4136)">
    <path
       id="path3193"
       style="fill:#f9f9f9;fill-opacity:1;fill-rule:evenodd;stroke:#e6e6e6;stroke-width:3.76655197;stroke-linecap:butt;stroke-linejoin:round;stroke-miterlimit:4;stroke-dasharray:none;stroke-opacity:1"
       d="m 102.96327,533.92109 -1.22413,5.29671 -4.458655,0 -1.101715,4.78353 4.45865,0 -2.63658,11.40794 c -0.681365,2.95131 -0.141925,8.17342 6.02177,8.17342 l 14.88259,0 1.2053,-5.22138 c -10.33049,0 -10.33173,-10e-4 -9.57646,-3.2722 l 2.56125,-11.08778 9.40697,0 0.9228,0 3.53586,0 -2.63659,11.40794 c -0.68137,2.95131 -0.14193,8.17342 6.02178,8.17342 l 14.88259,0 1.20529,-5.22138 c -10.33048,0 -10.33173,-10e-4 -9.57646,-3.2722 l 2.56126,-11.08778 10.32977,0 1.10642,-4.78353 -10.33447,0 1.22413,-5.29671 -12.45788,0 -1.22412,5.29671 -3.53115,0 -0.92752,0 -9.40696,0 1.22413,-5.29671 -12.45787,0 z m -54.577796,5.29503 -6.101326,26.42775 c -0.362571,1.06354 -0.914869,1.00676 -2.147609,1.0551 l -0.145028,6.01867 10.151976,-0.0362 c 1.969966,-0.10877 3.197694,-1.22554 4.007435,-3.98108 l 6.806959,-29.48419 -12.572407,0 z m 2.059168,-8.91924 -1.556931,6.74382 12.572407,0 1.556931,-6.74382 -12.572407,0 z m 17.97464,8.92092 c -2.175422,10e-6 -4.674416,1.85302 -5.221383,4.78353 l -2.410593,9.86365 c -1.410914,6.11135 -0.667108,9.71771 3.893673,9.71771 l 25.739676,0 1.205295,-5.22138 -19.289455,0 1.035805,-4.49633 19.28945,0 c 0.3094,-1.34016 1.597465,-3.28771 2.278765,-9.86365 0.19288,-0.83544 -1.13938,-4.78353 -6.148895,-4.78353 l -20.372338,0 z m 10.348603,4.78353 c 2.677225,0 3.455255,0.83734 2.59421,4.56694 l -6.76567,0 c 0.83085,-3.59879 1.98287,-4.56695 4.17146,-4.56694 z m 74.009885,-4.78521 -4.41967,19.14373 c 0,0 -1.20537,5.22101 6.1353,5.22101 l 12.46688,0 c -0.62226,2.69532 -0.92077,3.98828 -8.16663,3.98828 l -12.56168,0 -1.12166,4.85844 19.80754,0 c 9.13437,0 12.41694,0 13.5386,-4.85844 l 6.54581,-28.35302 -12.41694,0 -4.41968,19.14373 -7.24586,0 4.41968,-19.14373 -12.56169,0 z m 37.10005,0 -2.15962,9.35432 12.61745,0 2.15962,-9.35432 -12.61745,0 z m -3.46543,15.01042 -2.15962,9.35432 12.61744,0 2.15962,-9.35432 -12.61744,0 z m 29.39125,-23.92966 -17.38033,37.27226 6.35369,0 17.38033,-37.27226 -6.35369,0 z m 14.06774,0 -17.38033,37.27226 6.35369,0 17.38033,-37.27226 -6.35369,0 z"
       inkscape:connector-curvature="0" />
    <path
       d="m 102.96327,533.92109 -1.22413,5.29671 -4.458655,0 -1.101715,4.78353 4.45865,0 -2.63658,11.40794 c -0.681365,2.95131 -0.141925,8.17342 6.02177,8.17342 l 14.88259,0 1.2053,-5.22138 c -10.33049,0 -10.33173,-10e-4 -9.57646,-3.2722 l 2.56125,-11.08778 9.40697,0 0.9228,0 3.53586,0 -2.63659,11.40794 c -0.68137,2.95131 -0.14193,8.17342 6.02178,8.17342 l 14.88259,0 1.20529,-5.22138 c -10.33048,0 -10.33173,-10e-4 -9.57646,-3.2722 l 2.56126,-11.08778 10.32977,0 1.10642,-4.78353 -10.33447,0 1.22413,-5.29671 -12.45788,0 -1.22412,5.29671 -3.53115,0 -0.92752,0 -9.40696,0 1.22413,-5.29671 -12.45787,0 z m -54.577796,5.29503 -6.101326,26.42775 c -0.362571,1.06354 -0.914869,1.00676 -2.147609,1.0551 l -0.145028,6.01867 10.151976,-0.0362 c 1.969966,-0.10877 3.197694,-1.22554 4.007435,-3.98108 l 6.806959,-29.48419 -12.572407,0 z m 2.059168,-8.91924 -1.556931,6.74382 12.572407,0 1.556931,-6.74382 -12.572407,0 z m 17.97464,8.92092 c -2.175422,10e-6 -4.674416,1.85302 -5.221383,4.78353 l -2.410593,9.86365 c -1.410914,6.11135 -0.667108,9.71771 3.893673,9.71771 l 25.739676,0 1.205295,-5.22138 -19.289455,0 1.035805,-4.49633 19.28945,0 c 0.3094,-1.34016 1.597465,-3.28771 2.278765,-9.86365 0.19288,-0.83544 -1.13938,-4.78353 -6.148895,-4.78353 l -20.372338,0 z m 10.348603,4.78353 c 2.677225,0 3.455255,0.83734 2.59421,4.56694 l -6.76567,0 c 0.83085,-3.59879 1.98287,-4.56695 4.17146,-4.56694 z m 74.009885,-4.78521 -4.41967,19.14373 c 0,0 -1.20537,5.22101 6.1353,5.22101 l 12.46688,0 c -0.62226,2.69532 -0.92077,3.98828 -8.16663,3.98828 l -12.56168,0 -1.12166,4.85844 19.80754,0 c 9.13437,0 12.41694,0 13.5386,-4.85844 l 6.54581,-28.35302 -12.41694,0 -4.41968,19.14373 -7.24586,0 4.41968,-19.14373 -12.56169,0 z m 37.10005,0 -2.15962,9.35432 12.61745,0 2.15962,-9.35432 -12.61745,0 z m -3.46543,15.01042 -2.15962,9.35432 12.61744,0 2.15962,-9.35432 -12.61744,0 z m 29.39125,-23.92966 -17.38033,37.27226 6.35369,0 17.38033,-37.27226 -6.35369,0 z m 14.06774,0 -17.38033,37.27226 6.35369,0 17.38033,-37.27226 -6.35369,0 z"
       style="fill:#f9f9f9;fill-opacity:1;fill-rule:evenodd;stroke:none;stroke-width:30;stroke-linecap:butt;stroke-linejoin:miter;stroke-miterlimit:4;stroke-dasharray:none;stroke-opacity:1"
       id="path3316"
       inkscape:connector-curvature="0" />
  </g>
</svg>
