<?xml version="1.0" encoding="UTF-8" standalone="no"?>
<svg
   xmlns:dc="http://purl.org/dc/elements/1.1/"
   xmlns:cc="http://creativecommons.org/ns#"
   xmlns:rdf="http://www.w3.org/1999/02/22-rdf-syntax-ns#"
   xmlns:svg="http://www.w3.org/2000/svg"
   xmlns="http://www.w3.org/2000/svg"
   xmlns:sodipodi="http://sodipodi.sourceforge.net/DTD/sodipodi-0.dtd"
   xmlns:inkscape="http://www.inkscape.org/namespaces/inkscape"
   width="16.74177pt"
   height="14.400001pt"
   viewBox="0 0 16.74177 14.4"
   version="1.1"
   id="svg3410"
   inkscape:version="0.91 r13725"
   sodipodi:docname="medium.svg">
  <metadata
     id="metadata3428">
    <rdf:RDF>
      <cc:Work
         rdf:about="">
        <dc:format>image/svg+xml</dc:format>
        <dc:type
           rdf:resource="http://purl.org/dc/dcmitype/StillImage" />
        <dc:title></dc:title>
      </cc:Work>
    </rdf:RDF>
  </metadata>
  <defs
     id="defs3426" />
  <sodipodi:namedview
     pagecolor="#ffffff"
     bordercolor="#666666"
     borderopacity="1"
     objecttolerance="10"
     gridtolerance="10"
     guidetolerance="10"
     inkscape:pageopacity="0"
     inkscape:pageshadow="2"
     inkscape:window-width="1127"
     inkscape:window-height="694"
     id="namedview3424"
     showgrid="false"
     fit-margin-top="0"
     fit-margin-left="0"
     fit-margin-right="0"
     fit-margin-bottom="0"
     inkscape:zoom="2.3367442"
     inkscape:cx="128.36292"
     inkscape:cy="41.858847"
     inkscape:window-x="0"
     inkscape:window-y="0"
     inkscape:window-maximized="0"
     inkscape:current-layer="svg3410" />
  <g
     id="#ffffffff"
     transform="matrix(0.08095573,0,0,0.08095573,-1.7251395,-1.4482288)" />
  <g
     id="#b1bac5ff"
     style="fill:#ffffff"
     transform="matrix(0.08095573,0,0,0.08095573,-1.7251395,-1.4482288)">
    <path
       d="m 158.19,18.02 c 1.2,-0.21 2.39,-0.17 3.56,0.14 21.56,10.84 43.17,21.59 64.75,32.4 2.14,2.31 -0.55,5.1 -1.82,7.11 -18.38,29.94 -36.83,59.84 -55.22,89.78 -2.35,3.33 -4.02,7.13 -6.59,10.29 -1.45,-0.22 -1.92,-1.93 -2.65,-2.98 -13.73,-22.29 -27.48,-44.57 -41.15,-66.9 -0.73,-1.25 -2.38,-2.73 -1.44,-4.28 7.34,-11.95 14.73,-23.87 22.08,-35.82 6.19,-9.89 12.07,-20 18.48,-29.74 z"
       id="path3414"
       style="opacity:1;fill:#ffffff"
       inkscape:connector-curvature="0" />
    <path
       d="m 22.32,19.15 c 1.31,-0.73 3.04,-0.62 4.37,0.02 20.88,10.51 41.81,20.91 62.7,31.4 1.99,0.51 1.56,2.81 1.68,4.37 -0.04,45.38 0.02,90.76 -0.03,136.13 0.14,2.01 -0.81,4.76 -3.23,4.63 -2.66,0.42 -4.87,-1.32 -7.13,-2.38 -18.22,-9.1 -36.43,-18.23 -54.66,-27.31 -2.75,-1.13 -4.74,-4.02 -4.71,-7 0.04,-46.21 -0.03,-92.43 0.04,-138.63 0.24,-0.31 0.73,-0.92 0.97,-1.23 z"
       id="path3416"
       style="opacity:1;fill:#ffffff"
       inkscape:connector-curvature="0" />
  </g>
  <g
     id="#b1bac4ff"
     style="fill:#e6e6e6"
     transform="matrix(0.08095573,0,0,0.08095573,-1.7251395,-1.4482288)">
    <path
       d="m 96.03,61.97 c 1.38,-0.14 2.15,1.31 2.78,2.29 18.69,30.32 37.35,60.65 55.99,91 1.15,2.67 3.92,4.69 4.06,7.71 -1.4,0.45 -2.66,-0.54 -3.88,-1.05 -19.05,-9.58 -38.15,-19.07 -57.21,-28.64 -1.34,-0.55 -2.12,-1.79 -1.83,-3.24 C 96,107.35 95.82,84.66 96.03,61.97 Z"
       id="path3419"
       style="opacity:1;fill:#e6e6e6"
       inkscape:connector-curvature="0" />
  </g>
  <g
     id="#b1b9c4ff"
     style="fill:#e6e6e6"
     transform="matrix(0.08095573,0,0,0.08095573,-1.7251395,-1.4482288)">
    <path
       d="m 227.28,63.45 0.68,-0.32 c 0.21,2.95 0.14,5.91 0.14,8.87 0,39.36 -0.01,78.71 0,118.06 -0.05,1.46 0.03,3.04 -0.86,4.29 -1.36,1.38 -3.56,1.65 -5.28,0.86 -19.12,-9.59 -38.28,-19.11 -57.38,-28.72 l -0.52,-0.55 0.16,-0.72 c 20.83,-33.8 41.59,-67.65 62.46,-101.43 l 0.6,-0.34 z"
       id="path3422"
       style="opacity:1;fill:#e6e6e6"
       inkscape:connector-curvature="0" />
  </g>
</svg>
