<svg id="Layer_1" data-name="Layer 1" xmlns="http://www.w3.org/2000/svg" viewBox="0 0 207.75 93.69"><defs><style>.cls-1{fill:#009ddc;}.cls-2{fill:#1e4288;}.cls-3{fill:#fff;}.cls-4{fill:#6d6e71;}</style></defs><title>argus_logo_cmyk</title><path class="cls-1" d="M98.75,118.84s2.37-3.37,8.25-3.37,8.75,3.38,8.75,3.38h-17Z" transform="translate(-40.13 -25.16)"/><path class="cls-2" d="M85.5,75c-7-3.34-14.36-1.9-17-1.2a6.52,6.52,0,0,1,3.3.18c7.57,2.31,10,10.79,10.21,11.4a31.42,31.42,0,0,1,3.71,6.45c1.47,3.45,1.56,5.8,2.25,8.74v-0.13s1.63,3.21,9,3.88a8.59,8.59,0,0,0,6.34-2.16C99.12,87.68,92.44,78.26,85.5,75Z" transform="translate(-40.13 -25.16)"/><path class="cls-2" d="M120,51.7s-8.79-14.55.65-24.19c6.22-6.36,10.49,1.72,4.38,5.84a13.8,13.8,0,0,0-5.31,7.55C118.58,45.13,120,51.7,120,51.7Z" transform="translate(-40.13 -25.16)"/><path class="cls-2" d="M117.27,51.3s-11.4-6-8.91-15.74c1.58-6.2,7.33-3,5.06,2.05a10.52,10.52,0,0,0-.49,6.88C113.82,47.64,117.27,51.3,117.27,51.3Z" transform="translate(-40.13 -25.16)"/><path class="cls-2" d="M113.45,52.17s-7.73.9-9.75-4.65c-1.27-3.49,2.74-4.16,3.37-1a7.25,7.25,0,0,0,2.05,3.77A12.52,12.52,0,0,0,113.45,52.17Z" transform="translate(-40.13 -25.16)"/><path class="cls-2" d="M67.45,81.55s-16,6.46-13.92,19.79c1.51,9.65,9.44,4.88,7-2.07A13.8,13.8,0,0,1,60.77,90C62.38,86,67.45,81.55,67.45,81.55Z" transform="translate(-40.13 -25.16)"/><path class="cls-2" d="M69.24,81.49s-9.88,8.57-5.1,17.61c3.46,6.54,8,1.17,4.51-3.21a10.45,10.45,0,0,1-2.1-6.67C66.7,85.9,69.24,81.49,69.24,81.49Z" transform="translate(-40.13 -25.16)"/><path class="cls-2" d="M71.85,80.76s-5.23,9.32.94,15c4.47,4.08,6.45-1.3,2.58-3.71a8.55,8.55,0,0,1-3.45-4.55C71.11,84.86,71.85,80.76,71.85,80.76Z" transform="translate(-40.13 -25.16)"/><path class="cls-2" d="M70.1,71.45S53.23,67.79,53,54.3c-0.15-9.77,8.48-6.41,7.25.85a13.8,13.8,0,0,0,1.8,9C64.36,67.95,70.1,71.45,70.1,71.45Z" transform="translate(-40.13 -25.16)"/><path class="cls-2" d="M74,70.69S62.8,63.91,66,54.19c2.3-7,8.45-3,5.78,1.9-1.11,2-2.21,5.2-1.73,7.43C70.73,66.77,74,70.69,74,70.69Z" transform="translate(-40.13 -25.16)"/><path class="cls-2" d="M77.5,71.51S71,63.4,75.89,56.61c3.47-4.83,7.25.22,3.84,3.25-1.42,1.26-3.06,3.2-3.3,5C76.08,67.6,77.5,71.51,77.5,71.51Z" transform="translate(-40.13 -25.16)"/><path class="cls-2" d="M81.23,72.27S78.3,64.36,83.69,61c3.58-2.21,4.75,2.13,1.49,3.22a5.92,5.92,0,0,0-3.12,3A13.46,13.46,0,0,0,81.23,72.27Z" transform="translate(-40.13 -25.16)"/><path class="cls-2" d="M67.63,72.46s-18.28,5.76-25.9-7.14C36.22,56,46.39,54.48,49.2,62.15a15.32,15.32,0,0,0,6.72,7.73C60.17,72.25,67.63,72.46,67.63,72.46Z" transform="translate(-40.13 -25.16)"/><path class="cls-2" d="M62.49,76.57s-11.24-1.48-14.12,5.77c-2.26,5.71,3.69,6.06,4.64,1.52A8.68,8.68,0,0,1,56.14,79C58.33,77.31,62.49,76.57,62.49,76.57Z" transform="translate(-40.13 -25.16)"/><path class="cls-3" d="M41.47,63.3a3,3,0,0,1,.22-3.36,1.12,1.12,0,0,1,1.39.23c0-.69,0-1.24.37-1.3A3,3,0,1,1,41.47,63.3Z" transform="translate(-40.13 -25.16)"/><path class="cls-3" d="M54,53.18a2.71,2.71,0,0,1,1.36-2.75,1,1,0,0,1,1.09.68c0.27-.57.47-1,0.77-1A2.71,2.71,0,1,1,54,53.18Z" transform="translate(-40.13 -25.16)"/><path class="cls-3" d="M67.15,53a2.32,2.32,0,0,1,2.15-1.5,0.88,0.88,0,0,1,.54,1,1.05,1.05,0,0,1,1-.41A2.32,2.32,0,1,1,67.15,53Z" transform="translate(-40.13 -25.16)"/><path class="cls-3" d="M76.78,56.33a1.9,1.9,0,0,1,1.94-.93,0.72,0.72,0,0,1,.31.85,0.86,0.86,0,0,1,.84-0.2A1.9,1.9,0,1,1,76.78,56.33Z" transform="translate(-40.13 -25.16)"/><path class="cls-3" d="M84.31,61.37a1.18,1.18,0,0,1,1.33-.18,0.45,0.45,0,0,1,0,.56,0.54,0.54,0,0,1,.54,0A1.18,1.18,0,1,1,84.31,61.37Z" transform="translate(-40.13 -25.16)"/><path class="cls-3" d="M59.83,102.48A2.59,2.59,0,0,1,58.28,105a1,1,0,0,1-1-.74c-0.31.52-.54,0.94-0.82,0.85A2.59,2.59,0,1,1,59.83,102.48Z" transform="translate(-40.13 -25.16)"/><path class="cls-3" d="M68.88,98.31a1.85,1.85,0,0,1-.44,2,0.7,0.7,0,0,1-.84-0.26,0.84,0.84,0,0,1-.34.77A1.85,1.85,0,1,1,68.88,98.31Z" transform="translate(-40.13 -25.16)"/><path class="cls-3" d="M76.11,93.94a1.45,1.45,0,0,1,.42,1.58,0.55,0.55,0,0,1-.68.11,0.66,0.66,0,0,1,0,.66A1.45,1.45,0,1,1,76.11,93.94Z" transform="translate(-40.13 -25.16)"/><path class="cls-3" d="M51.85,84.91A1.76,1.76,0,0,1,50.18,86a0.66,0.66,0,0,1-.38-0.74,0.8,0.8,0,0,1-.75.29A1.76,1.76,0,1,1,51.85,84.91Z" transform="translate(-40.13 -25.16)"/><path class="cls-4" d="M130.27,85A8.11,8.11,0,0,1,132,79.52a9.58,9.58,0,0,1,5.14-2.82,38.37,38.37,0,0,1,8.85-.83q1.94,0,3,.05V74.14q0-7.42-7.58-7.42a15,15,0,0,0-4.46.62,17.47,17.47,0,0,0-3.93,1.8l-1-1.83a16.42,16.42,0,0,1,9.47-2.74q5.16,0,7.66,2.5t2.5,7.61V86.3q0,2.53.32,5.86h-2.47q-0.22-1.88-.32-4.46H149a9.63,9.63,0,0,1-4,3.9A13,13,0,0,1,138.88,93a9.07,9.07,0,0,1-6.32-2.07A7.54,7.54,0,0,1,130.27,85Zm18.66-2.37V77.9l-2.69-.05a37.18,37.18,0,0,0-7.58.62,7.82,7.82,0,0,0-4.25,2.15A6.11,6.11,0,0,0,133,84.9a5.57,5.57,0,0,0,1.67,4.36,6.82,6.82,0,0,0,4.73,1.51,10.08,10.08,0,0,0,5.27-1.29,8.63,8.63,0,0,0,3.2-3.17A7.5,7.5,0,0,0,148.94,82.64Z" transform="translate(-40.13 -25.16)"/><path class="cls-4" d="M156.73,71.13q0-2.58-.32-5.81h2.53a47.24,47.24,0,0,1,.32,5.16h0.11q2.26-5.92,8.87-5.92a7,7,0,0,1,1.35.11l-0.11,2.26q-0.54-.05-1.45-0.05a7.54,7.54,0,0,0-6.37,2.93,12.22,12.22,0,0,0-2.23,7.61V92.16h-2.69v-21Z" transform="translate(-40.13 -25.16)"/><path class="cls-4" d="M170.66,98.13a6.82,6.82,0,0,1,1.43-4.28A12.16,12.16,0,0,1,177,90.49q-3-1.08-3-3.5a3.28,3.28,0,0,1,1.1-2.45A7.11,7.11,0,0,1,178.25,83a8.11,8.11,0,0,1-4.46-3,9.4,9.4,0,0,1-1.61-5.73,9,9,0,0,1,2.82-7q2.82-2.58,7.88-2.58a14.64,14.64,0,0,1,2.37.16,21.53,21.53,0,0,1,2.15.48h9v2.15l-6.56-.38a6.94,6.94,0,0,1,2.72,2.8,9.27,9.27,0,0,1,1,4.57,8.7,8.7,0,0,1-2.8,6.91q-2.8,2.45-8,2.45a10.7,10.7,0,0,0-4.49.83q-1.8.83-1.8,2.18,0,2.53,5.33,2.53,7.69,0.05,11,1.88a5.9,5.9,0,0,1,3.31,5.49,7.78,7.78,0,0,1-3.68,6.86Q188.74,106,182.17,106q-5.7,0-8.61-2A6.73,6.73,0,0,1,170.66,98.13Zm22.75-1.18a4.12,4.12,0,0,0-1.24-3.12,8.64,8.64,0,0,0-4.3-1.77,47.24,47.24,0,0,0-8.5-.59,11.45,11.45,0,0,0-4.71,2.82A5.53,5.53,0,0,0,173.3,98q0,5.86,8.93,5.86,5.43,0,8.31-1.8A5.73,5.73,0,0,0,193.42,96.95ZM191,74.3a7.24,7.24,0,0,0-2.12-5.51,10,10,0,0,0-12,0,7.06,7.06,0,0,0-2.15,5.41,7.49,7.49,0,0,0,2,5.62q2,2,6.1,2T189,79.84A7.32,7.32,0,0,0,191,74.3Z" transform="translate(-40.13 -25.16)"/><path class="cls-4" d="M202.08,81.67V65.32h2.69v16a11.26,11.26,0,0,0,1.91,6.78,6.73,6.73,0,0,0,5.84,2.64,8.4,8.4,0,0,0,5-1.53,9.91,9.91,0,0,0,3.31-4.11,13.8,13.8,0,0,0,1.16-5.7V65.32h2.69v21q0,2.53.32,5.86h-2.53a52.48,52.48,0,0,1-.32-5.81H222a10.87,10.87,0,0,1-3.87,4.89A10.64,10.64,0,0,1,212,93q-5,0-7.48-3.12A12.77,12.77,0,0,1,202.08,81.67Z" transform="translate(-40.13 -25.16)"/><path class="cls-4" d="M247.23,67.36L246,69.08a11.37,11.37,0,0,0-7.26-2.42,7.88,7.88,0,0,0-4.68,1.24,4,4,0,0,0-1.72,3.44,4.1,4.1,0,0,0,1.59,3.47A16.14,16.14,0,0,0,239.65,77a13.53,13.53,0,0,1,6.27,2.9,6.68,6.68,0,0,1,2,5.06,7,7,0,0,1-2.69,5.81,10.59,10.59,0,0,1-6.83,2.15,16,16,0,0,1-5.27-.81,14.15,14.15,0,0,1-4.25-2.37l1.29-1.67a14.87,14.87,0,0,0,3.79,2,13.35,13.35,0,0,0,4.38.65,7.66,7.66,0,0,0,5-1.51,5,5,0,0,0,1.86-4.14,5.38,5.38,0,0,0-.65-2.8,5.16,5.16,0,0,0-2.21-1.86A22,22,0,0,0,237.87,79q-4.41-1-6.32-2.77a6.59,6.59,0,0,1,.56-9.79,10.67,10.67,0,0,1,6.56-1.86A13.12,13.12,0,0,1,247.23,67.36Z" transform="translate(-40.13 -25.16)"/><path class="cls-3" d="M122.38,27.35a2.53,2.53,0,0,1,2.75-.8,1,1,0,0,1,.22,1.18c0.56-.17,1-0.32,1.15-0.08A2.53,2.53,0,1,1,122.38,27.35Z" transform="translate(-40.13 -25.16)"/><path class="cls-3" d="M109.47,34.69A1.83,1.83,0,0,1,111,33.3a0.69,0.69,0,0,1,.52.7,0.83,0.83,0,0,1,.72-0.42A1.83,1.83,0,1,1,109.47,34.69Z" transform="translate(-40.13 -25.16)"/><path class="cls-3" d="M104,46.66a1.22,1.22,0,0,1,.43-1.32,0.46,0.46,0,0,1,.53.23,0.56,0.56,0,0,1,.28-0.48A1.22,1.22,0,1,1,104,46.66Z" transform="translate(-40.13 -25.16)"/><path class="cls-1" d="M124.38,60s-4.49-5.14-7.75-1.12-3.66,12.6,2.5,27.29c6.67,15.91,2,31.91-13.3,31.11C88.75,116.34,88,100.41,88,100.41s1.63,3.21,9,3.88c6.32,0.58,11.85-6.61,11.1-14.93s-2.54-28.14,4.95-34C119.38,50.34,124,55.09,124.38,60Z" transform="translate(-40.13 -25.16)"/><path class="cls-1" d="M82.06,85.41s-5.07-6.14-11.2-6c-5.83.11-10.57,4.22-10.57,4.22S64,71.55,71.84,73.94,82.06,85.41,82.06,85.41Z" transform="translate(-40.13 -25.16)"/></svg>