<?xml version="1.0" encoding="UTF-8" standalone="no"?>
<!-- Generator: Adobe Illustrator 15.1.0, SVG Export Plug-In . SVG Version: 6.00 Build 0)  -->

<svg
   xmlns:dc="http://purl.org/dc/elements/1.1/"
   xmlns:cc="http://creativecommons.org/ns#"
   xmlns:rdf="http://www.w3.org/1999/02/22-rdf-syntax-ns#"
   xmlns:svg="http://www.w3.org/2000/svg"
   xmlns="http://www.w3.org/2000/svg"
   xmlns:sodipodi="http://sodipodi.sourceforge.net/DTD/sodipodi-0.dtd"
   xmlns:inkscape="http://www.inkscape.org/namespaces/inkscape"
   version="1.1"
   id="Layer_1"
   x="0px"
   y="0px"
   width="202.04388"
   height="50.000004"
   viewBox="0 0 202.04388 50.000004"
   enable-background="new 0 0 792 612"
   xml:space="preserve"
   inkscape:version="0.91 r13725"
   sodipodi:docname="hbase.svg"
   inkscape:export-filename="hbase_logo_filledin.png"
   inkscape:export-xdpi="90"
   inkscape:export-ydpi="90"><metadata
     id="metadata3285"><rdf:RDF><cc:Work
         rdf:about=""><dc:format>image/svg+xml</dc:format><dc:type
           rdf:resource="http://purl.org/dc/dcmitype/StillImage" /><dc:title></dc:title></cc:Work></rdf:RDF></metadata><defs
     id="defs3283" /><sodipodi:namedview
     pagecolor="#ffffff"
     bordercolor="#666666"
     borderopacity="1"
     objecttolerance="10"
     gridtolerance="10"
     guidetolerance="10"
     inkscape:pageopacity="0"
     inkscape:pageshadow="2"
     inkscape:window-width="1131"
     inkscape:window-height="715"
     id="namedview3281"
     showgrid="false"
     inkscape:zoom="0.77124183"
     inkscape:cx="161.57153"
     inkscape:cy="58.92958"
     inkscape:window-x="359"
     inkscape:window-y="143"
     inkscape:window-maximized="0"
     inkscape:current-layer="Layer_1"
     fit-margin-top="0"
     fit-margin-left="0"
     fit-margin-right="0"
     fit-margin-bottom="0" /><path
     d="m 39.14922,50 -3.7668,0 0,-19.63645 3.7668,0 0,19.63645 z m -3.72053,-19.63993 -0.0463,-12.16067 3.7668,0 -0.0154,12.1761 z M 35.38239,50 l -3.76718,0 0,-12.2262 -24.20495,0 0,12.2262 L 0,50 0,18.1994 l 7.41026,0 0,12.16415 20.98595,0 3.21938,0 3.76718,0 0,19.63645 z m 0,-31.8006 -3.76718,0 0,12.1761 3.81345,-0.0154 z"
     id="path3269"
     inkscape:connector-curvature="0"
     style="fill:#ba160c"
     sodipodi:nodetypes="cccccccccccccccccccccccccccccc" /><path
     d="m 78.11263,33.8829 c 2.59317,1.6057 3.89014,4.05497 3.89014,7.34821 0,2.3876 -0.76135,4.40481 -2.28482,6.05162 -1.64643,1.81126 -3.86958,2.71689 -6.66908,2.71689 l -10.8984,0 0,-7.40988 10.8984,0 c 1.07046,0 1.6057,-0.80284 1.6057,-2.40854 0,-1.60493 -0.53524,-2.40778 -1.6057,-2.40778 l -10.8984,0 0,-7.3482 10.34299,0 c 1.07009,0 1.60532,-0.80285 1.60532,-2.40855 0,-1.60493 -0.53523,-2.40816 -1.60532,-2.40816 l -10.34299,0 0,-7.40949 10.34299,0 c 2.79912,0 5.02189,0.90563 6.66908,2.71689 1.4816,1.64643 2.22277,3.66401 2.22277,6.05124 0,2.96433 -1.09102,5.26933 -3.27268,6.91575 z M 62.15047,50 l -19.91396,0 0,-19.5744 7.41025,0 2.00198,0 10.50211,0 0,7.3482 -12.50409,0 0,4.81633 12.50409,0 0,7.40987 z m 0,-24.39111 -12.50409,0 0.0154,5.04387 -7.41026,-0.18509 -0.0154,-12.26865 19.91396,0 0,7.40987 z"
     id="path3271"
     inkscape:connector-curvature="0"
     style="fill:#ba160c"
     sodipodi:nodetypes="cscsccsssccsssccscsccccccccccccccccccccc" /><path
     d="m 85.41554,9.93262 0,-3.39564 5.53199,0 0,-2.03776 c 0,-0.73547 -0.24515,-1.10358 -0.73584,-1.10358 l -4.79653,0 0,-3.39526 4.79653,0 c 1.22692,0 2.22163,0.44311 2.98526,1.33009 0.76402,0.88697 1.14622,1.94297 1.14622,3.16913 l 0,10.07385 -3.39602,0 0,-4.64045 -5.53161,0 0,-3.8e-4 z m 45.14941,4.64083 -11.26308,0 c -1.32057,0 -2.4428,-0.43854 -3.36709,-1.31638 -0.92466,-0.87708 -1.38642,-1.97609 -1.38642,-3.29628 l 0,-5.34813 c 0,-1.32095 0.46176,-2.41958 1.38642,-3.29742 C 116.85907,0.43816 117.9813,0 119.30187,0 l 11.26308,0 0,3.39526 -11.26308,0 c -0.90525,0 -1.35788,0.4058 -1.35788,1.21702 l 0,5.34813 c 0,0.81122 0.45263,1.21664 1.35788,1.21664 l 11.26308,0 0,3.3964 0,0 z m 35.73909,0 -3.42457,0 0,-5.6028 -8.7156,0 0,5.6028 -3.39563,0 0,-14.57307 3.39563,0 0,5.57463 8.7156,0 0,-5.57463 3.42457,0 0,14.57307 0,0 z m 35.73984,-11.17781 -12.1394,0 0,2.17937 11.34683,0 0,3.39564 -11.34683,0 0,2.20678 12.11085,0 0,3.39564 -15.50687,0 0,-14.57307 15.53504,0 0,3.39564 z M 85.41554,3.8e-4 l 0,3.39526 -4.8247,0 c -0.47166,0 -0.7073,0.36811 -0.7073,1.10358 l 0,2.03776 2.12228,0 0.92694,0 2.48278,0 0,3.39564 -2.48278,0 -0.92694,0 -2.12228,0 0,4.64045 -3.39563,0 0,-10.07385 c 0,-1.22616 0.38219,-2.28254 1.14621,-3.16914 C 78.39776,0.44311 79.38371,0 80.59122,0 l 4.82432,0 0,3.8e-4 z m -38.24356,9.81918 0,-3.39564 4.9804,0 c 0.49031,0 0.73585,-0.49983 0.73585,-1.49948 0,-1.0187 -0.24554,-1.52842 -0.73585,-1.52842 l -4.9804,0 0,-3.39526 4.9804,0 c 1.26384,0 2.28215,0.51886 3.05607,1.55621 0.71682,0.94332 1.07541,2.06517 1.07541,3.36747 0,1.30153 -0.35859,2.41425 -1.07541,3.33891 -0.77392,1.03735 -1.79223,1.55621 -3.05607,1.55621 l -4.9804,0 z m -29.31668,4.75389 -3.39564,0 0,-4.64045 -5.532,0 0,-3.39564 5.532,0 0,-2.03776 c 0,-0.73547 -0.24516,-1.10358 -0.73547,-1.10358 l -4.79653,0 0,-3.39526 4.79653,0 c 1.22654,0 2.22125,0.44311 2.98527,1.33009 0.76402,0.88697 1.14584,1.94297 1.14584,3.16913 l 0,10.07347 0,0 z M 47.17198,3.8e-4 l 0,3.39526 -5.71624,0 0,3.0279 5.71624,0 0,3.39564 -5.71624,0 0,4.75389 -3.39564,0 0,-14.57307 9.11188,0 z m -38.24394,9.93224 -2.89466,0 -0.51544,0 -2.12227,0 0,4.64045 -3.39564,0 0,-10.07385 C 3e-5,3.27306 0.38223,2.21668 1.14587,1.33008 1.90989,0.44311 2.89584,0 4.10297,0 l 4.82469,0 0,3.39526 -4.82469,0 c -0.47166,0 -0.7073,0.36811 -0.7073,1.10358 l 0,2.03776 2.12227,0 0.51544,0 2.89466,0 0,3.39602 z"
     id="path3273"
     style="fill:#666666"
     inkscape:connector-curvature="0" /><path
     d="m 123.9408,50 -7.40988,0 0,-10.12677 -11.83676,0 -0.23526,0 0,-7.41025 0.23526,0 11.83676,0 0,-4.44631 c 0,-1.60493 -0.53523,-2.4074 -1.60569,-2.4074 l -10.46633,0 0,-7.40987 10.46633,0 c 2.67616,0 4.84716,0.9673 6.5149,2.9019 1.66698,1.93498 2.50067,4.24036 2.50067,6.91575 l 0,21.98295 z m -19.4819,-10.12677 -7.44109,0 -4.63094,0 0,10.12677 -7.41025,0 0,-21.98333 c 0,-2.67539 0.83368,-4.98039 2.50066,-6.91575 1.66699,-1.93498 3.81819,-2.9019 6.45324,-2.9019 l 10.528,0 0,7.41025 -10.528,0 c -1.02935,0 -1.54365,0.80247 -1.54365,2.4074 l 0,4.44631 4.63094,0 7.44109,0 0,7.41025 z"
     id="path3275"
     inkscape:connector-curvature="0"
     style="fill:#ba160c" /><path
     d="m 165.05542,40.18158 c 0,2.67616 -0.80285,4.9606 -2.40854,6.85447 C 160.91822,49.01176 158.73618,50 156.1019,50 l -27.41635,0 0,-7.40987 27.41635,0 c 1.02935,0 1.54364,-0.80285 1.54364,-2.40855 0,-1.60493 -0.51467,-2.40778 -1.54364,-2.40778 l -19.94518,0 c -2.63429,0 -4.81633,-0.98824 -6.54498,-2.96433 -1.64719,-1.85199 -2.47059,-4.11626 -2.47059,-6.79242 0,-2.67539 0.84434,-4.98039 2.53188,-6.91575 1.68792,-1.93498 3.8494,-2.9019 6.48369,-2.9019 l 27.41672,0 0,7.40949 -27.41672,0 c -1.02897,0 -1.54365,0.80285 -1.54365,2.40816 0,1.56421 0.51468,2.3465 1.54365,2.3465 l 19.94518,0 c 2.63428,0 4.81632,0.98823 6.54498,2.96433 1.60569,1.89348 2.40854,4.17831 2.40854,6.8537 z"
     id="path3277"
     inkscape:connector-curvature="0"
     style="fill:#ba160c" /><polygon
     points="656.952,339.555 591.906,339.555 591.906,352.207 661.331,352.207 661.331,371.672 572.44,371.672 572.44,288.135 661.494,288.135 661.494,307.599 591.906,307.599 591.906,320.089 656.952,320.089 "
     id="polygon3279"
     transform="matrix(0.38067684,0,0,0.38067684,-49.771564,-91.48692)"
     style="fill:#ba160c" /></svg>