<?xml version="1.0" encoding="UTF-8" standalone="no"?>
<svg
   xmlns:sketch="http://www.bohemiancoding.com/sketch/ns"
   xmlns:dc="http://purl.org/dc/elements/1.1/"
   xmlns:cc="http://creativecommons.org/ns#"
   xmlns:rdf="http://www.w3.org/1999/02/22-rdf-syntax-ns#"
   xmlns:svg="http://www.w3.org/2000/svg"
   xmlns="http://www.w3.org/2000/svg"
   xmlns:sodipodi="http://sodipodi.sourceforge.net/DTD/sodipodi-0.dtd"
   xmlns:inkscape="http://www.inkscape.org/namespaces/inkscape"
   width="400"
   height="42.643234"
   viewBox="0 0 400 42.643234"
   version="1.1"
   id="svg4047"
   inkscape:version="0.91 r13725"
   sodipodi:docname="predictionio.svg">
  <metadata
     id="metadata4092">
    <rdf:RDF>
      <cc:Work
         rdf:about="">
        <dc:format>image/svg+xml</dc:format>
        <dc:type
           rdf:resource="http://purl.org/dc/dcmitype/StillImage" />
        <dc:title>banner-light-background</dc:title>
      </cc:Work>
    </rdf:RDF>
  </metadata>
  <sodipodi:namedview
     pagecolor="#ffffff"
     bordercolor="#666666"
     borderopacity="1"
     objecttolerance="10"
     gridtolerance="10"
     guidetolerance="10"
     inkscape:pageopacity="0"
     inkscape:pageshadow="2"
     inkscape:window-width="1151"
     inkscape:window-height="554"
     id="namedview4090"
     showgrid="false"
     fit-margin-top="0"
     fit-margin-left="0"
     fit-margin-right="0"
     fit-margin-bottom="0"
     inkscape:zoom="0.3989704"
     inkscape:cx="388.5"
     inkscape:cy="41"
     inkscape:window-x="0"
     inkscape:window-y="0"
     inkscape:window-maximized="0"
     inkscape:current-layer="svg4047" />
  <!-- Generator: Sketch 3.3 (11970) - http://www.bohemiancoding.com/sketch -->
  <title
     id="title4049">banner-light-background</title>
  <desc
     id="desc4051">Created with Sketch.</desc>
  <defs
     id="defs4053" />
  <g
     id="Page-1"
     sketch:type="MSPage"
     transform="matrix(0.51495891,0,0,0.51495891,0,-0.09835715)"
     style="fill:none;fill-rule:evenodd;stroke:none;stroke-width:1">
    <g
       id="Banner-(Light-Background)"
       sketch:type="MSLayerGroup">
      <g
         id="IO"
         transform="translate(646,0)"
         sketch:type="MSShapeGroup"
         style="fill:#343433">
        <path
           d="m 59.436,41.391 c 0,8.818 2.965,16.069 8.897,21.76 5.895,5.684 12.709,8.526 20.433,8.526 8.373,0 15.441,-2.901 21.206,-8.686 5.756,-5.859 8.633,-12.985 8.633,-21.395 0,-8.512 -2.84,-15.638 -8.532,-21.395 -5.655,-5.786 -12.658,-8.679 -21.002,-8.679 -8.306,0 -15.323,2.893 -21.045,8.679 -5.726,5.72 -8.59,12.782 -8.59,21.19 l 0,0 z M 47.288,41.26 c 0,-11.236 4.117,-20.899 12.358,-28.958 8.206,-8.074 18.066,-12.111 29.585,-12.111 11.376,0 21.133,4.073 29.273,12.213 8.169,8.132 12.257,17.911 12.257,29.323 0,11.485 -4.103,21.219 -12.308,29.22 C 110.211,78.978 100.265,83 88.605,83 78.302,83 69.04,79.43 60.835,72.288 51.799,64.397 47.288,54.057 47.288,41.26 l 0,0 z"
           id="Fill-19"
           inkscape:connector-curvature="0" />
        <path
           d="m 0.789,1.692 35.168,0 0,8.351 -35.168,0 0,-8.351 z"
           id="Fill-16"
           inkscape:connector-curvature="0" />
        <path
           d="m 12.347,5.467 12.051,0 0,73.388 -12.051,0 0,-73.388 z"
           id="Fill-15"
           inkscape:connector-curvature="0" />
        <path
           d="m 0.789,73.199 35.168,0 0,8.352 -35.168,0 0,-8.352 z"
           id="Fill-17"
           inkscape:connector-curvature="0" />
      </g>
      <g
         id="Prediction"
         transform="translate(133,2)"
         sketch:type="MSShapeGroup"
         style="fill:#36a0ce">
        <path
           d="m 451.034,23.28 7.242,0 0,10.085 c 2.894,-3.861 6.1,-6.755 9.62,-8.664 3.519,-1.909 7.345,-2.871 11.484,-2.871 4.205,0 7.935,1.071 11.193,3.207 3.257,2.142 5.661,5.013 7.214,8.642 1.552,3.613 2.332,9.254 2.332,16.906 l 0,28.966 -7.244,0 0,-26.839 c 0,-6.485 -0.269,-10.814 -0.808,-12.985 -0.838,-3.724 -2.449,-6.529 -4.824,-8.409 -2.376,-1.873 -5.48,-2.814 -9.312,-2.814 -4.38,0 -8.301,1.443 -11.77,4.345 -3.461,2.899 -5.749,6.484 -6.849,10.755 -0.693,2.797 -1.036,7.899 -1.036,15.309 l 0,20.638 -7.242,0 0,-56.271"
           id="Fill-14"
           inkscape:connector-curvature="0" />
        <path
           d="m 407.96,28.914 c -6.02,0 -11.192,2.229 -15.521,6.673 -4.322,4.447 -6.486,9.824 -6.486,16.135 0,4.073 0.984,7.87 2.958,11.382 1.969,3.511 4.635,6.23 7.994,8.147 3.353,1.909 7.039,2.871 11.055,2.871 4.015,0 7.695,-0.962 11.055,-2.871 3.358,-1.917 6.018,-4.636 7.994,-8.147 1.967,-3.512 2.958,-7.309 2.958,-11.382 0,-6.311 -2.171,-11.688 -6.515,-16.135 -4.344,-4.444 -9.51,-6.673 -15.492,-6.673 l 0,0 z m 0.022,-7.084 c 8.671,0 15.857,3.141 21.554,9.416 5.183,5.727 7.776,12.497 7.776,20.33 0,7.856 -2.741,14.727 -8.212,20.608 -5.481,5.873 -12.512,8.816 -21.118,8.816 -8.635,0 -15.69,-2.943 -21.162,-8.816 -5.472,-5.881 -8.212,-12.752 -8.212,-20.608 0,-7.798 2.586,-14.559 7.776,-20.28 5.697,-6.311 12.896,-9.466 21.598,-9.466 l 0,0 z"
           id="Fill-12"
           inkscape:connector-curvature="0" />
        <path
           d="m 358.518,23.28 7.243,0 0,56.271 -7.243,0 0,-56.271 z M 362.11,0.115 c 1.655,0 3.06,0.583 4.226,1.749 1.166,1.18 1.749,2.593 1.749,4.24 0,1.625 -0.583,3.017 -1.749,4.198 -1.166,1.166 -2.571,1.756 -4.226,1.756 -1.611,0 -3.003,-0.59 -4.169,-1.756 -1.166,-1.181 -1.748,-2.573 -1.748,-4.198 0,-1.647 0.582,-3.06 1.748,-4.24 1.166,-1.166 2.558,-1.749 4.169,-1.749 l 0,0 z"
           id="Fill-10"
           inkscape:connector-curvature="0" />
        <path
           d="m 329.617,2.388 7.243,0 0,20.892 11.478,0 0,6.259 -11.478,0 0,50.012 -7.243,0 0,-50.012 -9.874,0 0,-6.259 9.874,0 0,-20.892"
           id="Fill-9"
           inkscape:connector-curvature="0" />
        <path
           d="m 310.867,34.968 -5.742,3.564 c -4.954,-6.58 -11.725,-9.874 -20.302,-9.874 -6.849,0 -12.54,2.208 -17.065,6.609 -4.533,4.417 -6.8,9.764 -6.8,16.076 0,4.095 1.043,7.95 3.127,11.571 2.084,3.614 4.94,6.42 8.577,8.417 3.636,1.997 7.702,2.994 12.22,2.994 8.264,0 15.011,-3.292 20.243,-9.881 l 5.742,3.776 c -2.688,4.051 -6.296,7.199 -10.835,9.428 -4.533,2.231 -9.7,3.352 -15.485,3.352 -8.898,0 -16.279,-2.826 -22.138,-8.482 -5.859,-5.654 -8.796,-12.533 -8.796,-20.636 0,-5.45 1.378,-10.508 4.117,-15.186 2.74,-4.663 6.5,-8.307 11.295,-10.93 4.795,-2.624 10.159,-3.936 16.09,-3.936 3.717,0 7.316,0.568 10.785,1.706 3.461,1.136 6.398,2.623 8.817,4.452 2.405,1.828 4.46,4.153 6.15,6.98"
           id="Fill-7"
           inkscape:connector-curvature="0" />
        <path
           d="m 233.472,23.28 7.243,0 0,56.271 -7.243,0 0,-56.271 z m 3.592,-23.165 c 1.647,0 3.061,0.583 4.227,1.749 1.166,1.18 1.749,2.593 1.749,4.24 0,1.625 -0.583,3.017 -1.749,4.198 -1.166,1.166 -2.58,1.756 -4.227,1.756 -1.61,0 -3.001,-0.59 -4.168,-1.756 -1.166,-1.181 -1.749,-2.573 -1.749,-4.198 0,-1.647 0.583,-3.06 1.749,-4.24 1.167,-1.166 2.558,-1.749 4.168,-1.749 l 0,0 z"
           id="Fill-6"
           inkscape:connector-curvature="0" />
        <path
           d="m 188.154,28.812 c -4.023,0 -7.746,0.991 -11.156,2.972 -3.403,1.983 -6.122,4.766 -8.141,8.344 -2.01,3.578 -3.016,7.366 -3.016,11.36 0,3.964 1.02,7.753 3.046,11.368 2.033,3.615 4.766,6.435 8.191,8.453 3.424,2.011 7.097,3.016 11.032,3.016 3.957,0 7.71,-0.997 11.259,-2.994 3.548,-1.997 6.274,-4.7 8.183,-8.11 1.916,-3.411 2.871,-7.251 2.871,-11.522 0,-6.507 -2.142,-11.95 -6.427,-16.322 -4.292,-4.38 -9.575,-6.565 -15.842,-6.565 l 0,0 z m 28.944,-27.254 0,77.993 -7.141,0 0,-9.67 c -3.032,3.687 -6.442,6.464 -10.217,8.321 -3.774,1.865 -7.899,2.798 -12.387,2.798 -7.958,0 -14.764,-2.886 -20.404,-8.663 -5.634,-5.779 -8.453,-12.805 -8.453,-21.082 0,-8.096 2.842,-15.025 8.533,-20.783 5.691,-5.756 12.534,-8.642 20.534,-8.642 4.621,0 8.796,0.984 12.541,2.952 3.746,1.96 7.025,4.911 9.853,8.838 l 0,-32.062 7.141,0 0,0 z"
           id="Fill-5"
           inkscape:connector-curvature="0" />
        <path
           d="m 139.761,45.731 c -0.969,-3.861 -2.368,-6.951 -4.219,-9.261 -1.852,-2.31 -4.292,-4.175 -7.332,-5.589 -3.031,-1.414 -6.23,-2.114 -9.574,-2.114 -5.524,0 -10.275,1.771 -14.239,5.32 -2.9,2.586 -5.101,6.471 -6.581,11.644 l 41.945,0 0,0 z m 0,15.15 6.099,3.207 c -1.996,3.927 -4.314,7.104 -6.937,9.515 -2.624,2.414 -5.568,4.249 -8.847,5.503 C 126.797,80.374 123.081,81 118.942,81 109.76,81 102.59,77.991 97.409,71.972 92.228,65.96 89.648,59.154 89.648,51.576 c 0,-7.141 2.186,-13.503 6.573,-19.092 5.552,-7.098 12.985,-10.654 22.313,-10.654 9.59,0 17.255,3.643 22.983,10.916 4.066,5.137 6.135,11.551 6.209,19.238 l -50.631,0 c 0.132,6.536 2.223,11.893 6.267,16.075 4.037,4.183 9.022,6.266 14.96,6.266 2.864,0 5.648,-0.494 8.359,-1.493 2.71,-0.999 5.013,-2.317 6.923,-3.972 1.894,-1.646 3.949,-4.306 6.157,-7.979 l 0,0 z"
           id="Fill-4"
           inkscape:connector-curvature="0" />
        <path
           d="m 59.618,23.28 7.396,0 0,8.228 c 2.201,-3.25 4.533,-5.67 6.981,-7.273 2.448,-1.604 4.999,-2.405 7.652,-2.405 2.004,0 4.139,0.641 6.413,1.916 l -3.775,6.099 c -1.516,-0.656 -2.784,-0.976 -3.819,-0.976 -2.419,0 -4.751,0.991 -6.988,2.974 -2.237,1.981 -3.942,5.056 -5.123,9.224 -0.889,3.207 -1.341,9.693 -1.341,19.45 l 0,19.034 -7.396,0 0,-56.271"
           id="Fill-2"
           inkscape:connector-curvature="0" />
        <path
           d="m 8.514,10.914 0,25.811 12.876,0.161 c 5.211,0 9.014,-0.482 11.434,-1.422 2.405,-0.947 4.306,-2.478 5.684,-4.598 1.384,-2.114 2.069,-4.474 2.069,-7.098 0,-2.543 -0.685,-4.875 -2.069,-6.995 -1.378,-2.114 -3.192,-3.615 -5.451,-4.511 -2.259,-0.896 -5.961,-1.348 -11.098,-1.348 l -13.445,0 0,0 z m -7.608,-7.447 15.157,0 c 8.687,0 14.545,0.379 17.584,1.144 4.343,1.071 7.892,3.264 10.654,6.594 2.762,3.323 4.138,7.506 4.138,12.541 0,5.066 -1.347,9.248 -4.029,12.542 -2.696,3.293 -6.398,5.509 -11.12,6.645 -3.454,0.831 -9.895,1.239 -19.347,1.239 l -5.429,0 0,35.379 -7.608,0 0,-76.084 0,0 z"
           id="Fill-1"
           inkscape:connector-curvature="0" />
      </g>
      <g
         id="Frog"
         transform="translate(0,2)"
         sketch:type="MSShapeGroup">
        <path
           d="M 55.503951,79.957627 C 24.844334,79.957627 0,69.90525 0,55.541119 0,40.098293 24.844334,18.635111 55.503951,18.635111 86.148752,18.635111 111,39.518697 111,55.541119 111,69.091199 86.148752,79.957627 55.503951,79.957627 Z"
           id="Face"
           inkscape:connector-curvature="0"
           style="fill:#1a1919" />
        <g
           id="Eyes"
           transform="translate(2.005639,0)">
          <g
             id="Left"
             transform="translate(0.16233,0)">
            <path
               d="m 39.023437,18.637703 c 0,10.284122 -8.673939,18.632519 -19.40332,18.632519 -10.7142742,0 -19.40332012,-8.348397 -19.40332012,-18.632519 C 0.21679688,8.3494338 8.9058428,0 19.620117,0 c 10.729381,0 19.40332,8.3494338 19.40332,18.637703"
               id="Socket"
               inkscape:connector-curvature="0"
               style="fill:#1a1919" />
            <path
               d="m 30.134766,18.746026 c 0,5.554505 -4.702974,10.07339 -10.514649,10.07339 -5.803669,0 -10.5146482,-4.518885 -10.5146482,-10.07339 0,-5.566847 4.7109792,-10.0785325 10.5146482,-10.0785325 5.811675,0 10.514649,4.5116855 10.514649,10.0785325"
               id="Eyeball"
               inkscape:connector-curvature="0"
               style="fill:#ffffff" />
            <path
               d="m 23.630859,18.634086 c 0,2.153202 -1.839028,3.901397 -4.11914,3.901397 -2.273047,0 -4.119141,-1.748195 -4.119141,-3.901397 0,-2.164481 1.846094,-3.899347 4.119141,-3.899347 2.280112,0 4.11914,1.734866 4.11914,3.899347"
               id="Pupil"
               inkscape:connector-curvature="0"
               style="fill:#1a1919" />
          </g>
          <g
             id="Right"
             transform="translate(67.586158,0)">
            <path
               d="m 39.023437,18.637703 c 0,10.284122 -8.673939,18.632519 -19.40332,18.632519 -10.7142742,0 -19.40332012,-8.348397 -19.40332012,-18.632519 C 0.21679688,8.3494338 8.9058428,0 19.620117,0 c 10.729381,0 19.40332,8.3494338 19.40332,18.637703"
               id="path4081"
               inkscape:connector-curvature="0"
               style="fill:#1a1919" />
            <path
               d="m 30.134766,18.746026 c 0,5.554505 -4.702974,10.07339 -10.514649,10.07339 -5.803669,0 -10.5146482,-4.518885 -10.5146482,-10.07339 0,-5.566847 4.7109792,-10.0785325 10.5146482,-10.0785325 5.811675,0 10.514649,4.5116855 10.514649,10.0785325"
               id="path4083"
               inkscape:connector-curvature="0"
               style="fill:#ffffff" />
            <path
               d="m 23.630859,18.634086 c 0,2.153202 -1.839028,3.901397 -4.11914,3.901397 -2.273047,0 -4.119141,-1.748195 -4.119141,-3.901397 0,-2.164481 1.846094,-3.899347 4.119141,-3.899347 2.280112,0 4.11914,1.734866 4.11914,3.899347"
               id="path4085"
               inkscape:connector-curvature="0"
               style="fill:#1a1919" />
          </g>
        </g>
        <g
           id="Nose"
           transform="translate(43.307898,31.946418)"
           style="fill:#ffffff">
          <path
             d="m 24.332727,1.9541813 c 0,1.0321099 -0.875936,1.8528117 -1.95068,1.8528117 -1.076712,0 -1.951664,-0.8207018 -1.951664,-1.8528117 0,-1.00219356 0.874952,-1.83087304 1.951664,-1.83087304 1.074744,0 1.95068,0.82867948 1.95068,1.83087304"
             id="Fill-28"
             inkscape:connector-curvature="0" />
          <path
             d="m 3.9538208,1.9541813 c 0,1.0321099 -0.8751724,1.8528117 -1.9511719,1.8528117 -1.07599939,0 -1.95117184,-0.8207018 -1.95117184,-1.8528117 0,-1.00219356 0.87517245,-1.83087304 1.95117184,-1.83087304 1.0759995,0 1.9511719,0.82867948 1.9511719,1.83087304"
             id="Fill-29"
             inkscape:connector-curvature="0" />
        </g>
      </g>
    </g>
  </g>
</svg>
