<?xml version="1.0" encoding="UTF-8" standalone="no"?>
<svg
   xmlns:dc="http://purl.org/dc/elements/1.1/"
   xmlns:cc="http://creativecommons.org/ns#"
   xmlns:rdf="http://www.w3.org/1999/02/22-rdf-syntax-ns#"
   xmlns:svg="http://www.w3.org/2000/svg"
   xmlns="http://www.w3.org/2000/svg"
   xmlns:sodipodi="http://sodipodi.sourceforge.net/DTD/sodipodi-0.dtd"
   xmlns:inkscape="http://www.inkscape.org/namespaces/inkscape"
   width="100"
   height="94.941902"
   viewBox="0 0 100 94.941904"
   version="1.1"
   preserveAspectRatio="xMinYMin meet"
   id="svg4365"
   inkscape:version="0.91 r13725"
   sodipodi:docname="puppet.svg">
  <metadata
     id="metadata4385">
    <rdf:RDF>
      <cc:Work
         rdf:about="">
        <dc:format>image/svg+xml</dc:format>
        <dc:type
           rdf:resource="http://purl.org/dc/dcmitype/StillImage" />
        <dc:title></dc:title>
      </cc:Work>
    </rdf:RDF>
  </metadata>
  <defs
     id="defs4383" />
  <sodipodi:namedview
     pagecolor="#ffffff"
     bordercolor="#666666"
     borderopacity="1"
     objecttolerance="10"
     gridtolerance="10"
     guidetolerance="10"
     inkscape:pageopacity="0"
     inkscape:pageshadow="2"
     inkscape:window-width="1056"
     inkscape:window-height="597"
     id="namedview4381"
     showgrid="false"
     fit-margin-top="0"
     fit-margin-left="0"
     fit-margin-right="0"
     fit-margin-bottom="0"
     inkscape:zoom="0.97119342"
     inkscape:cx="128"
     inkscape:cy="120.70086"
     inkscape:window-x="0"
     inkscape:window-y="0"
     inkscape:window-maximized="0"
     inkscape:current-layer="svg4365" />
  <g
     id="g4367"
     style="fill:#e6e6e6"
     transform="scale(0.39199656,0.39199656)">
    <path
       d="m 104.89756,193.24878 c 0,0 -23.102438,17.17073 -39.336584,12.4878 0,0 79.921954,79.92196 162.965854,3.12196 0,0 27.78536,-32.1561 26.53658,-55.88293 l -10.92683,-3.12195 c 0,0 -15.29756,75.55122 -95.21951,66.18536 0.3122,0.3122 -19.98049,-4.37073 -44.01951,-22.79024 l 0,0 z"
       id="path4369"
       style="fill:#e6e6e6"
       inkscape:connector-curvature="0" />
    <path
       d="m 80.689584,86.790244 c 0,0 -2.49756,-28.721951 9.990244,-39.960976 0,0 -109.892682,26.536586 -87.7268288,137.678052 0,0 13.1121948,40.58536 33.7170728,51.82439 l 8.117073,-7.80488 c 0,0 -56.507317,-52.44878 -6.868292,-115.82439 -0.312195,0 14.360975,-14.985367 42.770731,-25.912196 l 0,0 z"
       id="path4371"
       style="fill:#e6e6e6"
       inkscape:connector-curvature="0" />
    <path
       d="m 185.7561,116.75502 c 0,0 26.53658,11.23903 30.59512,27.47317 0,0 28.40976,-109.268288 -79.92195,-142.0487756 0,0 -42.146343,-7.4926829 -61.502441,5.3073171 l 3.121952,10.9268295 c 0,0 73.053659,-25.2878051 105.521949,48.390244 -0.31219,0 5.93171,19.668292 2.18537,49.951215 l 0,0 z"
       id="path4373"
       style="fill:#e6e6e6"
       inkscape:connector-curvature="0" />
    <path
       d="m 144.74813,77.001792 c -9.36585,10.614634 -25.6,11.55122 -36.21463,2.185366 -10.614635,-9.365854 -11.55122,-25.6 -2.18537,-36.214634 9.36586,-10.614634 25.6,-11.55122 36.21464,-2.185366 10.61463,9.365854 11.55122,25.6 2.18536,36.214634 l 0,0 z"
       id="path4375"
       style="fill:#e6e6e6"
       inkscape:connector-curvature="0" />
    <path
       d="m 79.138873,183.09985 c -9.365854,10.61463 -25.6,11.55122 -36.214634,2.18536 -10.614634,-9.36585 -11.55122,-25.6 -1.873171,-36.21463 9.365854,-10.61463 25.6,-11.55122 36.214634,-1.87317 10.302439,9.05366 11.239025,25.2878 1.873171,35.90244 l 0,0 z"
       id="path4377"
       style="fill:#e6e6e6"
       inkscape:connector-curvature="0" />
    <path
       d="m 200.94326,186.27008 c -9.36586,10.61464 -25.6,11.55122 -36.21464,2.18537 -10.61463,-9.36585 -11.55122,-25.6 -2.18536,-36.21463 9.36585,-10.61464 25.6,-11.55122 36.21463,-2.18537 10.61463,9.36585 11.55122,25.6 2.18537,36.21463 l 0,0 z"
       id="path4379"
       style="fill:#e6e6e6"
       inkscape:connector-curvature="0" />
  </g>
</svg>
