<?xml version="1.0" encoding="UTF-8" standalone="no"?>
<!-- Created with Inkscape (http://www.inkscape.org/) -->

<svg
   xmlns:dc="http://purl.org/dc/elements/1.1/"
   xmlns:cc="http://creativecommons.org/ns#"
   xmlns:rdf="http://www.w3.org/1999/02/22-rdf-syntax-ns#"
   xmlns:svg="http://www.w3.org/2000/svg"
   xmlns="http://www.w3.org/2000/svg"
   xmlns:sodipodi="http://sodipodi.sourceforge.net/DTD/sodipodi-0.dtd"
   xmlns:inkscape="http://www.inkscape.org/namespaces/inkscape"
   width="114.66798"
   height="70"
   id="svg2"
   version="1.1"
   inkscape:version="0.91 r13725"
   sodipodi:docname="raft.svg"
   style="enable-background:new">
  <defs
     id="defs4">
    <clipPath
       clipPathUnits="userSpaceOnUse"
       id="clipPath4027">
      <circle
         transform="matrix(1.1104439,0,0,1.1104439,41.32369,-655.94283)"
         id="path4029"
         style="display:inline;fill:#19cbd2;fill-opacity:1"
         cx="-298.11234"
         cy="147.77489"
         r="212.69333" />
    </clipPath>
    <clipPath
       clipPathUnits="userSpaceOnUse"
       id="clipPath3123">
      <rect
         style="display:inline;fill:#cbeaf3;fill-opacity:1"
         id="rect3125"
         width="391.71359"
         height="112.5676"
         x="-493.96915"
         y="-75.179077"
         clip-path="none" />
    </clipPath>
  </defs>
  <sodipodi:namedview
     id="base"
     pagecolor="#ffffff"
     bordercolor="#666666"
     borderopacity="1.0"
     inkscape:pageopacity="0.0"
     inkscape:pageshadow="2"
     inkscape:zoom="1.4142136"
     inkscape:cx="369.37888"
     inkscape:cy="138.87901"
     inkscape:document-units="px"
     inkscape:current-layer="layer1"
     showgrid="false"
     inkscape:window-width="1440"
     inkscape:window-height="855"
     inkscape:window-x="557"
     inkscape:window-y="0"
     inkscape:window-maximized="0"
     fit-margin-top="10"
     fit-margin-right="10"
     fit-margin-bottom="10"
     fit-margin-left="10">
    <inkscape:grid
       type="xygrid"
       id="grid3931"
       empspacing="5"
       visible="true"
       enabled="true"
       snapvisiblegridlinesonly="true"
       originx="-102.40532"
       originy="-615.00841" />
  </sodipodi:namedview>
  <metadata
     id="metadata7">
    <rdf:RDF>
      <cc:Work
         rdf:about="">
        <dc:format>image/svg+xml</dc:format>
        <dc:type
           rdf:resource="http://purl.org/dc/dcmitype/StillImage" />
        <dc:title></dc:title>
      </cc:Work>
    </rdf:RDF>
  </metadata>
  <g
     inkscape:groupmode="layer"
     id="layer2"
     inkscape:label="background"
     style="display:inline"
     transform="translate(-102.40532,-367.35376)" />
  <g
     inkscape:groupmode="layer"
     id="layer4"
     inkscape:label="sky"
     style="display:inline"
     transform="translate(-102.40532,-367.35376)" />
  <g
     inkscape:groupmode="layer"
     id="layer1"
     inkscape:label="raft"
     style="display:inline"
     transform="translate(-102.40532,-367.35376)">
    <g
       style="display:inline"
       id="g3105"
       transform="matrix(0.22690574,0,0,0.22690574,84.417196,306.16634)">
      <path
         sodipodi:nodetypes="cscccacccsscccc"
         inkscape:connector-curvature="0"
         id="rect3886"
         d="m 313.94944,319.3025 c 0,0 21.74876,-7.72678 37.8513,-1.17451 18.44129,7.50394 22.68942,23.16991 22.68942,23.16991 0,0 15.17932,-8.82659 28.24166,-10.57061 29.01626,-4.61377 46.97676,0.0225 55.52219,24.25427 47.7812,-18.02143 67.96926,7.87583 79.27968,34.36453 4.83277,11.31822 -2.51385,17.65609 -12.82183,34.62254 l -120.43182,91.79759 c -35.48286,19.39994 52.74754,-30.72788 -30.12453,-81.40109 -11.27739,-0.89849 -25.80815,-0.17589 -37.18455,8.62874 -11.3764,8.80463 -19.59844,25.69129 -19.96679,23.80754 -7.05537,-36.08094 -48.95742,-43.89325 -55.50008,-45.73562 -29.12092,10.65703 -36.05116,22.58973 -42.40525,37.03085 -6.22936,-36.2966 -27.46046,-40.99874 -57.83588,-46.11452 z"
         style="display:inline;fill:#a48261;fill-opacity:1" />
      <path
         sodipodi:nodetypes="sssss"
         inkscape:connector-curvature="0"
         id="path3899"
         d="m 314.5901,471.8822 c 0,25.65175 -17.92174,45.5924 -44.24412,45.5924 -26.32238,0 -52.57247,-23.14386 -52.57247,-48.79561 0,-25.65174 20.48431,-47.72787 46.80669,-47.72787 26.32238,0 50.0099,25.27934 50.0099,50.93108 z"
         style="display:inline;fill:#f8dfa4;fill-opacity:1" />
      <path
         sodipodi:nodetypes="sssss"
         inkscape:connector-curvature="0"
         id="path3894"
         d="m 216.78533,458.8558 c 0,25.65175 -12.3695,45.80595 -38.69188,45.80595 -26.32237,0 -51.29118,-18.87291 -51.29118,-44.52466 0,-25.65174 15.78626,-45.1653 42.10863,-45.1653 26.32238,0 47.87443,18.23228 47.87443,43.88401 z"
         style="display:inline;fill:#f8dfa4;fill-opacity:1" />
      <path
         sodipodi:nodetypes="sssss"
         inkscape:connector-curvature="0"
         id="path3901"
         d="m 411.32712,484.26795 c 0,25.65175 -20.27076,46.87369 -46.59314,46.87369 -26.32237,0 -49.36925,-20.58129 -49.36925,-46.23304 0,-25.65174 22.83333,-50.50399 49.1557,-50.50399 26.32238,0 46.80669,24.2116 46.80669,49.86334 z"
         style="display:inline;fill:#f8dfa4;fill-opacity:1" />
      <path
         style="display:inline;fill:#ffffff;fill-opacity:1"
         d="m 368.8336,478.04021 c 2.96522,-0.94531 6.47708,2.01243 8.07855,4.68103 2.92856,4.87996 0.5285,16.00609 0.5285,16.00609 l -17.3651,-1.51 c 0,0 2.06261,-17.04262 8.75805,-19.17712 z"
         id="path3892"
         inkscape:connector-curvature="0"
         sodipodi:nodetypes="ssccs" />
      <path
         sodipodi:nodetypes="ssccs"
         inkscape:connector-curvature="0"
         id="rect3889"
         d="m 159.69805,445.42402 c 2.96522,-0.94531 6.47708,2.01243 8.07855,4.68103 2.92856,4.87996 0.604,17.0631 0.604,17.0631 L 150.94,464.60114 c 0,0 2.06261,-17.04262 8.75805,-19.17712 z"
         style="display:inline;fill:#ffffff;fill-opacity:1" />
      <path
         style="display:inline;fill:#5a4836"
         d="m 363.47554,533.95278 c -1.35969,-0.16686 -3.17766,-0.43684 -9.5779,-1.42238 -2.58472,-0.39802 -8.25402,-1.81592 -11.19854,-2.80081 -3.45583,-1.15588 -8.79755,-3.87262 -11.33432,-5.76451 -3.54866,-2.64653 -7.87507,-7.17848 -10.09582,-10.57548 -2.91109,-4.45301 -7.23477,-14.28724 -8.16314,-18.56715 -0.0832,-0.38349 -0.23115,-0.74664 -0.32881,-0.80701 -0.0977,-0.0603 -0.61571,0.78628 -1.15123,1.88142 -1.82563,3.7335 -3.37512,5.8021 -7.01638,9.36706 -2.55675,2.50316 -4.09871,3.80026 -6.47739,5.44883 -5.07548,3.51757 -11.01502,6.27231 -17.59454,8.16023 -3.50421,1.00552 -4.68182,1.17154 -8.1338,1.14673 -3.59286,-0.0258 -8.76193,-0.7599 -11.84149,-1.68164 -0.94732,-0.28355 -3.22412,-0.85969 -5.05955,-1.2803 -4.42394,-1.01381 -6.12244,-1.59708 -10.22394,-3.51094 -4.60841,-2.1504 -6.32775,-3.15214 -9.9015,-5.76905 -3.0042,-2.19985 -7.63246,-6.56962 -9.22058,-8.70563 -3.67837,-4.94735 -7.02614,-10.49914 -8.84971,-14.67596 -0.60308,-1.38134 -1.19034,-2.52878 -1.30503,-2.54986 -0.11469,-0.0211 -0.53168,0.72158 -0.92665,1.65031 -2.89817,6.81491 -4.12402,8.75375 -8.16081,12.90741 -2.51816,2.59107 -4.50404,3.96459 -8.4433,5.83983 -4.26146,2.02862 -5.61315,2.53445 -9.30396,3.48168 -4.91394,1.26112 -7.7703,1.60791 -11.81839,1.43478 -7.3957,-0.31625 -11.4058,-0.98135 -16.56765,-2.74787 -8.19658,-2.80506 -16.69551,-7.30134 -22.18633,-11.73746 -2.93891,-2.37437 -6.64853,-6.48651 -8.99019,-9.96565 -2.51126,-3.73113 -5.03587,-9.74284 -5.76638,-13.73114 -0.47524,-2.59462 -0.64498,-8.97398 -0.33354,-12.53545 0.48154,-5.50675 1.2855,-8.32978 4.13869,-14.53275 2.11104,-4.5895 2.85534,-5.97272 4.45502,-8.27933 3.36114,-4.84649 6.53896,-8.30914 10.04884,-10.94947 1.18415,-0.89078 3.02497,-2.45569 4.0907,-3.47754 1.06574,-1.02186 2.51901,-2.25187 3.2295,-2.73332 2.53476,-1.71766 11.94469,-7.29357 18.14063,-10.74932 3.46453,-1.93232 7.00083,-3.99358 7.85845,-4.58055 3.04824,-2.08632 8.69793,-5.72186 10.92486,-7.03004 3.47529,-2.04156 9.47782,-5.86968 10.44052,-6.65847 0.4745,-0.38877 1.58936,-1.07024 2.47747,-1.51436 2.64165,-1.32103 4.8818,-2.71447 12.81035,-7.96843 7.16855,-4.75035 10.29842,-6.81505 19.91524,-13.13761 2.30909,-1.51811 5.31252,-3.40699 6.6743,-4.19752 1.36177,-0.79052 3.49324,-2.06603 4.73659,-2.83445 1.24336,-0.76843 3.95614,-2.30104 6.0284,-3.4058 3.83664,-2.04539 11.28843,-6.33189 15.17865,-8.73123 2.18332,-1.3466 3.45129,-2.08234 10.75008,-6.23775 2.24168,-1.27625 4.4896,-2.63633 4.99537,-3.0224 1.36975,-1.04555 6.22694,-4.01903 9.76759,-5.97952 1.71701,-0.95073 4.04225,-2.23903 5.16719,-2.8629 1.12495,-0.62386 2.72355,-1.68382 3.55245,-2.35546 3.0493,-2.47077 5.59347,-3.86812 10.44205,-5.73515 1.24336,-0.47878 3.51725,-1.40049 5.05311,-2.04825 3.24569,-1.36892 6.56634,-2.48869 8.7803,-2.96084 2.40061,-0.51196 8.34821,-0.814 13.94028,-0.70794 4.45561,0.0845 5.52214,0.17738 8.93494,0.77814 6.76382,1.19062 7.82405,1.5481 13.3486,4.50077 6.0692,3.24375 9.25581,5.85082 12.51168,10.2362 2.7547,3.71033 3.9444,6.556 3.95502,9.46006 0.003,0.80057 0.08,1.02267 0.35496,1.02267 0.38362,0 3.02285,-1.46083 6.49644,-3.59581 4.99997,-3.07317 10.05209,-5.22114 13.82113,-5.87621 0.7697,-0.13378 2.30272,-0.52977 3.40674,-0.87998 3.20237,-1.01584 10.25988,-1.705 17.45479,-1.70445 5.10618,4.3e-4 10.15202,0.50382 14.01706,1.39851 1.36177,0.31522 3.68701,0.81387 5.1672,1.10811 2.82553,0.56167 5.54677,1.66159 7.68151,3.10484 0.57098,0.38602 2.60812,2.27481 4.52703,4.1973 2.77429,2.77952 3.81621,3.99606 5.08706,5.9396 2.10148,3.21383 4.13344,6.98246 4.56475,8.46618 0.19036,0.65478 0.43768,1.19051 0.54963,1.19051 0.11196,0 1.14658,-0.44503 2.29919,-0.98896 2.78045,-1.31211 4.07673,-1.65101 9.30821,-2.43357 2.42751,-0.36313 5.23717,-0.85319 6.2437,-1.08903 5.98773,-1.40297 14.88829,-1.89564 19.72589,-1.09189 1.4067,0.23372 3.23585,0.53683 4.06475,0.67357 1.96078,0.32346 5.81596,1.47343 7.85845,2.34412 1.70782,0.72803 6.68226,3.58702 9.60067,5.51786 1.91501,1.26698 8.30843,6.77372 10.85282,9.34768 2.005,2.02832 7.21024,9.17306 8.37922,11.50138 2.82146,5.61967 3.24698,7.34267 3.24698,13.14727 0,4.26891 -0.17526,5.33216 -2.0575,12.4829 -2.23601,8.49472 -3.73943,12.18914 -6.43029,15.80144 -1.46096,1.96128 -2.97749,3.48017 -7.65428,7.66625 -1.58754,1.42098 -3.62214,3.26179 -4.52134,4.0907 -4.66396,4.29939 -6.56807,5.90178 -8.85464,7.45155 -1.38074,0.9358 -3.09027,2.20949 -3.79893,2.83042 -0.70868,0.6209 -2.58523,2.1621 -4.17012,3.42488 -1.58491,1.26278 -3.80204,3.12566 -4.92699,4.13972 -1.12494,1.01409 -3.20689,2.79057 -4.62653,3.94774 -1.41965,1.1572 -3.69644,3.17163 -5.05955,4.47656 -1.36311,1.30491 -3.25342,3.04884 -4.2007,3.8754 -0.94727,0.82654 -2.40483,2.13257 -3.23901,2.90227 -2.6019,2.40078 -8.4567,7.14778 -11.93969,9.68053 -1.83544,1.33468 -4.16068,3.07433 -5.1672,3.8659 -1.00653,0.79155 -2.58022,1.94532 -3.4971,2.5639 -0.91687,0.6186 -2.51548,1.8294 -3.55245,2.69069 -1.03697,0.86128 -3.04802,2.50394 -4.469,3.65034 -1.42098,1.14639 -3.74622,3.05967 -5.1672,4.25175 -1.42098,1.19205 -4.37597,3.36218 -6.56664,4.82252 -2.19068,1.46034 -5.58482,3.85367 -7.54254,5.31853 -1.9577,1.46486 -4.94389,3.53533 -6.63595,4.60107 -1.69207,1.06573 -4.27605,2.82951 -5.74216,3.91949 -4.05797,3.01691 -7.75631,5.46838 -9.84715,6.52725 -1.03755,0.52546 -3.89566,2.39099 -6.35135,4.14562 -2.45569,1.75465 -5.43374,3.78112 -6.61789,4.50326 -1.18415,0.72215 -3.21873,1.96896 -4.52129,2.77069 -2.50536,1.54206 -8.77923,4.58122 -11.02579,5.34105 -1.34556,0.4551 -4.38874,1.22301 -7.38236,1.86284 -1.89083,0.40414 -9.18301,0.60691 -11.51854,0.32028 z m 9.68849,-6.13527 c 5.05443,-0.83056 8.91792,-2.10968 11.39172,-3.77152 0.90733,-0.60953 2.7444,-1.62263 4.0824,-2.2513 4.13874,-1.94468 8.69819,-5.91862 11.86671,-10.34279 4.27259,-5.96575 5.99716,-10.93997 6.5899,-19.00733 0.46862,-6.37787 -0.19851,-19.12489 -1.2113,-23.14463 -1.21024,-4.80343 -3.18665,-8.98085 -5.7937,-12.24574 -0.97767,-1.22441 -3.26986,-3.67946 -5.09376,-5.45568 -2.96091,-2.88351 -4.3739,-4.0426 -9.99047,-8.1952 -2.18797,-1.61765 -6.37116,-4.39985 -6.61546,-4.39985 -0.11523,0 -1.18953,-0.55489 -2.38733,-1.2331 l -2.17784,-1.23309 -4.24191,-0.0835 c -6.62163,-0.13033 -13.01619,0.82296 -19.32258,2.88054 -7.42042,2.42107 -11.58389,4.91239 -17.07759,10.21884 -5.32799,5.14636 -11.99292,18.93612 -13.95996,28.88307 -0.59649,3.01633 -0.98537,10.68053 -0.65996,13.00665 0.51138,3.65545 2.08466,7.87522 5.45329,14.62651 1.99712,4.00255 3.29475,5.78481 6.79934,9.33872 3.56819,3.61841 5.22789,4.83249 9.18032,6.71546 5.7819,2.75453 12.1109,4.32869 23.26439,5.78632 2.28459,0.29857 7.83991,0.24675 9.90379,-0.0924 z m -0.32295,-27.59378 c -0.29603,-0.0416 -2.28218,-0.21455 -4.41365,-0.38425 -2.13146,-0.16972 -5.11068,-0.47495 -6.62047,-0.6783 l -2.74507,-0.36972 0,-1.12634 c 0,-0.92503 0.073,-1.14544 0.40855,-1.23319 0.35337,-0.0924 0.42791,-0.39394 0.55173,-2.23193 0.2336,-3.46741 0.5319,-5.42829 1.21849,-8.00961 1.2992,-4.88455 3.45347,-8.11157 6.37537,-9.55001 1.23903,-0.60997 1.61056,-0.69049 3.15331,-0.6833 1.10998,0.005 2.04205,0.13413 2.5516,0.35311 1.23049,0.52876 2.82355,2.15556 3.57708,3.65282 1.53998,3.05987 2.64072,9.71545 2.14833,12.98967 -0.1055,0.70136 -0.19328,2.23458 -0.19511,3.40712 -0.004,2.29798 -0.29851,3.38226 -1.02588,3.77152 -0.3971,0.21252 -3.69543,0.27367 -4.98428,0.0924 z m -6.36426,-3.28367 c 0.0661,-0.10692 -0.12104,-0.71245 -0.41579,-1.34563 -0.86206,-1.85175 -0.60704,-5.07989 0.63641,-8.05583 0.40274,-0.9639 1.86436,-3.07909 2.62241,-3.79503 0.91925,-0.86817 2.49783,-1.49306 3.62443,-1.43474 0.53078,0.0275 1.03085,-0.0159 1.11131,-0.0963 0.25866,-0.25866 -0.32103,-1.73949 -1.00448,-2.56594 -1.28551,-1.55449 -3.20614,-1.56216 -5.52634,-0.0221 -2.88668,1.91607 -4.8286,5.84815 -5.56402,11.2663 -0.34926,2.57297 -0.40134,5.1284 -0.11381,5.58277 0.1238,0.19563 0.77039,0.36078 1.77293,0.45284 2.41619,0.22191 2.72734,0.2234 2.85695,0.0138 z m 7.99367,-7.8716 c 1.36061,-0.5685 1.8485,-2.78181 0.86519,-3.92496 -0.43118,-0.50129 -0.69049,-0.60409 -1.52366,-0.60409 -0.88277,0 -1.09222,0.0962 -1.73428,0.79684 -1.30252,1.42131 -1.20364,2.53387 0.31629,3.55814 0.85339,0.57508 1.07269,0.59347 2.07646,0.17407 z m -46.76296,-15.10495 c 0.35259,-5.71649 2.31173,-11.25483 5.33035,-15.06845 3.85326,-4.86809 8.04924,-8.03777 10.72079,-8.09864 1.13986,-0.026 2.45795,0.685 2.25424,1.21588 -0.0613,0.15986 -0.71095,0.45831 -1.44355,0.66321 -2.5836,0.72259 -4.73427,2.13972 -7.94583,5.23569 -3.49893,3.37295 -4.58023,5.21116 -6.29178,10.69601 -1.36711,4.38105 -2.30112,7.06139 -2.55087,7.3202 -0.13366,0.13852 -0.15982,-0.56185 -0.0734,-1.9639 z m 71.93521,-2.29458 c -2.92175,-5.44627 -6.85944,-9.57155 -13.2755,-13.90792 -2.92195,-1.97484 -3.93349,-3.04587 -3.74881,-3.96932 0.24301,-1.21502 0.68668,-1.65492 1.66912,-1.65492 1.36818,0 3.66655,0.77827 5.07403,1.71814 1.63654,1.09284 4.62546,4.20172 5.92501,6.16283 1.39814,2.10987 3.71571,6.60191 4.45176,8.62861 0.67677,1.86355 1.02302,3.82791 0.70892,4.02202 -0.11086,0.0685 -0.47289,-0.38125 -0.80453,-0.99944 z m -122.1533,41.95849 c 3.41112,-0.87126 8.76642,-2.88959 11.71893,-4.41669 4.6685,-2.41463 8.34005,-5.09219 11.73509,-8.55804 3.41298,-3.48416 4.34652,-4.88094 6.4882,-9.70772 3.13586,-7.06746 3.82249,-10.14235 3.99028,-17.86927 0.17564,-8.08736 -0.25072,-12.28062 -1.88814,-18.57063 -1.15941,-4.45382 -3.92055,-9.44191 -7.07508,-12.78143 -1.24131,-1.31408 -6.55513,-5.56333 -8.41741,-6.73105 -2.56822,-1.61036 -5.89437,-3.26569 -8.53011,-4.24522 -1.43515,-0.53334 -3.59696,-1.46531 -4.80403,-2.07104 -3.46686,-1.73975 -5.94109,-2.53485 -10.44064,-3.3551 -3.46062,-0.63087 -4.55729,-0.74285 -7.27545,-0.74285 -4.43895,0 -7.89228,0.78449 -13.92611,3.16355 -4.97837,1.96289 -8.5471,3.90604 -12.1479,6.6144 -1.84171,1.38524 -3.9116,3.12269 -4.59977,3.86102 -2.23703,2.40006 -4.88799,6.8094 -6.75745,11.23967 -2.00927,4.76159 -2.3894,5.79187 -3.12128,8.45963 -1.21787,4.43927 -1.4707,6.70618 -1.48047,13.27416 -0.009,5.75904 -0.003,5.83112 0.58952,7.7508 1.11346,3.607 3.66586,8.42957 7.23581,13.67154 4.39335,6.45099 9.90744,11.16296 17.35365,14.82924 4.78207,2.35454 6.14105,2.85068 10.765,3.93004 2.01305,0.46991 4.32213,1.05525 5.13128,1.30071 2.80366,0.85057 6.92039,1.43123 10.28888,1.45127 2.65687,0.0157 3.46312,-0.0617 5.1672,-0.49699 z m -12.51361,-8.84997 c -2.169,-0.43807 -5.55557,-1.58112 -7.15396,-2.41466 -0.79668,-0.41546 -2.06853,-1.32351 -2.82633,-2.01789 -1.54849,-1.41892 -3.48714,-4.09733 -3.30647,-4.56817 0.0653,-0.17009 0.37539,-0.3737 0.68913,-0.45243 0.50357,-0.12641 0.81932,0.0935 2.6932,1.87519 2.40688,2.28856 3.94589,3.19611 7.14404,4.21288 6.95186,2.21019 14.23858,0.90411 21.00695,-3.76527 1.09528,-0.75561 2.07997,-1.37385 2.1882,-1.37385 0.26923,0 1.52583,1.7353 1.52583,2.10708 0,0.40532 -0.64748,0.92889 -2.69125,2.17623 -5.36007,3.27126 -9.6455,4.55701 -15.071,4.52173 -1.53939,-0.01 -3.42865,-0.1454 -4.19834,-0.30084 z m 146.9167,3.08387 c 1.19816,-0.84988 3.34111,-2.38329 4.76209,-3.40758 1.42098,-1.02431 3.45556,-2.47405 4.52129,-3.22166 2.69125,-1.88792 6.72317,-5.08422 7.7331,-6.1304 0.98735,-1.02279 1.8467,-2.81189 2.60119,-5.41555 0.58756,-2.0275 0.94336,-4.82377 0.61378,-4.82377 -0.11094,0 -0.77883,0.48942 -1.48419,1.08761 -1.31303,1.11351 -2.42099,1.88387 -6.29165,4.3745 -2.43334,1.56579 -3.75806,2.28868 -4.19402,2.28868 -0.2091,0 -0.28333,-0.38218 -0.27769,-1.42993 0.007,-1.3714 0.0378,-1.45295 0.74444,-1.99153 0.40524,-0.30887 1.22876,-1.00702 1.83005,-1.55147 0.60131,-0.54443 1.81993,-1.47952 2.70804,-2.07799 0.88811,-0.59847 2.05073,-1.54342 2.5836,-2.0999 0.53287,-0.55649 1.64705,-1.52161 2.47595,-2.14471 0.82891,-0.6231 1.73782,-1.38397 2.01982,-1.6908 l 0.51271,-0.5579 -0.25819,-3.72375 c -0.14201,-2.04808 -0.46961,-4.98326 -0.72801,-6.52266 l -0.46983,-2.7989 -2.18359,0 c -2.34613,0 -2.8963,-0.22225 -3.32501,-1.34319 -0.29406,-0.76886 0.52869,-2.97589 1.82219,-4.88802 1.30868,-1.93457 1.30569,-1.59425 0.0426,-4.85673 -1.02145,-2.63818 -5.74087,-11.83599 -6.80456,-13.26155 -1.92388,-2.57839 -6.64641,-7.29492 -10.11272,-10.09987 -1.56054,-1.2628 -10.5525,-6.73516 -12.43469,-7.56756 -4.19665,-1.85595 -10.33761,-3.24762 -15.23135,-3.45173 -3.61514,-0.15079 -4.85392,0.0867 -7.5819,1.45341 -1.20966,0.60604 -2.6031,1.15605 -3.09652,1.22223 -0.55132,0.0739 -1.81985,0.65596 -3.29076,1.50986 -1.31649,0.76425 -4.74307,2.59886 -7.61464,4.07696 -2.87156,1.47808 -5.22102,2.77601 -5.22102,2.88429 0,0.27403 0.61199,0.25532 5.26695,-0.16111 3.40066,-0.30422 4.62367,-0.32616 7.32019,-0.13136 3.60292,0.2603 8.31891,1.11747 10.32187,1.87611 0.72173,0.27334 1.99964,0.75402 2.8398,1.06814 3.46013,1.29374 12.2648,7.81433 17.60209,13.03579 10.4057,10.17989 13.60105,19.22662 13.57791,38.44193 -0.004,3.55244 -0.11885,7.52473 -0.2546,8.82729 -0.5016,4.81342 -1.70907,9.63235 -3.30461,13.1885 -0.34162,0.76141 -0.62112,1.4238 -0.62112,1.47196 0,0.37579 1.03324,-0.14698 2.88106,-1.45764 z m -228.05234,-6.62444 c 1.34393,-0.23039 3.64334,-0.76476 5.10979,-1.1875 3.05923,-0.88192 8.38874,-3.30494 10.70061,-4.86496 1.89781,-1.28063 5.77501,-5.46171 6.98335,-7.53068 2.60644,-4.46284 4.74539,-11.20001 5.92626,-18.66622 2.06327,-13.04535 2.2042,-16.71231 0.86954,-22.62477 -0.29405,-1.30263 -0.76917,-2.93428 -1.05582,-3.62587 -0.28666,-0.69161 -0.7897,-2.08098 -1.11789,-3.08751 -1.28532,-3.94199 -3.76962,-7.97122 -6.50461,-10.54969 -2.95474,-2.78566 -4.90434,-4.51652 -5.67097,-5.03475 -0.91769,-0.62032 -5.58117,-2.93135 -5.91524,-2.93135 -0.13467,0 -1.01146,-0.38246 -1.94843,-0.84989 -1.92034,-0.95807 -6.93617,-2.29941 -11.42705,-3.05586 -2.2188,-0.37374 -3.67687,-0.46746 -7.39287,-0.47517 l -4.62895,-0.009 -3.33714,0.88453 c -3.654,0.96853 -6.60304,1.98561 -9.0927,3.13589 -2.05728,0.95053 -8.51837,5.22059 -11.02637,7.28719 -3.60525,2.97077 -7.85657,8.3607 -9.91265,12.56753 -4.84872,9.92068 -5.35964,11.88525 -5.3752,20.66879 -0.0111,6.28164 0.13091,7.31346 1.5179,11.02672 2.4311,6.50851 6.66275,12.19512 12.57432,16.89777 4.95618,3.94261 16.21397,9.33939 23.03709,11.04355 5.30479,1.32493 13.1462,1.76023 17.68703,0.98183 z m -17.90232,-33.07172 c -1.00653,-0.16051 -3.69839,-0.53896 -5.98192,-0.84103 -3.94241,-0.52152 -6.71871,-1.04674 -8.87378,-1.67875 -0.90411,-0.26515 -0.97335,-0.33809 -1.03617,-1.09166 -0.0505,-0.6062 0.043,-0.89937 0.37514,-1.17591 0.35769,-0.29782 0.52295,-0.92529 0.86252,-3.27494 0.45253,-3.13133 1.35879,-6.56473 2.24198,-8.49389 0.78732,-1.71975 2.61914,-4.29017 3.839,-5.38693 1.62367,-1.45982 2.71066,-1.90032 4.43812,-1.79853 1.86103,0.10965 3.15573,0.75805 4.6575,2.3325 2.41688,2.53386 3.61347,6.09931 3.99629,11.90778 0.27528,4.17671 0.0396,6.84335 -0.76566,8.66425 -0.59713,1.35021 -0.57126,1.34444 -3.75302,0.83711 z m -7.45744,-3.49313 c 0.0569,-0.0921 -0.0795,-0.69762 -0.30321,-1.34563 -0.79907,-2.3149 -0.40928,-6.38836 0.83381,-8.71368 0.79877,-1.49416 2.37651,-3.03386 3.40007,-3.31805 0.45953,-0.12761 1.48949,-0.23255 2.28879,-0.23319 1.28134,0 1.45327,-0.0494 1.45327,-0.4083 0,-0.22391 -0.31745,-0.86774 -0.70545,-1.43077 -0.90104,-1.3075 -2.52408,-2.25992 -3.8982,-2.2875 -0.88054,-0.0177 -1.16546,0.11144 -2.55639,1.15833 -1.9499,1.46762 -3.28761,3.39418 -4.60309,6.62932 -0.90941,2.23652 -2.22339,7.20863 -2.22881,8.43382 -0.003,0.66797 0.0354,0.68478 2.84445,1.24704 2.19319,0.43897 3.31584,0.52576 3.47476,0.26861 z m 6.77569,-5.99994 c 0.59896,-0.38758 1.1554,-1.62336 1.1554,-2.56594 0,-2.32524 -2.63331,-3.78054 -4.13089,-2.28296 -0.71198,0.71198 -1.19545,2.12775 -0.99684,2.91908 0.16719,0.66612 1.33536,2.04178 1.95106,2.29757 0.53231,0.22118 1.33762,0.0747 2.02127,-0.36775 z m 41.51608,4.01438 c -0.17234,-0.44744 -0.7198,-2.74818 -0.87092,-3.6601 -0.0687,-0.41446 -0.22512,-2.30371 -0.34764,-4.19835 -0.12253,-1.89464 -0.37661,-4.35918 -0.56464,-5.47676 -0.37204,-2.21132 -2.35731,-9.5501 -3.07825,-11.37914 -0.52422,-1.32995 -0.57069,-1.98284 -0.14112,-1.98284 1.27961,0 4.60423,7.23823 5.5873,12.16444 1.08692,5.44659 1.02799,11.34723 -0.14083,14.10251 -0.22239,0.52426 -0.35731,0.65503 -0.4439,0.43024 z m -66.38512,-16.32674 c 0.18666,-1.78587 1.19457,-4.31267 2.54996,-6.3927 3.15423,-4.84063 12.36924,-12.31961 18.13846,-14.72135 2.71713,-1.13114 4.86237,-0.8159 4.86237,0.71454 0,0.96921 -0.25999,1.20693 -2.66187,2.43383 -2.84004,1.45072 -4.76915,2.73365 -8.91939,5.93169 -2.49037,1.91901 -3.91521,3.26349 -7.47453,7.05305 -3.92736,4.18141 -5.33565,5.54449 -6.32999,6.12675 -0.25301,0.14817 -0.28038,-0.0419 -0.16501,-1.14581 z m 299.21125,40.59222 c 1.94599,-1.45584 4.70079,-3.52532 6.12177,-4.59885 4.89524,-3.69823 10.77561,-7.96666 14.9511,-10.8526 8.3579,-5.77669 17.77783,-13.3171 23.37229,-18.70892 1.30256,-1.25537 3.33715,-3.11506 4.5213,-4.13264 1.18415,-1.01757 2.87963,-2.49351 3.76775,-3.27985 2.47145,-2.18827 8.57548,-7.4429 9.90379,-8.52564 1.95557,-1.59406 10.63134,-9.17316 10.99957,-9.6092 0.7841,-0.92842 1.52008,-3.38861 2.01656,-6.74066 0.50053,-3.37941 0.43618,-4.54091 -0.21655,-3.9084 -0.29111,0.28208 -3.00231,1.61654 -4.40288,2.16708 -0.7205,0.2832 -1.90271,0.51198 -3.01932,0.58428 -1.77965,0.11521 -1.85705,0.10037 -2.55904,-0.4903 -0.7957,-0.66952 -1.31124,-1.69314 -1.31124,-2.60343 0,-0.73572 0.69617,-3.69278 1.66408,-7.06838 1.05359,-3.6744 1.05395,-3.67754 0.45671,-4.01759 -0.68521,-0.39016 -4.4611,-0.31959 -7.09069,0.13252 -3.73726,0.64259 -9.30022,2.20967 -15.26829,4.30109 -8.29576,2.90713 -9.33162,3.3232 -13.96976,5.61125 -2.26233,1.11603 -4.61581,2.17839 -5.22996,2.36077 -1.34164,0.39843 -2.40072,0.43531 -2.28211,0.0795 0.0462,-0.13866 1.47134,-1.19339 3.16693,-2.34384 3.28735,-2.23045 8.74566,-5.08388 11.96355,-6.25417 1.06574,-0.38758 3.78823,-1.40707 6.04999,-2.26549 5.34383,-2.02821 6.24146,-2.32494 10.09751,-3.33797 9.03809,-2.37443 14.82578,-2.23031 16.60748,0.41355 0.83982,1.24622 0.83431,2.08273 -0.0361,5.46675 -1.14638,4.45705 -1.13764,4.41395 -0.95561,4.70846 0.35303,0.57123 4.31188,-2.11729 5.87842,-3.99212 l 0.8254,-0.98786 -0.34043,-2.14944 c -0.63169,-3.98833 -3.01846,-8.66208 -6.69973,-13.11935 -4.02718,-4.87613 -7.50365,-8.18559 -11.30544,-10.76231 -4.55187,-3.08511 -9.20323,-4.95127 -18.50675,-7.42504 -3.2715,-0.86988 -5.60023,-1.29436 -13.56389,-2.47244 -1.59861,-0.23648 -3.68163,-0.57869 -4.62895,-0.76046 -3.57689,-0.68635 -15.10023,-0.61164 -18.36063,0.11904 -1.72235,0.38598 -9.08214,5.22005 -13.70246,9.00005 -4.66548,3.81696 -14.99814,11.67742 -17.34824,13.1975 -1.00653,0.65102 -2.50825,1.61847 -3.33715,2.1499 -0.82891,0.5314 -3.33767,2.34748 -5.57504,4.03573 -2.23735,1.68825 -4.75636,3.55279 -5.5978,4.14343 -0.84141,0.59063 -2.40182,1.78636 -3.46755,2.65718 -3.26352,2.66664 -6.51024,5.21963 -7.53221,5.92275 -1.4475,0.99592 -1.40326,1.0401 1.39616,1.39409 4.37857,0.55369 10.29396,2.20248 13.9315,3.88313 2.74279,1.26723 11.617,6.79355 13.81052,8.60031 2.97234,2.4483 8.3411,7.87345 9.95598,10.06055 1.43706,1.94629 5.04392,8.62703 6.66343,12.34222 0.51618,1.18415 1.01737,2.24659 1.11376,2.36096 0.10328,0.12257 1.05915,-0.69086 2.32765,-1.98083 1.18381,-1.20385 3.38641,-3.30801 4.89463,-4.67592 1.50824,-1.36793 3.75955,-3.42039 5.0029,-4.56102 1.24336,-1.14064 3.1827,-2.76325 4.30966,-3.60578 5.40407,-4.04026 20.42734,-13.27436 25.93998,-15.94412 3.36516,-1.62974 8.72729,-3.8137 10.65735,-4.34067 0.94086,-0.25689 2.21078,-0.38648 3.8754,-0.39546 2.30528,-0.0125 2.56284,0.0293 3.73648,0.6056 1.02119,0.50143 1.3371,0.78756 1.66384,1.5071 0.58635,1.29124 0.51459,2.73444 -0.25009,5.02975 -1.95088,5.85585 -10.76394,16.6173 -20.33394,24.82933 -1.18137,1.01374 -4.51053,3.87185 -7.39815,6.35135 -9.19899,7.89892 -14.62834,12.33255 -20.17197,16.47255 -2.96963,2.21772 -5.5613,4.19419 -5.75927,4.39218 -0.19799,0.19799 -0.35998,0.60668 -0.35998,0.90818 0,0.55584 -0.65456,1.28308 -2.58668,2.87391 -0.88872,0.73172 -0.93247,0.82467 -1.11467,2.3683 -0.19438,1.64687 -1.13321,6.54053 -1.37633,7.17407 -0.29627,0.77209 0.60801,0.25557 4.01545,-2.29365 z m 0.2552,-14.2141 c 1.21356,-0.98457 3.03,-2.40776 4.03653,-3.16265 2.768,-2.07601 7.21715,-5.72667 9.14972,-7.50764 0.9476,-0.87325 2.59489,-2.32584 3.66062,-3.22794 1.06573,-0.90211 3.24565,-2.80517 4.84425,-4.22903 1.5986,-1.42387 5.03802,-4.43658 7.64315,-6.69493 10.34923,-8.97157 20.70046,-21.44576 21.5313,-25.94721 0.13951,-0.75594 0.12121,-0.78417 -0.59642,-0.91879 -2.76792,-0.51926 -10.83618,2.63871 -18.74582,7.33727 -2.26972,1.34827 -5.08326,3.00485 -6.25229,3.68126 -2.6008,1.50482 -12.47194,8.01691 -14.20646,9.37214 -0.69352,0.54186 -2.86592,2.46783 -4.82752,4.2799 -1.96162,1.81209 -4.49449,4.14954 -5.62863,5.19435 -3.10275,2.85838 -6.0451,6.14547 -6.0451,6.75339 0,0.28089 0.14447,0.56616 0.32105,0.63391 0.75177,0.28848 9.21964,-4.31243 16.71055,-9.07947 3.62376,-2.30606 6.65914,-4.49986 6.64454,-4.80227 -0.004,-0.078 -0.14909,-0.32988 -0.32295,-0.55974 -0.5089,-0.67285 -0.3972,-2.01871 0.23653,-2.84958 0.67247,-0.88165 3.14517,-2.65434 5.04517,-3.61693 1.66734,-0.84471 4.08648,-1.62177 5.02839,-1.61518 1.59378,0.0112 3.36527,1.43989 3.36751,2.71601 0.002,0.70433 -1.27217,2.43778 -2.50278,3.40695 -1.03311,0.81362 -4.98019,3.80067 -9.44557,7.14817 -4.29827,3.22222 -13.19289,8.59738 -19.37699,11.7098 l -4.0907,2.05883 0.0185,0.74138 c 0.0101,0.40776 0.22045,2.19464 0.46723,3.97086 0.24675,1.77623 0.51631,4.07725 0.59898,5.11338 0.0827,1.03613 0.23588,1.88387 0.3405,1.88387 0.10459,0 1.18309,-0.80554 2.39665,-1.79011 z M 317.88671,463.0998 c 0.14851,-0.28654 1.07477,-2.17636 2.05833,-4.19962 3.05388,-6.28198 5.79245,-10.29 9.4603,-13.84557 3.83119,-3.71395 6.00243,-5.35548 10.10577,-7.64035 0.9887,-0.55054 1.91666,-1.33006 2.95658,-2.48361 1.75416,-1.94586 3.8639,-3.46833 6.52275,-4.70713 1.03273,-0.48115 2.72821,-1.40042 3.76775,-2.04281 1.03953,-0.64239 3.48865,-2.02158 5.4425,-3.06488 3.94087,-2.10432 7.79015,-4.34791 8.6132,-5.0203 l 0.53705,-0.43873 -0.8612,-0.90039 c -0.47366,-0.49521 -1.65728,-1.41816 -2.63024,-2.05103 -2.12085,-1.37947 -7.59515,-4.18444 -8.16217,-4.1822 -0.22176,0 -1.17827,0.44625 -2.12559,0.98969 -0.94732,0.54344 -2.57105,1.41611 -3.60828,1.93927 -5.06983,2.55707 -16.14424,9.80943 -20.18236,13.21694 -2.1018,1.77357 -4.60339,3.58535 -5.75891,4.17087 -1.99764,1.0123 -5.00609,1.48082 -5.00609,0.77963 0,-0.237 1.01394,-0.89935 2.92686,-1.91191 0.73477,-0.38896 2.53466,-1.79523 4.09069,-3.1961 5.13176,-4.62013 8.74174,-7.40576 14.1895,-10.94925 1.06573,-0.69321 2.76402,-1.84452 3.77399,-2.55848 1.00995,-0.71395 2.92343,-1.92015 4.25217,-2.68044 1.32873,-0.76029 2.41588,-1.50085 2.41588,-1.64569 0,-0.40121 -2.14613,-1.1787 -8.28904,-3.00294 -8.50668,-2.5262 -8.79681,-2.59412 -17.05154,-3.99224 -4.5519,-0.77094 -5.58994,-0.86994 -11.4171,-1.08875 -12.78474,-0.48003 -22.65125,0.29819 -27.35584,2.1577 -1.26175,0.49872 -2.12538,0.5576 -3.31824,0.2263 -0.77428,-0.21504 -0.87009,-0.17272 -3.4448,1.52161 -3.03674,1.99839 -4.50405,2.91456 -11.79861,7.36679 -5.63875,3.44163 -6.78372,4.21563 -6.56269,4.43642 0.0769,0.0768 2.4812,0.10574 5.34281,0.0642 l 5.20293,-0.0756 3.6601,0.88899 c 3.56919,0.86693 5.67326,1.65561 7.06479,2.64817 0.37731,0.26912 1.14581,0.70265 1.7078,0.96342 0.56198,0.26075 1.3855,0.86669 1.83005,1.34651 0.61622,0.66513 1.21749,1.01751 2.53066,1.48307 2.34855,0.83265 6.78209,3.17471 9.58084,5.06114 2.00027,1.34823 6.41628,5.01589 8.18409,6.79717 2.95527,2.97777 6.49497,8.72966 7.8884,12.81827 1.09404,3.21025 2.65367,10.71287 2.65733,12.78317 0.002,0.82807 0.38543,0.83692 0.80958,0.0185 z m -97.47276,-16.89747 c 0.70466,-1.85339 3.64367,-7.30823 5.2707,-9.78245 1.38795,-2.11065 2.50434,-3.49861 4.07698,-5.0687 2.46444,-2.46045 6.57199,-5.46533 8.57559,-6.27348 0.73747,-0.29743 2.26127,-0.97134 3.38622,-1.49754 1.12494,-0.52621 2.70938,-1.14266 3.52098,-1.36991 1.00694,-0.28193 2.20368,-0.88611 3.76775,-1.90217 1.26066,-0.81894 2.72809,-1.70815 3.26096,-1.976 1.63711,-0.8229 4.31368,-2.60894 6.459,-4.31001 5.15856,-4.09028 8.49698,-6.38967 12.52155,-8.62435 1.10285,-0.61238 2.87851,-1.70815 3.94589,-2.43504 1.06739,-0.7269 2.30402,-1.53457 2.74808,-1.79485 0.44405,-0.26028 0.80737,-0.57532 0.80737,-0.70013 0,-0.60642 -7.99917,-5.22759 -11.20096,-6.47089 -1.24041,-0.48166 -3.06769,-1.21836 -4.06063,-1.63711 -2.20652,-0.93057 -14.23079,-3.93864 -18.3252,-4.58433 -5.96227,-0.94027 -7.77572,-1.11105 -13.13713,-1.23719 l -5.49398,-0.12926 -3.65626,2.21418 c -5.8921,3.56814 -8.21401,4.9165 -11.29941,6.5617 -1.5986,0.85241 -3.8754,2.08627 -5.05955,2.74195 -1.18415,0.65567 -3.12185,1.72106 -4.306,2.36757 -1.18415,0.6465 -3.19088,1.77114 -4.4594,2.4992 -2.46823,1.41663 -10.34794,4.66679 -10.8485,4.47473 -0.37752,-0.14488 -0.36828,-0.27389 0.0858,-1.19744 0.41163,-0.83721 2.10976,-2.283 4.67243,-3.97803 5.58367,-3.69321 8.20359,-5.34077 10.1191,-6.36345 1.18415,-0.63223 2.74872,-1.51381 3.47682,-1.9591 0.7281,-0.44528 2.37514,-1.3661 3.6601,-2.04627 3.44051,-1.82118 7.39583,-4.17845 7.39583,-4.40773 0,-0.27498 -0.44569,-0.25214 -2.69125,0.13792 -3.1097,0.54015 -5.6246,1.33163 -8.50435,2.67644 -3.84259,1.79446 -4.83638,2.15248 -5.98254,2.15528 -0.93166,0.002 -1.39356,0.24266 -5.64366,2.93734 -2.54592,1.61419 -5.11337,3.2279 -5.70544,3.58603 -3.49643,2.11494 -5.39857,3.31878 -9.2579,5.85928 -2.3683,1.55899 -4.88731,3.15275 -5.5978,3.54171 -2.39428,1.31076 -4.84425,2.9037 -4.84425,3.14968 0,0.17125 1.3998,0.27757 4.68278,0.35566 3.58732,0.0853 5.23679,0.22105 7.05107,0.58008 5.46182,1.08087 9.38749,2.28028 13.76279,4.20496 1.7672,0.77738 3.98149,1.6096 4.92065,1.8494 3.66188,0.93496 5.52024,1.83774 8.09588,3.93299 4.82212,3.9227 8.55302,9.27045 10.31762,14.78889 0.36079,1.12832 0.89277,2.68057 1.18217,3.44943 0.43882,1.16585 0.98999,3.19802 1.55913,5.74853 0.14395,0.64508 0.49196,0.6138 0.751,-0.0675 z m 302.22358,-28.95676 c 1.80376,-2.59523 2.90265,-4.64592 4.23366,-7.90058 0.52037,-1.27245 1.25119,-2.98869 1.62398,-3.81387 1.04847,-2.32063 2.98567,-8.76587 3.49346,-11.62307 0.42216,-2.37532 0.43805,-2.8068 0.20619,-5.5978 -0.52146,-6.27709 -1.11659,-7.7735 -6.16901,-15.5115 -4.65306,-7.12636 -4.34555,-6.78761 -9.78327,-10.77736 -2.98755,-2.19201 -4.19893,-2.94153 -5.92075,-3.66331 -1.19059,-0.4991 -3.182,-1.33778 -4.42536,-1.86373 -3.29155,-1.39236 -5.16246,-1.99598 -8.12555,-2.62155 -6.55749,-1.38443 -16.75035,-1.19601 -22.01644,0.40697 -1.00652,0.30638 -3.17492,0.89708 -4.81865,1.31267 -5.04206,1.27478 -6.79928,1.91676 -8.44051,3.08366 -0.81889,0.58223 -1.75424,1.34806 -2.07859,1.70185 -0.32433,0.3538 -1.05096,0.91144 -1.61475,1.23922 -0.56376,0.32778 -2.04233,1.28814 -3.28569,2.13414 -1.24336,0.84599 -2.81877,1.86825 -3.50093,2.27167 -0.68215,0.40343 -1.21276,0.81607 -1.17913,0.91698 0.0336,0.10091 1.52654,0.22526 3.31756,0.27634 3.89324,0.11101 7.00971,0.44128 15.03405,1.5932 7.86654,1.12928 7.65832,1.08484 15.81324,3.37447 2.76178,0.77542 8.73118,3.02447 10.79285,4.06636 2.27591,1.15015 7.22441,4.59406 9.24134,6.43151 3.54328,3.22797 8.02348,8.32629 10.22701,11.63799 1.31128,1.97075 3.13033,5.53129 4.10185,8.02883 0.33395,0.85851 0.72569,1.56093 0.87052,1.56093 0.14483,0 0.93117,-1.00898 1.74739,-2.24218 1.77672,-2.68434 2.97721,-3.78622 4.12509,-3.78622 1.65322,0 2.45857,1.22278 2.20755,3.3517 -0.22733,1.9281 -2.10817,4.74119 -5.55428,8.30733 l -2.00824,2.07818 -0.003,3.51962 c -0.002,1.93578 -0.0647,3.75056 -0.14029,4.03287 -0.27492,1.02721 0.46382,0.32611 2.02864,-1.92532 z m -147.75702,-2.73246 c 1.09657,-0.7993 3.32981,-2.42212 4.96277,-3.60627 3.45111,-2.50259 5.23784,-3.90266 8.0688,-6.32276 1.12494,-0.96168 4.17682,-3.36438 6.78194,-5.33933 2.60513,-1.97495 5.22103,-3.99816 5.8131,-4.49602 0.59208,-0.49788 2.97009,-2.15698 5.28445,-3.68691 2.31437,-1.5299 5.98218,-4.18195 8.1507,-5.89342 2.1685,-1.71146 4.97386,-3.91731 6.23409,-4.90188 1.26024,-0.98458 3.16332,-2.50358 4.22905,-3.37557 1.06574,-0.87199 2.45365,-1.98792 3.08422,-2.47985 1.27701,-0.9962 1.27324,-0.94073 0.18866,-2.78341 -0.93216,-1.58371 -3.21438,-3.97219 -6.07178,-6.35446 -3.0095,-2.50909 -3.84558,-3.13182 -4.20474,-3.13182 -0.15876,0 -1.21537,0.5223 -2.34797,1.16067 -1.13261,0.63837 -3.65788,2.05551 -5.61173,3.14919 -1.95385,1.09368 -4.32753,2.43214 -5.27485,2.97434 -0.94732,0.54221 -2.64281,1.47922 -3.76775,2.08226 -8.27899,4.43802 -20.93258,12.49768 -28.49625,18.15061 -1.67487,1.25175 -3.96559,2.82286 -5.09053,3.49139 -1.71261,1.01774 -6.35469,3.96304 -6.65637,4.22332 -0.4734,0.40845 0.97441,0.14862 5.41766,-0.97229 6.2958,-1.58825 10.03911,-2.12581 12.19261,-1.75097 2.04801,0.35649 2.67973,0.72127 3.3354,1.92596 1.18049,2.16891 0.67725,2.9661 -3.03048,4.80072 -1.51495,0.74961 -4.30464,2.22956 -6.19928,3.28875 -1.89464,1.05921 -4.50459,2.46727 -5.7999,3.12904 -1.29531,0.66174 -2.39159,1.3127 -2.4362,1.44653 -0.0446,0.13383 0.31122,0.4435 0.79075,0.68812 2.01213,1.02653 4.75428,2.9663 6.29031,4.44976 0.90411,0.87317 1.76212,1.58757 1.9067,1.58757 0.14457,0 1.16006,-0.65397 2.25662,-1.45327 z m -13.40911,-9.02477 c 1.3391,-0.67109 3.25826,-1.72156 4.26479,-2.33441 1.00652,-0.61285 2.72623,-1.62121 3.82157,-2.24082 1.7368,-0.98248 2.38662,-1.52482 1.82706,-1.52482 -0.0905,0 -2.19772,0.54133 -4.68278,1.20295 -2.48507,0.66161 -4.71207,1.25194 -4.9489,1.31184 -1.26007,0.31866 -5.33096,1.69652 -6.40517,2.16794 -0.68089,0.29879 -1.23798,0.65959 -1.23798,0.80178 0,0.30751 3.51576,1.77043 4.34721,1.80888 0.31946,0.0149 1.67187,-0.52066 3.0142,-1.19334 z m -13.70699,-4.60845 c 2.02858,-2.0573 4.9161,-4.19202 8.80876,-6.51224 1.78325,-1.0629 3.92046,-2.38671 4.74937,-2.94177 0.8289,-0.55507 2.18516,-1.38611 3.01392,-1.84674 0.82877,-0.46063 2.86336,-1.85186 4.52129,-3.09163 1.65796,-1.23978 5.38817,-3.84892 8.28933,-5.7981 2.90117,-1.94918 5.85616,-3.93682 6.56665,-4.41697 1.44821,-0.9787 8.07532,-4.91107 11.7802,-6.99007 3.77332,-2.11743 7.67292,-4.29873 11.90279,-6.65802 4.69599,-2.61928 5.1672,-2.90914 5.1672,-3.17864 0,-0.31504 -1.59736,-1.01271 -4.84425,-2.11579 -3.77879,-1.28379 -14.51253,-3.37788 -17.76224,-3.46531 -2.35678,-0.0634 -6.73827,0.15349 -10.75897,0.53261 -2.69155,0.25379 -13.05801,2.39013 -18.73712,3.86137 -1.77623,0.46016 -3.81081,0.95214 -4.5213,1.0933 -1.43863,0.28581 -2.82226,0.9338 -5.63694,2.63988 -1.0442,0.63293 -3.01273,1.76389 -4.37451,2.51325 -2.63727,1.45126 -12.16274,7.72851 -19.26934,12.69842 -4.22565,2.95517 -10.03956,6.81413 -13.47487,8.94391 -0.955,0.59207 -4.07851,2.62209 -6.94109,4.51115 -2.86261,1.88907 -5.96889,3.87628 -6.90286,4.41604 -1.68765,0.97533 -2.02298,1.43881 -0.99312,1.3726 0.29604,-0.0189 3.88078,-0.0421 7.9661,-0.0512 11.46821,-0.0257 14.42994,0.20591 23.46769,1.83496 4.87398,0.87851 7.80889,1.59477 12.59505,3.07377 1.89463,0.58549 3.54428,1.07202 3.66586,1.08119 0.12161,0.009 0.89668,-0.6685 1.7224,-1.50593 z m -61.71846,-4.16438 c 0.45286,-0.28587 2.02531,-1.12139 3.49435,-1.8567 1.46903,-0.73529 3.34765,-1.77364 4.17473,-2.30743 0.82709,-0.5338 2.37583,-1.45476 3.4417,-2.04658 3.18097,-1.76628 13.34297,-8.54611 30.57902,-20.40155 2.01306,-1.38463 5.16182,-3.46456 6.99725,-4.62205 1.83543,-1.1575 3.49175,-2.26137 3.6807,-2.45304 0.29716,-0.30144 0.31948,-0.69539 0.16527,-2.91742 -0.21881,-3.15228 -0.33977,-3.52921 -1.89049,-5.89083 -1.81859,-2.76955 -5.2765,-6.02493 -9.06038,-8.52965 -2.63981,-1.74742 -4.19501,-2.36265 -10.44204,-4.13083 -4.40052,-1.24554 -7.06057,-1.78335 -10.649,-2.15303 -3.45926,-0.35638 -5.08846,-0.2878 -13.6799,0.57577 -1.18414,0.11903 -3.65471,0.27324 -5.49014,0.3427 l -3.33715,0.12628 -2.153,1.33732 c -2.76004,1.71439 -5.82437,3.4774 -10.01145,5.75992 -3.58609,1.9549 -4.68288,2.62172 -19.86136,12.07525 -5.47672,3.41104 -11.31406,6.98358 -12.97187,7.93898 -5.2187,3.00754 -8.173,4.84769 -10.94359,6.81643 -1.47684,1.04941 -4.05118,2.75783 -5.72076,3.79648 -1.66958,1.03865 -3.0356,1.97348 -3.0356,2.07741 0,0.2259 1.29098,0.23736 5.26553,0.0467 l 2.96532,-0.14221 4.3351,-3.18697 c 4.81204,-3.53759 6.72433,-4.7132 8.89778,-5.47005 1.78561,-0.62179 7.36084,-3.43924 9.05741,-4.57718 0.67958,-0.45581 2.19624,-1.33793 3.37034,-1.96028 1.17411,-0.62234 2.43362,-1.35733 2.7989,-1.63331 0.36529,-0.27599 2.26276,-1.46195 4.21661,-2.63549 1.95384,-1.17353 4.47285,-2.72076 5.5978,-3.43829 1.91067,-1.2187 8.09355,-4.74689 12.27209,-7.00293 1.76114,-0.95086 8.05758,-3.86725 10.17292,-4.71191 0.56247,-0.22459 1.5071,-0.6007 2.09918,-0.83581 0.59207,-0.2351 1.0765,-0.34159 1.0765,-0.23663 0,0.5212 -9.83642,7.84617 -18.0852,13.46766 -1.71701,1.17013 -4.40793,3.08546 -5.97982,4.25628 -1.57188,1.17081 -3.80024,2.68761 -4.9519,3.37065 -1.15166,0.68304 -2.77212,1.68193 -3.60102,2.21976 -0.82891,0.53782 -2.37907,1.44534 -3.4448,2.0167 -1.06573,0.57136 -2.60464,1.46335 -3.41978,1.98219 -2.64154,1.68135 -7.1724,3.71604 -9.00591,4.04433 -0.91338,0.16354 -1.99823,0.43837 -2.41078,0.61075 -1.33556,0.55804 -5.29407,3.37591 -5.29407,3.7686 0,0.091 1.18684,0.28049 2.63742,0.42114 5.71224,0.55386 11.9858,1.69718 19.00022,3.46266 4.00822,1.00884 7.60994,2.04391 8.612,2.47492 0.94732,0.40746 2.97321,1.23249 4.50199,1.8334 4.21112,1.6552 12.37005,6.53756 13.99334,8.3737 0.52961,0.59905 1.02043,0.5856 2.03654,-0.0559 z m 148.11647,-26.94479 c 0.76784,-0.42205 2.18223,-1.27979 3.14307,-1.90607 0.96087,-0.62628 2.0846,-1.31245 2.49723,-1.52482 0.80033,-0.41193 9.23811,-6.13136 11.69524,-7.92744 1.307,-0.95538 1.45743,-1.13836 1.34325,-1.6338 -0.0707,-0.30686 -0.27242,-1.45048 -0.44819,-2.54138 -0.40196,-2.49462 -1.2797,-4.72297 -2.97594,-7.55532 -1.96241,-3.27676 -2.64433,-4.0898 -4.77593,-5.69434 -5.23571,-3.94109 -11.4343,-5.81821 -21.8397,-6.61374 -1.59266,-0.12177 -6.63724,-0.22139 -11.21015,-0.22139 -7.6779,0 -8.43689,0.0334 -9.91458,0.43593 -0.88011,0.23976 -2.27839,0.57469 -3.1073,0.74428 -4.22879,0.8652 -9.6512,3.14905 -12.05679,5.07817 -0.59208,0.4748 -1.80314,1.30982 -2.69125,1.85558 -0.88811,0.54577 -2.48672,1.54635 -3.55245,2.22351 -1.06573,0.67716 -2.58741,1.5856 -3.3815,2.01875 -0.79411,0.43316 -1.49844,0.87595 -1.56521,0.98398 -0.0668,0.10803 -0.41012,0.34046 -0.763,0.5165 -1.02838,0.51302 -5.23136,2.92908 -5.68547,3.26826 -0.22817,0.17043 -0.36444,0.36033 -0.30277,0.42199 0.0617,0.0617 1.79161,-0.22666 3.84435,-0.64073 2.43213,-0.49059 4.90003,-0.83002 7.0847,-0.97441 1.84387,-0.12186 3.6916,-0.2706 4.10605,-0.33053 0.41445,-0.0599 2.54592,-0.11921 4.7366,-0.13174 3.97807,-0.0227 3.99108,-0.0213 10.41901,1.19087 3.53978,0.66751 7.02168,1.36542 7.73753,1.55091 2.57535,0.66735 6.32726,2.0526 8.81537,3.25474 l 2.53539,1.22499 1.44766,-0.77808 c 2.34911,-1.26258 5.18797,-2.34796 7.26077,-2.77605 2.05668,-0.42475 3.55245,-0.52112 3.55245,-0.22888 0,0.79204 -2.75765,3.21368 -5.72332,5.02594 -1.9881,1.2149 -2.29305,1.48237 -2.06899,1.81481 0.082,0.12172 1.11801,1.00454 2.30216,1.96181 2.66085,2.15105 5.11945,4.67816 6.3453,6.52208 0.99021,1.48948 1.51108,2.153 1.6901,2.153 0.0606,0 0.73848,-0.34532 1.50631,-0.76738 z m -89.7991,-11.8231 c 0.44645,-0.17512 2.01585,-0.66229 3.48758,-1.08261 2.19763,-0.62764 3.27503,-1.09741 6.0284,-2.62855 5.85803,-3.25761 12.3322,-7.22477 14.30728,-8.76703 l 1.91141,-1.49253 -0.14552,-1.92769 c -0.22318,-2.95614 -0.95428,-5.71114 -2.13276,-8.03678 -0.78817,-1.55536 -2.91454,-4.16132 -4.41309,-5.40842 -2.70959,-2.25496 -7.46135,-4.63359 -11.23807,-5.62555 -1.36382,-0.35822 -2.91269,-0.80407 -3.44192,-0.99079 -4.30468,-1.51879 -13.02816,-2.45434 -20.50028,-2.19856 -5.79496,0.19837 -9.03775,1.01567 -14.6197,3.68473 -1.61343,0.77148 -3.94085,1.78106 -5.17204,2.24352 -3.08193,1.15762 -3.26434,1.26031 -9.56483,5.38514 -7.40434,4.84749 -7.39779,4.84279 -6.90417,4.94519 0.22012,0.0457 2.06093,-0.0957 4.0907,-0.31404 7.52514,-0.80968 14.34616,-0.41878 19.64512,1.12583 1.05338,0.30705 3.07619,0.84683 4.49516,1.19952 5.92385,1.47239 9.63153,3.4767 15.02617,8.12294 3.77669,3.25274 6.89335,7.77161 7.3692,10.68462 0.26071,1.596 0.33811,1.64323 1.77136,1.08106 z"
         id="path3068"
         inkscape:connector-curvature="0" />
    </g>
  </g>
  <g
     inkscape:groupmode="layer"
     id="layer3"
     inkscape:label="clouds"
     style="display:inline"
     transform="translate(-102.40532,-367.35376)" />
  <g
     inkscape:groupmode="layer"
     id="layer9"
     inkscape:label="text"
     style="display:inline"
     transform="translate(-102.40532,-367.35376)" />
</svg>
