<svg id="Layer_1" data-name="Layer 1" xmlns="http://www.w3.org/2000/svg" viewBox="0 0 425 50"><defs><style>.cls-1{fill:#0c99d5;}</style></defs><title>Artboard 1</title><rect class="cls-1" x="191" width="234" height="50"/><path d="M2.08,34.75l2.37-3.12a10.64,10.64,0,0,0,3.18,1.62,12.79,12.79,0,0,0,3.6.49,6.48,6.48,0,0,0,3.75-1,3.35,3.35,0,0,0,1.41-2.94,3.58,3.58,0,0,0-.68-2.28,4.8,4.8,0,0,0-1.94-1.37A29.27,29.27,0,0,0,10.29,25a12,12,0,0,1-5.48-2.77,6.59,6.59,0,0,1-1.87-4.92,6.67,6.67,0,0,1,1.25-4.06,7.58,7.58,0,0,1,3.37-2.56,12.59,12.59,0,0,1,4.8-.87A14.53,14.53,0,0,1,21,12.5l-2.22,3.2a12.51,12.51,0,0,0-3.09-1.43,10.77,10.77,0,0,0-3.2-.46,6.18,6.18,0,0,0-3.37.81,2.7,2.7,0,0,0-1.26,2.43,2.83,2.83,0,0,0,1.28,2.51,15.49,15.49,0,0,0,4.26,1.64,14,14,0,0,1,6,2.91,7.13,7.13,0,0,1,2.07,5.52,7.62,7.62,0,0,1-1.36,4.58A8.1,8.1,0,0,1,16.41,37a14.12,14.12,0,0,1-5.14.9,15.17,15.17,0,0,1-5-.81A13.45,13.45,0,0,1,2.08,34.75Z"/><path d="M24.19,31.67q0-3.86,2.73-5.35c1.82-1,4.43-1.51,7.85-1.51.83,0,1.46,0,1.88,0v-1q0-3.16-4-3.16a11.83,11.83,0,0,0-5.68,1.5l-1.59-3.12a14.25,14.25,0,0,1,3.58-1.49,14.71,14.71,0,0,1,4-.55q4.47,0,6.47,2t2,6.16v7.45a43.9,43.9,0,0,0,.34,4.48H37.37c-.18-1-.29-1.77-.34-2.22h-.11A6.66,6.66,0,0,1,34.39,37a9.38,9.38,0,0,1-3.88.68A6.7,6.7,0,0,1,26,36.13,5.59,5.59,0,0,1,24.19,31.67Zm12.5-2.08V28l-1.43,0a10.59,10.59,0,0,0-4.75.78,2.69,2.69,0,0,0-1.43,2.58,2.52,2.52,0,0,0,.76,2,2.85,2.85,0,0,0,2,.7,4.93,4.93,0,0,0,2.48-.62,4.88,4.88,0,0,0,1.72-1.62A4.08,4.08,0,0,0,36.69,29.59Z"/><path d="M51.83,10.5V37.16H47.12V10.5Z"/><path d="M74.84,29.1H61.21a5.7,5.7,0,0,0,1.67,3.6A5.4,5.4,0,0,0,66.67,34a9,9,0,0,0,2.92-.43,13.18,13.18,0,0,0,2.69-1.34l2,3a12.75,12.75,0,0,1-3.63,1.86,14.2,14.2,0,0,1-4.31.62,10.49,10.49,0,0,1-5.31-1.28,8.52,8.52,0,0,1-3.41-3.62,11.79,11.79,0,0,1-1.19-5.42,11,11,0,0,1,2.47-7.49,8.75,8.75,0,0,1,7-2.83,8.23,8.23,0,0,1,6.74,2.79A11.43,11.43,0,0,1,75,27.33,12.75,12.75,0,0,1,74.84,29.1Zm-4.52-3.54A5.9,5.9,0,0,0,69.14,22a3.92,3.92,0,0,0-3.26-1.4A4.15,4.15,0,0,0,62.51,22a6.06,6.06,0,0,0-1.34,3.56Z"/><path d="M92.47,19.12l-1.89,3A8.7,8.7,0,0,0,86,20.67a4.45,4.45,0,0,0-2.33.51,1.59,1.59,0,0,0-.83,1.45,1.93,1.93,0,0,0,.38,1.26,2.94,2.94,0,0,0,1.22.81,21.32,21.32,0,0,0,2.62.75,9.41,9.41,0,0,1,4.31,2.13,4.93,4.93,0,0,1,1.45,3.71A5.45,5.45,0,0,1,90.43,36a9.57,9.57,0,0,1-5.72,1.66,11.53,11.53,0,0,1-7.23-2.22l2-2.94a10.54,10.54,0,0,0,2.39,1.13,8.51,8.51,0,0,0,2.58.38,4.46,4.46,0,0,0,2.51-.6,2.06,2.06,0,0,0,.88-1.81,1.92,1.92,0,0,0-.37-1.25,3.13,3.13,0,0,0-1.21-.79,20.78,20.78,0,0,0-2.56-.75,8.89,8.89,0,0,1-4.27-2.11,5.17,5.17,0,0,1-1.38-3.8,5.06,5.06,0,0,1,2.11-4.31,9.08,9.08,0,0,1,5.57-1.57A10.93,10.93,0,0,1,92.47,19.12Z"/><path d="M108.93,10.61,107.8,14a7.71,7.71,0,0,0-2.07-.26q-3.28,0-3.28,3.16v.91h4.63v3.58h-4.63V37.16H97.74V21.35h-3.2v-3l3.2-.56V16.71a6.63,6.63,0,0,1,1.79-4.93Q101.32,10,105,10A11.85,11.85,0,0,1,108.93,10.61Z"/><path d="M129.45,27.3a11.61,11.61,0,0,1-1.22,5.4,8.88,8.88,0,0,1-3.54,3.67,10.82,10.82,0,0,1-5.44,1.32,10.51,10.51,0,0,1-5.43-1.34,9,9,0,0,1-3.52-3.69,11.38,11.38,0,0,1-1.22-5.36,11.49,11.49,0,0,1,1.2-5.39,8.66,8.66,0,0,1,3.49-3.58,11,11,0,0,1,5.48-1.28,11.14,11.14,0,0,1,5.49,1.28,8.65,8.65,0,0,1,3.51,3.58A11.49,11.49,0,0,1,129.45,27.3ZM114,27.3a8.38,8.38,0,0,0,1.26,4.84,5.44,5.44,0,0,0,8.12,0,8.3,8.3,0,0,0,1.28-4.84,7.87,7.87,0,0,0-1.28-4.73,4.73,4.73,0,0,0-4.1-1.75,4.58,4.58,0,0,0-4,1.75A8,8,0,0,0,114,27.3Z"/><path d="M134.08,22.06c0-.95-.11-2.45-.33-4.48h4.51a21.44,21.44,0,0,1,.31,2.71h.07a6.06,6.06,0,0,1,5.8-3.24,4.5,4.5,0,0,1,1.21.15l-.19,4.07a8.07,8.07,0,0,0-1.43-.11,4.77,4.77,0,0,0-3.86,1.62,6.11,6.11,0,0,0-1.38,4.1V37.16h-4.71Z"/><path d="M157.06,17.05a10.8,10.8,0,0,1,6.55,2.11l-1.77,3.28A8.55,8.55,0,0,0,157.1,21a4.75,4.75,0,0,0-4,1.69,7.49,7.49,0,0,0-1.31,4.67A7.62,7.62,0,0,0,153.1,32,4.62,4.62,0,0,0,157,33.74a9.7,9.7,0,0,0,4.86-1.51l1.69,3.35a11.37,11.37,0,0,1-3.23,1.56,12.37,12.37,0,0,1-3.7.55,9.46,9.46,0,0,1-5.72-1.58,8.43,8.43,0,0,1-3-3.92,13.75,13.75,0,0,1-.87-4.86,11.58,11.58,0,0,1,1.21-5.44,8.53,8.53,0,0,1,3.46-3.58A10.83,10.83,0,0,1,157.06,17.05Z"/><path d="M184.21,29.1H170.58a5.65,5.65,0,0,0,1.68,3.6A5.36,5.36,0,0,0,176,34a8.93,8.93,0,0,0,2.92-.43,13.18,13.18,0,0,0,2.69-1.34l2,3a12.8,12.8,0,0,1-3.64,1.86,14.2,14.2,0,0,1-4.31.62,10.49,10.49,0,0,1-5.31-1.28A8.52,8.52,0,0,1,167,32.79a11.79,11.79,0,0,1-1.19-5.42,11,11,0,0,1,2.47-7.49,8.75,8.75,0,0,1,7-2.83A8.23,8.23,0,0,1,182,19.84a11.44,11.44,0,0,1,2.3,7.49A12.73,12.73,0,0,1,184.21,29.1Zm-4.52-3.54A5.9,5.9,0,0,0,178.51,22a3.92,3.92,0,0,0-3.26-1.4A4.15,4.15,0,0,0,171.88,22a6.06,6.06,0,0,0-1.34,3.56Z"/><path d="M198.19,23.83a16.27,16.27,0,0,1,1.54-7.25,11.39,11.39,0,0,1,4.5-4.89,15.2,15.2,0,0,1,14.2,0,11.39,11.39,0,0,1,4.5,4.89,16.27,16.27,0,0,1,1.54,7.25,16.21,16.21,0,0,1-1.54,7.25,11.41,11.41,0,0,1-4.5,4.9,15.28,15.28,0,0,1-14.2,0,11.41,11.41,0,0,1-4.5-4.9A16.21,16.21,0,0,1,198.19,23.83Zm24.33,0a15,15,0,0,0-1.28-6.36,9.94,9.94,0,0,0-3.81-4.32,11.38,11.38,0,0,0-6.1-1.56,11.26,11.26,0,0,0-6.08,1.56,10,10,0,0,0-3.79,4.32,15,15,0,0,0-1.28,6.36,15,15,0,0,0,1.28,6.37,9.93,9.93,0,0,0,3.79,4.31,11.26,11.26,0,0,0,6.08,1.56,11.38,11.38,0,0,0,6.1-1.56,9.91,9.91,0,0,0,3.81-4.31A15,15,0,0,0,222.52,23.83Z"/><path d="M247.49,27.79a12.08,12.08,0,0,1-1,5.08,8.19,8.19,0,0,1-3,3.54,8.4,8.4,0,0,1-4.67,1.28,8.8,8.8,0,0,1-3.87-.79A9.58,9.58,0,0,1,232,34.64V46.35h-1.88V22.44c0-1.21-.08-2.56-.23-4.07h1.77a34.77,34.77,0,0,1,.23,3.8h.07a7.07,7.07,0,0,1,2.81-3.2,8.3,8.3,0,0,1,4.38-1.13,7.85,7.85,0,0,1,4.56,1.3,8.13,8.13,0,0,1,2.85,3.54A12.9,12.9,0,0,1,247.49,27.79Zm-1.92,0a9.87,9.87,0,0,0-1.78-6.09,5.81,5.81,0,0,0-4.93-2.35,6.79,6.79,0,0,0-3.63,1,6.45,6.45,0,0,0-2.41,2.56,7.22,7.22,0,0,0-.85,3.45v6.44a9.87,9.87,0,0,0,2.95,2.58,7.51,7.51,0,0,0,3.56.81,6.29,6.29,0,0,0,5.24-2.34A9.4,9.4,0,0,0,245.57,27.79Z"/><path d="M268.31,28.35h-14.8A9,9,0,0,0,255.43,34a6.29,6.29,0,0,0,5.12,2.17,9.74,9.74,0,0,0,3.28-.51,12.44,12.44,0,0,0,2.86-1.49l.87,1.24a12,12,0,0,1-3.26,1.72,11.78,11.78,0,0,1-3.82.58,8.06,8.06,0,0,1-6.54-2.77,11,11,0,0,1-2.31-7.29,12.18,12.18,0,0,1,1-5.1,7.93,7.93,0,0,1,2.94-3.44,8.26,8.26,0,0,1,4.6-1.25,7.35,7.35,0,0,1,6.08,2.6,10.82,10.82,0,0,1,2.09,7A7.8,7.8,0,0,1,268.31,28.35Zm-1.77-1.47a9,9,0,0,0-1.69-5.53,5.66,5.66,0,0,0-4.71-2,5.8,5.8,0,0,0-4.82,2.17,8.66,8.66,0,0,0-1.81,5.4Z"/><path d="M273.89,22.44c0-1.21-.08-2.56-.23-4.07h1.77a31.13,31.13,0,0,1,.23,3.5h.07a7,7,0,0,1,2.66-2.93,8,8,0,0,1,4.31-1.1A6.45,6.45,0,0,1,288,19.93a8,8,0,0,1,1.74,5.3V37.16h-1.89V25.56a7.06,7.06,0,0,0-1.32-4.38,4.89,4.89,0,0,0-4.18-1.76,6.6,6.6,0,0,0-3.44.89,6,6,0,0,0-2.3,2.41,7.08,7.08,0,0,0-.81,3.37V37.16h-1.88Z"/><path d="M303.49,34.57l1-1.21a12.23,12.23,0,0,0,3.57,2,12.39,12.39,0,0,0,4.18.66,7.74,7.74,0,0,0,4.94-1.52,5.15,5.15,0,0,0,1.92-4.28,5.28,5.28,0,0,0-.87-3.14,6.27,6.27,0,0,0-2.37-2A20.5,20.5,0,0,0,312,23.76a14.36,14.36,0,0,1-5.68-2.58,5.58,5.58,0,0,1-1.81-4.47,5.93,5.93,0,0,1,2.35-5,9.63,9.63,0,0,1,6.08-1.83,12.88,12.88,0,0,1,4.18.63,12.27,12.27,0,0,1,3.47,1.82l-.94,1.28a11.31,11.31,0,0,0-3.09-1.58,11.67,11.67,0,0,0-3.62-.53,7.64,7.64,0,0,0-4.72,1.36,4.47,4.47,0,0,0-1.79,3.77,4,4,0,0,0,1.52,3.4,15.06,15.06,0,0,0,4.92,2.09,21.08,21.08,0,0,1,4.48,1.66,7.4,7.4,0,0,1,2.77,2.47,7.05,7.05,0,0,1,1,3.9,6.87,6.87,0,0,1-4.3,6.66,11.09,11.09,0,0,1-4.48.87A13,13,0,0,1,303.49,34.57Z"/><path d="M343.11,27.71a12.08,12.08,0,0,1-1.07,5.2,8.17,8.17,0,0,1-3.13,3.52,10.29,10.29,0,0,1-9.87,0,8.09,8.09,0,0,1-3.12-3.52,11.93,11.93,0,0,1-1.08-5.2,10.47,10.47,0,0,1,2.39-7.21,9.78,9.78,0,0,1,13.47,0A10.39,10.39,0,0,1,343.11,27.71Zm-16.35,0a9.59,9.59,0,0,0,1.83,6.1,6.35,6.35,0,0,0,5.33,2.34,6.51,6.51,0,0,0,5.42-2.32,9.52,9.52,0,0,0,1.85-6.12,9.38,9.38,0,0,0-1.85-6.06,6.55,6.55,0,0,0-5.42-2.3,6.41,6.41,0,0,0-5.35,2.3A9.55,9.55,0,0,0,326.76,27.71Z"/><path d="M348.38,29.82V18.37h1.88V29.59a7.9,7.9,0,0,0,1.34,4.75,4.72,4.72,0,0,0,4.09,1.85,5.84,5.84,0,0,0,3.5-1.08,6.83,6.83,0,0,0,2.32-2.88,9.65,9.65,0,0,0,.81-4V18.37h1.88V33.06c0,1.18.08,2.55.23,4.1h-1.77a36.83,36.83,0,0,1-.23-4.06h-.08a7.52,7.52,0,0,1-2.71,3.42,7.39,7.39,0,0,1-4.29,1.21,6.28,6.28,0,0,1-5.24-2.19A8.94,8.94,0,0,1,348.38,29.82Z"/><path d="M371.21,22.44c0-1.21-.08-2.56-.23-4.07h1.77A33.45,33.45,0,0,1,373,22h.07a6.07,6.07,0,0,1,6.22-4.15,4.91,4.91,0,0,1,.94.08l-.08,1.58c-.25,0-.59,0-1,0a5.28,5.28,0,0,0-4.47,2.06,8.53,8.53,0,0,0-1.56,5.32V37.16h-1.88Z"/><path d="M390.75,17.84a10.93,10.93,0,0,1,3.39.53,8.15,8.15,0,0,1,2.79,1.51l-.83,1.28a8.32,8.32,0,0,0-5.35-1.74,6.44,6.44,0,0,0-5.33,2.28,9.44,9.44,0,0,0-1.82,6.05,9.51,9.51,0,0,0,1.82,6,6.31,6.31,0,0,0,5.29,2.34,9.33,9.33,0,0,0,5.39-1.77l.75,1.28a10.05,10.05,0,0,1-6.21,2.07,8.68,8.68,0,0,1-5-1.34,8.12,8.12,0,0,1-3-3.57,12.5,12.5,0,0,1-1-5,10.47,10.47,0,0,1,2.38-7.21A8.39,8.39,0,0,1,390.75,17.84Z"/><path d="M416.55,28.35h-14.8A9,9,0,0,0,403.67,34a6.29,6.29,0,0,0,5.12,2.17,9.78,9.78,0,0,0,3.28-.51,12.65,12.65,0,0,0,2.86-1.49l.87,1.24a12,12,0,0,1-3.26,1.72,11.78,11.78,0,0,1-3.82.58,8,8,0,0,1-6.54-2.77,11,11,0,0,1-2.31-7.29,12.18,12.18,0,0,1,1-5.1,7.93,7.93,0,0,1,2.94-3.44,8.26,8.26,0,0,1,4.6-1.25,7.36,7.36,0,0,1,6.08,2.6,10.82,10.82,0,0,1,2.09,7A7.8,7.8,0,0,1,416.55,28.35Zm-1.77-1.47a9,9,0,0,0-1.69-5.53,5.66,5.66,0,0,0-4.71-2,5.8,5.8,0,0,0-4.82,2.17,8.66,8.66,0,0,0-1.81,5.4Z"/></svg>